<svg width="37" height="31" viewBox="0 0 37 31" fill="none" xmlns="http://www.w3.org/2000/svg">
<path d="M35.7822 15.9682L31.5941 11.8949C31.4528 11.7309 31.3076 11.5707 31.1506 11.4145L20.1642 0.659037C19.2653 -0.219679 17.8248 -0.219679 16.9299 0.659037L9.38585 8.04807L1.23733 15.9682C0.240358 16.9368 0.931176 18.6239 2.32459 18.6239H5.35869V27.2549C5.35869 28.8405 6.65005 30.1292 8.24757 30.1292H28.8465C30.4401 30.1292 31.7354 28.8444 31.7354 27.2549V18.6239H34.6949C36.0883 18.6239 36.7792 16.9368 35.7822 15.9682ZM25.7418 18.6591C25.1726 19.5104 24.4897 20.2681 23.7243 20.9476C22.1424 22.3497 20.5371 23.7244 18.9435 25.1108C18.6609 25.3568 18.4332 25.3529 18.1506 25.1108C16.8828 24.0212 15.6071 22.9355 14.3433 21.842C13.3777 21.0062 12.4514 20.1353 11.6742 19.116C11.16 18.4404 10.74 17.71 10.5398 16.8821C10.4613 16.5658 10.426 16.2377 10.3711 15.9175V15.2496C10.3828 15.1872 10.3946 15.1247 10.4025 15.0622C10.5516 13.7226 11.0893 12.5822 12.1845 11.766C13.2639 10.9615 14.4767 10.7311 15.7798 11.0787C16.7336 11.3325 17.4598 11.9183 18.0446 12.6916C18.2213 12.9259 18.3783 13.1759 18.551 13.4297C18.5941 13.3633 18.6255 13.3047 18.6648 13.2501C18.9199 12.9064 19.1515 12.5393 19.4459 12.2269C20.6509 10.9537 22.2288 10.6334 23.7517 11.1529C25.2511 11.6645 26.15 12.758 26.5464 14.2538C26.9664 15.8355 26.6445 17.3039 25.7418 18.6552V18.6591Z" fill="#0074D3"/>
</svg>
