<svg width="79" height="79" viewBox="0 0 79 79" fill="none" xmlns="http://www.w3.org/2000/svg">
<path d="M18.9458 43.6596V39.6449C18.5734 39.6449 18.2423 39.6449 17.9113 39.6449C15.2115 39.6449 12.5116 39.6449 9.81172 39.6449C7.10151 39.6345 5.63261 38.1445 5.63261 35.4232C5.63261 29.1527 5.63261 22.8926 5.63261 16.6221C5.63261 13.8904 7.09116 12.4314 9.83241 12.4314C19.1733 12.4314 28.5039 12.4314 37.8449 12.4314C40.6378 12.4314 42.0964 13.8904 42.0964 16.6635C42.0964 22.9339 42.0964 29.1941 42.0964 35.4646C42.0964 38.1238 40.6068 39.6345 37.9586 39.6449C35.2588 39.6552 32.5589 39.6449 29.859 39.6449C29.528 39.6449 29.1866 39.6449 28.7936 39.6449V43.5872H45.2824C45.2824 43.2871 45.2824 42.9664 45.2824 42.6353C45.2824 39.7794 45.2824 36.9235 45.2824 34.0677C45.2824 32.2672 46.172 31.3774 47.9616 31.367C50.0408 31.367 52.12 31.367 54.1992 31.367C55.9785 31.367 56.7129 31.9775 57.0956 33.8814C57.3646 33.8814 57.6646 33.8814 57.9542 33.8814C60.1369 33.9435 61.4403 35.2887 61.4506 37.4926C61.4506 38.0514 61.4506 38.6101 61.4506 39.1689C61.4299 41.3522 60.1058 42.6766 57.9025 42.7284C57.3336 42.7387 56.7853 42.6973 57.106 43.67C58.7404 43.67 60.4058 43.6803 62.0713 43.6493C62.2575 43.6493 62.5264 43.4423 62.6092 43.2561C64.5953 39.3034 66.5607 35.3404 68.5261 31.3877C65.4642 29.0182 65.9504 25.7381 68.1434 23.8549C65.5366 20.2643 62.9299 16.6531 60.1679 12.8453C60.0438 13.3109 59.9093 13.5696 59.9093 13.818C59.93 15.5253 59.268 16.8808 57.9335 17.9258C57.106 18.5777 56.2784 19.24 55.4406 19.8711C54.6958 20.4299 54.1682 20.3782 53.5993 19.6538C51.458 16.9532 49.3271 14.2525 47.2168 11.5312C46.6582 10.8172 46.741 10.2688 47.4547 9.68937C48.3443 8.96506 49.2443 8.2511 50.1649 7.55783C51.3752 6.64726 52.7303 6.39893 54.2199 6.70935C54.6027 6.79212 55.1199 6.66796 55.4406 6.45066C56.2888 5.88156 57.0543 5.19864 57.8715 4.5778C59.5576 3.30508 61.5437 3.53272 62.9195 5.15725C63.1781 5.46767 63.4367 5.77809 63.6643 6.1092C64.6574 7.59922 64.4505 9.45139 63.1471 10.6827C62.8161 11.0035 62.454 11.2829 62.0713 11.614C63.3229 13.342 64.5332 15.0182 65.7538 16.6945C66.8297 18.1742 67.9158 19.6435 68.9606 21.1439C69.7054 22.2096 70.3881 23.0685 71.9398 23.234C73.9776 23.4513 75.3534 25.5829 75.2603 27.673C75.1672 29.7321 73.5949 31.5429 71.526 31.8223C70.9053 31.9051 70.626 32.1638 70.3778 32.6811C68.7434 36.0233 67.0779 39.3551 65.4332 42.687C65.2987 42.956 65.1849 43.2354 65.0091 43.6493C66.0642 43.6493 67.0159 43.6493 67.9675 43.6493C69.6123 43.6493 71.257 43.6286 72.9018 43.6493C74.381 43.6803 75.2499 44.5805 75.2706 46.0602C75.281 46.8673 75.2913 47.6744 75.2706 48.4815C75.2293 49.7542 74.3603 50.6337 73.0983 50.6958C72.2398 50.7372 71.3708 50.6958 70.3778 50.6958C70.3778 51.1511 70.3778 51.5132 70.3778 51.8754C70.3778 59.0151 70.3778 66.1444 70.3778 73.284C70.3778 74.9913 70.1295 75.2397 68.4641 75.2397C59.961 75.2397 51.4683 75.2397 42.9653 75.2397C41.2999 75.2397 41.0619 75.0017 41.0619 73.284C41.0619 66.1754 41.0619 59.0771 41.0619 51.9685V50.7786H21.1181C21.1181 51.1407 21.1181 51.5029 21.1181 51.8651C21.1181 59.0668 21.1181 66.2582 21.1181 73.4599C21.1181 74.9603 20.8388 75.2293 19.3182 75.2293C16.4011 75.2293 13.484 75.2293 10.5669 75.2293C8.99452 75.2293 8.71522 74.9603 8.71522 73.4082C8.71522 66.2375 8.71522 59.0771 8.71522 51.9064C8.71522 51.5443 8.71522 51.1821 8.71522 50.7062C7.86699 50.7062 7.13254 50.7062 6.39809 50.7062C4.66025 50.6855 3.82236 49.8577 3.81201 48.1504C3.81201 47.4985 3.81201 46.8466 3.81201 46.1947C3.82236 44.5392 4.68094 43.6493 6.33603 43.6493C10.1841 43.6389 14.0322 43.6493 17.8803 43.6493C18.2423 43.6493 18.6044 43.6493 19.0078 43.6493L18.9458 43.6596ZM7.91871 29.9184H39.862C39.862 25.2828 39.8723 20.7196 39.8517 16.1565C39.8517 15.1528 39.231 14.6561 38.1138 14.6561C28.6177 14.6561 19.132 14.6561 9.63587 14.6561C8.39455 14.6561 7.88768 15.1735 7.87733 16.4255C7.87733 20.7093 7.87733 24.9931 7.87733 29.2665C7.87733 29.4735 7.90837 29.6804 7.91871 29.9184ZM43.317 50.8303V72.9426H68.0296V50.8303H43.317ZM18.7803 50.7786C16.4735 50.7786 14.2288 50.82 11.9737 50.7579C11.1255 50.7372 10.8772 50.9752 10.8875 51.8444C10.9186 58.5701 10.9082 65.2959 10.9082 72.0216C10.9082 72.3217 10.9393 72.6321 10.9496 72.9529H18.7803V50.7786ZM72.9639 45.9671H6.05673V48.4091H72.9742V45.9671H72.9639ZM7.86699 32.2776C7.86699 33.2813 7.86699 34.1711 7.86699 35.0714C7.86699 37.0373 8.22904 37.3995 10.2048 37.3995C17.4251 37.3995 24.6558 37.3995 31.8762 37.3995C33.9244 37.3995 35.9725 37.3995 38.0207 37.3995C38.8793 37.3995 39.6861 37.1408 39.7792 36.2303C39.9137 34.9265 39.8103 33.602 39.8103 32.2776H7.86699ZM47.5685 43.5562H54.6854V33.6538H47.5685V43.5562ZM54.7785 17.543C55.513 16.9532 56.2267 16.4565 56.8577 15.8771C57.8198 14.9872 57.9542 13.6731 57.1784 12.597C56.4543 11.5933 55.6888 10.6103 54.882 9.66868C54.0751 8.72707 52.8027 8.50978 51.7683 9.17201C50.9925 9.66868 50.2891 10.2792 49.5236 10.869C51.2925 13.1247 53.02 15.308 54.7785 17.543ZM26.4557 39.7173H21.2732V43.5562H26.4557V39.7173ZM58.9266 11.169C59.8576 10.424 60.7886 9.76181 61.6161 8.9961C62.2885 8.37526 62.0609 7.68199 61.5334 7.01976C60.7472 6.02642 60.1679 5.716 59.4748 6.18163C58.5128 6.82317 57.6336 7.58887 56.6819 8.32353C57.468 9.31687 58.1611 10.2067 58.9163 11.1587L58.9266 11.169ZM70.8329 25.2724C69.6226 25.2517 68.6192 26.2037 68.5882 27.404C68.5468 28.625 69.5502 29.6494 70.8019 29.6597C71.9915 29.6597 72.9845 28.6767 72.9949 27.4868C73.0052 26.2968 72.0329 25.2931 70.8329 25.2828V25.2724ZM57.0543 40.3692C58.8025 40.6589 59.2162 40.3381 59.2162 38.6929C59.2162 38.4135 59.2162 38.1342 59.2162 37.8548C59.2162 36.2613 58.699 35.8681 57.0543 36.2406V40.3588V40.3692Z" fill="#4F4F4F"/>
<path d="M55.6372 63.9093C53.3408 63.9093 51.0547 63.9093 48.7582 63.9093C47.0514 63.9093 46.1928 63.0402 46.1928 61.3329C46.1928 59.4393 46.1825 57.5561 46.1928 55.6625C46.2032 54.1311 47.0928 53.2309 48.6237 53.2309C53.3304 53.2206 58.0474 53.2206 62.7541 53.2309C64.192 53.2309 65.1023 54.0897 65.1333 55.528C65.1747 57.5768 65.1747 59.6152 65.1333 61.664C65.1023 63.0298 64.1713 63.899 62.7955 63.9093C60.4059 63.93 58.0267 63.9093 55.6372 63.9093ZM62.8575 55.528H48.4893V61.6226H62.8575V55.528Z" fill="#4F4F4F"/>
<path d="M24.9869 34.823C24.8732 35.537 24.5008 35.9716 23.8077 35.9302C23.125 35.8991 22.7215 35.4439 22.7629 34.7609C22.8043 34.1298 23.2077 33.7366 23.8594 33.7469C24.5628 33.7469 24.8835 34.2022 24.9869 34.823Z" fill="#4F4F4F"/>
<path d="M55.7096 59.6669C54.9958 59.5945 54.5614 59.253 54.5717 58.5494C54.5821 57.8562 55.0165 57.4526 55.6992 57.463C56.3406 57.463 56.744 57.8872 56.7647 58.5184C56.7854 59.2013 56.3613 59.5738 55.7199 59.6566L55.7096 59.6669Z" fill="#4F4F4F"/>
</svg>
