<svg width="79" height="79" viewBox="0 0 79 79" fill="none" xmlns="http://www.w3.org/2000/svg">
<path d="M23.7137 50.1374C25.1455 48.6235 27.5896 48.6178 29.0389 50.1345L29.1766 50.2858C30.4993 51.8207 30.3034 54.0458 28.6805 55.3708L28.5135 55.5007C28.1844 55.7386 27.953 55.9891 27.8075 56.2761C27.6621 56.5628 27.6005 56.8905 27.6151 57.2858L27.6278 58.1071C27.6319 58.9259 27.6151 59.7407 27.6151 60.5612V64.0251C27.6151 64.5928 27.5065 65.0293 27.2899 65.3229C27.0985 65.5822 26.8264 65.725 26.4842 65.7516L26.3329 65.7556C25.9414 65.7479 25.6333 65.5995 25.4247 65.3112C25.2177 65.0252 25.1131 64.6078 25.1131 64.069L25.0965 60.6491C25.0947 59.5092 25.0983 58.3692 25.1131 57.2292L25.1014 56.9548C25.0775 56.6929 25.0166 56.4652 24.9129 56.2595C24.8093 56.0537 24.6615 55.8674 24.4618 55.6901L24.244 55.5153C22.3974 54.1538 22.1543 51.766 23.6581 50.1501L23.6834 50.1227L23.7137 50.1374Z" stroke="black" stroke-width="0.1"/>
<path d="M66.0406 21.5892H66.0553C68.7135 21.5892 70.48 23.8405 69.7809 26.2064L69.7057 26.4359C69.1791 27.8893 67.8243 28.8216 66.1441 28.8216H26.6607C25.2456 28.8216 24.0813 28.2313 23.3834 27.3284C22.6853 26.4251 22.4563 25.2123 22.9068 23.9759L23.0182 23.6995C23.6222 22.3562 24.935 21.5892 26.6607 21.5892H46.3951C52.9484 21.5892 59.4871 21.5746 66.0406 21.5892Z" stroke="black" stroke-width="0.1"/>
<path d="M23.048 16.2072C26.8443 14.8473 31.2603 16.0086 33.8165 19.2257L33.881 19.3077H33.7775C31.1391 19.3077 28.6946 19.2502 26.2355 19.3068V19.3351L26.1876 19.3361C24.0222 19.3904 22.3371 20.3487 21.2501 22.1407L21.0411 22.5109C19.9676 24.5258 20.0845 26.5673 21.3644 28.4816L21.588 28.797C22.7401 30.326 24.3616 31.0921 26.3351 31.1193L28.1476 31.131C29.9603 31.1351 31.7755 31.1193 33.5997 31.1193H33.6759L33.6447 31.1896C33.1475 32.3176 31.8251 33.3142 30.2365 33.9718C28.745 34.5891 27.0081 34.9127 25.4747 34.7628L25.171 34.7267C20.7118 34.0865 17.4526 30.9502 16.7384 26.6544L16.6769 26.2355C16.1549 22.09 18.6597 17.9762 22.6827 16.3458L23.048 16.2072Z" stroke="black" stroke-width="0.1"/>
<path d="M39.041 3.7002C41.1335 3.70023 42.8078 4.3095 43.9609 5.44238C45.1143 6.57559 45.7406 8.22701 45.748 10.2979V19.207H47.0176C53.4371 19.207 59.8427 19.1778 66.2627 19.207H66.2637L66.5029 19.2129C68.9695 19.3174 71.0595 20.8115 71.9287 23.0391L71.9209 23.0439C72.7652 25.2522 72.2437 27.7192 70.5703 29.3945L70.4043 29.5537C69.1632 30.7034 67.6676 31.204 65.9668 31.2041H45.7334V68.585C45.7334 70.7281 45.1263 72.4091 43.9727 73.5537C42.8191 74.6982 41.1257 75.2998 38.9668 75.2998H13.6865C11.5571 75.2997 9.87113 74.6945 8.71777 73.5576C7.56428 72.4205 6.9502 70.7579 6.9502 68.6582V10.3857C6.9502 8.24993 7.56071 6.5766 8.72168 5.4375C9.88267 4.29858 11.5873 3.70025 13.7607 3.7002H39.041ZM13.3164 6.1875C12.0781 6.23392 11.1388 6.57653 10.499 7.20703C9.81672 7.87962 9.46682 8.88824 9.4668 10.2393V68.7021C9.4668 70.0828 9.8094 71.1054 10.4932 71.7832C11.1772 72.461 12.2114 72.8027 13.6123 72.8027H38.9961C40.4349 72.8027 41.4876 72.4679 42.1807 71.79C42.8734 71.1124 43.2168 70.0831 43.2168 68.6729V32.2715L43.2012 32.2568V31.2041C41.2947 31.2049 39.5284 31.2474 37.7637 31.1895C37.4062 31.1824 37.1339 31.233 36.9014 31.3555C36.7265 31.4476 36.5712 31.5822 36.418 31.7686L36.2646 31.9717C33.048 36.6356 26.9255 38.393 21.7139 36.2832L21.2129 36.0674C15.7946 33.5876 12.9496 27.6725 14.6025 22.0352L14.7363 21.5996C16.1737 17.1566 19.3268 14.3456 24.042 13.4785L24.5146 13.4004C26.8643 13.0466 29.0032 13.2854 30.9238 14.0771C32.9722 14.9216 34.7697 16.3929 36.3086 18.4375H36.3076C36.3602 18.5041 36.4171 18.5825 36.4746 18.6611C36.5327 18.7405 36.5925 18.821 36.6533 18.8926C36.7142 18.9642 36.7749 19.0262 36.834 19.0693C36.8933 19.1126 36.9472 19.1338 36.9951 19.1338H36.9961L38.5439 19.1631C40.0796 19.1794 41.6275 19.1634 43.2012 19.1631V10.166C43.2011 8.85956 42.8486 7.86558 42.1699 7.19824C41.4909 6.53072 40.4781 6.18262 39.1445 6.18262H13.5684L13.3164 6.1875ZM33.6699 19.1914C31.1317 16.0721 26.8063 14.9523 23.082 16.2861L22.7207 16.4238C18.7372 18.0382 16.2604 22.1102 16.7764 26.208L16.8369 26.6221C17.5438 30.8612 20.7674 33.9781 25.1846 34.6123L25.4834 34.6484C26.9904 34.7959 28.7069 34.4735 30.1865 33.8594C31.7322 33.2178 33.0059 32.2621 33.5186 31.2041C31.7225 31.2046 29.9335 31.2209 28.1465 31.2168L26.334 31.2041C24.1985 31.1747 22.4623 30.2907 21.2812 28.5225L21.2725 28.5098V28.4785C19.9961 26.5529 19.8636 24.4778 20.9521 22.4199L21.1621 22.0449C22.2547 20.2235 23.9716 19.2476 26.1846 19.1924L28.0371 19.1738C29.8633 19.1678 31.7197 19.1906 33.6699 19.1914ZM26.6455 21.6895C24.839 21.6895 23.5117 22.5423 22.9863 24.0098H22.9854C22.5464 25.2141 22.7702 26.3915 23.4473 27.2676C24.1246 28.1439 25.2587 28.7217 26.6455 28.7217H57.4707C60.3622 28.7217 63.238 28.7363 66.1289 28.7217L66.4355 28.709C67.9186 28.594 69.0749 27.7408 69.5693 26.4688H69.5576L69.582 26.4023C70.4438 24.0267 68.7225 21.6895 66.0254 21.6895H26.6455Z" fill="#4F4F4F" stroke="black" stroke-width="0.1"/>
<path d="M22.7161 47.7698C25.2158 45.9516 28.7187 46.2578 30.8333 48.5276L31.0305 48.7483C32.9991 51.0641 32.9315 54.4946 30.7581 56.6799L30.7571 56.679C30.4794 56.96 30.2915 57.2363 30.1741 57.5354C30.0566 57.8347 30.0096 58.1607 30.0169 58.5432L30.0315 59.9885C30.0392 61.431 30.028 62.8672 30.0169 64.303L30.011 64.511C29.9036 66.6344 28.373 68.1378 26.3196 68.1379H26.3186C24.2131 68.1229 22.6813 66.5051 22.6663 64.259V61.2776C22.6663 60.8884 22.6365 60.4868 22.6663 60.0901L22.6819 59.8069C22.7401 58.4066 22.4925 57.226 21.4329 56.0051V56.0042C19.3654 53.6112 20.0136 49.9399 22.4778 47.9524L22.7161 47.7698ZM28.9075 50.175C27.5043 48.6909 25.1054 48.7036 23.7014 50.2024L23.7024 50.2034C22.2865 51.7247 22.4597 53.9622 24.1087 55.2942L24.2727 55.4202L24.4983 55.6008C24.7058 55.7849 24.8616 55.9806 24.972 56.1995C25.1191 56.4914 25.1829 56.8213 25.1829 57.2141V57.2151C25.1532 59.4945 25.1829 61.7732 25.1829 64.054C25.1829 64.5824 25.2822 64.9766 25.47 65.2385C25.6559 65.4978 25.9337 65.6338 26.3059 65.6409L26.4456 65.637C26.7633 65.6126 27.008 65.4814 27.18 65.2483C27.3783 64.9793 27.4856 64.5682 27.4856 64.011V60.5461C27.4856 59.722 27.5104 58.9016 27.5042 58.0872L27.4856 57.2747C27.4706 56.8663 27.534 56.5212 27.6888 56.2161C27.8332 55.9312 28.0565 55.6858 28.3606 55.4553L28.3284 55.4397L28.3958 55.3909C30.1387 54.1337 30.3708 51.8639 29.0413 50.3215L28.9075 50.175Z" fill="#4F4F4F" stroke="black" stroke-width="0.1"/>
</svg>
