<svg width="79" height="79" viewBox="0 0 79 79" fill="none" xmlns="http://www.w3.org/2000/svg">
<g clip-path="url(#clip0_974_3433)">
<path d="M64.5944 75.6188C64.2743 75.5588 63.9541 75.5788 63.634 75.5788C58.1518 75.5788 52.6696 75.5788 47.1874 75.5788C44.1662 75.5788 42.4855 73.8982 42.4855 70.8969C42.4855 67.2355 42.5055 63.574 42.4855 59.9125C42.4655 57.1314 41.285 54.9906 38.704 53.8701C36.283 52.8297 34.0021 53.2499 32.0013 54.9906C30.4607 56.3511 29.9605 58.1518 29.9605 60.1526C29.9605 63.9542 30.0005 67.7357 29.9205 71.5372C29.8605 73.8982 27.9397 75.6188 25.6788 75.5988C23.3979 75.5588 21.5571 73.7781 21.5371 71.4172C21.4771 67.5556 21.5171 63.6941 21.5371 59.8325C21.5371 59.5924 21.8172 59.1922 22.0573 59.1122C23.9581 58.452 24.7584 57.3915 24.7984 55.3507C24.7984 54.9706 24.7984 54.6104 24.7984 54.2503C25.0585 54.2103 25.1386 54.1902 25.2386 54.1702C29.6204 53.8101 32.7016 50.7289 32.8817 46.3271C33.0017 43.606 32.9217 40.8849 32.9217 38.1638C32.9217 37.8237 32.9617 37.4835 32.9817 37.1034C33.4819 37.1034 33.8621 37.1034 34.2622 37.1034C35.7428 37.0834 36.263 36.5632 36.303 35.1226C36.303 34.4423 36.303 33.762 36.303 33.0818C36.263 30.3807 34.6024 28.74 31.9013 28.7C31.101 28.7 30.3006 28.7 29.4603 28.7C29.4603 25.4587 29.4603 22.3775 29.4603 19.3162C29.4603 18.636 29.4603 17.9557 29.3603 17.2754C29.1802 15.9949 28.4399 15.0745 27.2794 14.5143C24.8184 13.3338 21.9973 15.0145 21.9173 17.7956C21.8372 21.077 21.8973 24.3383 21.8773 27.6196C21.8773 27.9597 21.8572 28.2999 21.8372 28.62H18.2558C18.2558 28.2198 18.2558 27.8597 18.2558 27.5195C18.2558 24.3983 18.2558 21.297 18.2558 18.1758C18.2558 15.8148 16.6151 14.0941 14.4543 14.1142C12.2934 14.1142 10.6928 15.8549 10.6728 18.2158C10.6728 21.3371 10.6728 24.4383 10.6728 27.5596V28.7C9.63234 28.7 8.69196 28.66 7.75158 28.7C5.69076 28.8001 4.0501 30.3207 3.87002 32.3615C3.78999 33.4019 3.81 34.4423 3.85002 35.4627C3.89003 36.4431 4.47027 37.0033 5.45066 37.0634C5.99088 37.1034 6.53109 37.0634 7.17135 37.0634V38.2438C7.17135 40.5848 7.17135 42.9057 7.17135 45.2467C7.17135 50.4888 9.97247 53.63 15.3346 54.2102C15.3346 54.7705 15.3146 55.2907 15.3346 55.7909C15.4147 57.3115 16.335 58.612 17.7756 58.9522C18.5759 59.1322 18.6159 59.5124 18.6159 60.1526C18.5959 63.8541 18.5759 67.5556 18.6159 71.2371C18.636 73.8982 19.7764 76.019 22.0773 77.3795C26.8392 80.2007 32.6216 77.0794 32.9017 71.5372C33.0017 69.4764 32.9417 67.3955 32.9417 65.3147C32.9417 63.434 32.9217 61.5532 32.9417 59.6724C32.9817 57.8317 34.0621 56.5312 35.6628 56.2511C37.8237 55.8709 39.5844 57.4315 39.6044 59.8125C39.6244 63.514 39.6044 67.2155 39.6044 70.8969C39.6044 75.4388 42.6256 78.44 47.1874 78.44C52.7096 78.44 58.2118 78.44 63.7341 78.44C64.0342 78.44 64.3143 78.46 64.6144 78.42C65.4147 78.2799 65.9149 77.7997 65.8949 76.9594C65.8949 76.1791 65.4147 75.6989 64.6544 75.5588L64.5944 75.6188ZM25.5587 17.0753C26.3991 17.0353 26.4791 17.7156 26.4791 18.3759C26.4791 21.7572 26.4791 25.1586 26.4791 28.64H24.8384C24.8184 28.3599 24.7584 28.1198 24.7584 27.8797C24.7584 24.7184 24.7584 21.5371 24.7584 18.3759C24.7584 17.7556 24.7984 17.0954 25.5787 17.0753H25.5587ZM13.5539 18.0357C13.794 17.6756 14.1141 17.3755 14.4143 17.0353C14.6944 17.3755 15.2146 17.6956 15.2346 18.0357C15.2946 21.5171 15.2746 25.0185 15.2746 28.62H13.5539V26.8593C13.5539 24.1382 13.5539 21.4171 13.5539 18.696C13.5539 18.4759 13.4739 18.1958 13.5739 18.0357H13.5539ZM14.7744 51.189C12.4335 51.129 10.3326 49.2483 10.1926 46.9073C10.0125 43.686 10.1525 40.4447 10.1525 37.0834C12.4935 37.0834 14.7944 37.0834 17.0953 37.0834C17.4755 37.0834 17.9757 37.1834 18.2358 36.9833C18.676 36.6432 19.2162 36.143 19.2562 35.6628C19.2962 35.2426 18.796 34.6624 18.3758 34.3423C18.0957 34.1222 17.5755 34.1622 17.1554 34.1622C13.714 34.1622 10.2926 34.1622 6.87123 34.1622C6.35102 32.2814 6.85122 31.6012 8.65194 31.6012C16.175 31.6012 23.698 31.6012 31.221 31.6012C33.2018 31.6012 33.4819 31.9413 33.2418 34.1622C32.3014 34.1622 31.3411 34.1622 30.4007 34.1622C29.9805 34.1622 29.4803 34.1022 29.1802 34.3023C28.76 34.6024 28.1998 35.1226 28.2198 35.5628C28.2198 36.043 28.76 36.5432 29.1402 36.9833C29.2802 37.1434 29.6204 37.1034 29.9805 37.1834C29.9805 38.2038 29.9805 39.2042 29.9805 40.1846C29.9805 42.3255 30.0205 44.4663 29.9005 46.6072C29.7804 49.0682 27.7596 51.129 25.3186 51.209C21.8172 51.3091 18.3158 51.3091 14.8144 51.209L14.7744 51.189ZM18.5759 56.091C18.2758 56.031 18.2158 54.9706 18.0157 54.2102H21.9373C21.7972 54.9105 21.7772 55.991 21.5171 56.051C20.5767 56.2711 19.5363 56.2911 18.5959 56.091H18.5759Z" fill="#4F4F4F"/>
<path d="M75.0987 10.1126C75.0987 6.15096 72.6577 3.75 68.7161 3.75C61.5132 3.75 54.3103 3.75 47.1074 3.75C43.1658 3.75 40.7449 6.17097 40.7449 10.1326C40.7449 16.7752 40.7449 23.4379 40.7449 30.0806C40.7449 34.0822 43.1458 36.4831 47.1875 36.4831C50.7489 36.4831 54.3303 36.4831 57.8918 36.4831C61.4932 36.4831 65.0946 36.4831 68.6961 36.4831C72.7177 36.4831 75.0987 34.1022 75.1187 30.0606C75.1187 23.4179 75.1187 16.7552 75.1187 10.1126H75.0987ZM72.1575 30.2406C72.1575 32.4615 71.017 33.542 68.7561 33.542C65.1547 33.542 61.5532 33.542 57.9718 33.542C54.3503 33.542 50.7089 33.542 47.0874 33.542C44.7865 33.542 43.666 32.4415 43.666 30.1606C43.666 23.4579 43.666 16.7352 43.666 10.0325C43.666 7.81163 44.8065 6.67117 47.0074 6.67117C54.2703 6.67117 61.5332 6.67117 68.7961 6.67117C71.017 6.67117 72.1575 7.79162 72.1575 10.0125C72.1575 16.7552 72.1575 23.4979 72.1575 30.2406Z" fill="#4F4F4F"/>
<path d="M23.758 37.0634C24.5383 37.0433 25.1786 36.3831 25.1586 35.6228C25.1586 34.8625 24.4783 34.2022 23.718 34.2022C22.9177 34.2022 22.2374 34.9225 22.2774 35.7228C22.3175 36.5031 22.9777 37.1034 23.758 37.0834V37.0634Z" fill="#4F4F4F"/>
<path d="M57.9318 9.79242C52.2895 9.79242 47.6476 14.3743 47.5876 20.0365C47.5276 25.6988 52.1695 30.4007 57.8517 30.4407C63.554 30.4807 68.1959 25.8789 68.2359 20.1566C68.2559 14.4543 63.6341 9.79242 57.9318 9.79242ZM57.8517 27.5195C53.8501 27.4995 50.4888 24.1182 50.5088 20.1166C50.5088 16.0749 53.9302 12.6936 57.9718 12.7336C61.9934 12.7736 65.3147 16.115 65.2947 20.1366C65.2947 24.2182 61.9334 27.5395 57.8517 27.5195Z" fill="#4F4F4F"/>
<path d="M55.931 18.4559C55.8509 17.6756 55.3307 17.2354 54.5704 17.1954C53.7901 17.1554 53.1899 17.5955 53.1499 18.3559C53.0498 19.5363 53.0498 20.7368 53.1499 21.9173C53.2099 22.6776 53.8301 23.0777 54.6104 23.0177C55.3507 22.9777 55.8309 22.5375 55.911 21.8172C55.991 21.277 55.911 20.7168 55.911 20.1766C55.911 19.5963 55.951 19.0161 55.911 18.4359L55.931 18.4559Z" fill="#4F4F4F"/>
<path d="M62.7337 18.5159C62.6536 17.7356 62.1934 17.2554 61.4131 17.2154C60.5928 17.1554 59.9725 17.6156 59.9125 18.4159C59.8125 19.5764 59.8325 20.7368 59.9125 21.8973C59.9725 22.6576 60.5528 23.0978 61.3331 23.0577C62.1534 23.0377 62.6336 22.5375 62.7136 21.7172C62.7737 21.197 62.7136 20.6768 62.7136 20.1766C62.7136 19.6364 62.7537 19.0762 62.7136 18.5359L62.7337 18.5159Z" fill="#4F4F4F"/>
</g>
<defs>
<clipPath id="clip0_974_3433">
<rect width="78" height="78" fill="white" transform="translate(0.5 0.5)"/>
</clipPath>
</defs>
</svg>
