<svg width="24" height="24" viewBox="0 0 24 24" fill="none" xmlns="http://www.w3.org/2000/svg">
<path d="M7.95468 2.00332C8.28108 2.00332 8.61681 2.00332 8.94321 2.00332C9.31624 2.00332 9.45613 2.15269 9.46545 2.52611C9.54006 5.14006 11.3866 7.26856 13.9605 7.65132C15.4619 7.87537 16.8235 7.49262 18.0172 6.54039C18.1384 6.44704 18.2317 6.29767 18.2876 6.15763C18.8378 4.92534 19.3881 3.69305 19.9196 2.46076C20.0595 2.12468 20.2647 1.99399 20.6284 2.00332C21.2252 2.02199 21.8127 2.00332 22.4096 2.00332C22.9598 2.00332 23.1277 2.28339 22.9039 2.78751C21.1879 6.67109 19.4627 10.5547 17.7747 14.4476C17.5789 14.8864 17.5602 15.4091 17.4949 15.9039C16.954 19.9182 13.4849 22.9989 9.4468 23.0549C5.31549 23.111 1.76238 20.1703 1.10025 16.1373C1.0816 16.0253 1.06295 15.9039 1.0443 15.7919C0.932391 15.1197 1.03497 14.5036 1.32407 13.8594C3.04934 10.0692 4.71865 6.26032 6.38796 2.44209C6.52784 2.12468 6.72368 1.97531 7.06874 2.00332C7.36716 2.02199 7.66558 2.00332 7.96401 2.00332H7.95468ZM7.61895 6.78311C7.58165 6.8578 7.55367 6.90448 7.53502 6.94182C6.39728 9.51843 5.25954 12.0857 4.13112 14.6623C4.06584 14.8117 4.04719 14.989 4.06584 15.1571C4.26168 17.9391 6.63975 20.0769 9.43748 20.0116C12.2352 19.9369 14.492 17.6683 14.548 14.877C14.548 14.7463 14.576 14.597 14.6319 14.4756C15.1542 13.2806 15.6857 12.0857 16.208 10.8907C16.2453 10.8067 16.2639 10.7227 16.3012 10.6294C12.1233 10.9281 9.98769 9.9852 7.61895 6.77378V6.78311ZM15.4526 15.2318C15.1542 18.6953 12.1886 20.9171 9.39085 20.9171C7.98266 20.9171 6.70503 20.525 5.59527 19.6755C4.13112 18.5646 3.34776 17.0615 3.15192 15.2411H1.95822C1.76238 17.0989 3.34776 19.8342 5.40875 21.0571C8.01064 22.6068 10.6685 22.6068 13.2424 21.0198C15.35 19.7128 16.4504 17.743 16.6836 15.2504H15.4526V15.2318ZM8.31839 2.90887C8.01996 2.90887 7.76817 2.92754 7.51637 2.90887C7.25525 2.8902 7.13402 2.98355 7.02211 3.22628C5.43673 6.82979 3.85135 10.4333 2.25665 14.0368C2.21934 14.1208 2.20069 14.2049 2.15406 14.3169C2.44316 14.3169 2.68563 14.2982 2.9281 14.3169C3.20787 14.3449 3.32911 14.2329 3.44102 13.9808C4.97044 10.4987 6.49986 7.02584 8.03861 3.55302C8.12255 3.35697 8.20648 3.15159 8.30906 2.90887H8.31839ZM21.878 2.90887C21.5703 2.90887 21.3185 2.92754 21.076 2.90887C20.7962 2.88086 20.6657 2.99289 20.5631 3.24495C19.099 6.57773 17.6255 9.91052 16.1613 13.2433C16.0121 13.5887 15.8629 13.9341 15.6951 14.3262C15.9935 14.3262 16.2453 14.3076 16.4971 14.3262C16.7582 14.3449 16.8888 14.2609 16.9913 14.0088C18.2969 11.0308 19.6119 8.06208 20.9175 5.09338C21.2252 4.38388 21.5423 3.68372 21.878 2.9182V2.90887ZM17.5043 7.95939C15.7137 8.77158 13.9698 8.84627 12.2259 8.07142C10.4913 7.29657 9.38152 5.96159 8.78467 4.11315C8.69142 4.3092 8.62614 4.45857 8.56085 4.5986C8.00131 5.8589 7.97333 5.87757 8.85928 6.95115C10.8457 9.37839 13.3916 10.2746 16.4598 9.63979C16.609 9.61178 16.7955 9.50909 16.8514 9.38773C17.0846 8.94896 17.2618 8.48218 17.5043 7.95006V7.95939Z" fill="black"/>
</svg>
