<svg width="79" height="79" viewBox="0 0 79 79" fill="none" xmlns="http://www.w3.org/2000/svg">
<path d="M15.6077 56.8928C14.3146 55.6114 13.0567 54.3535 11.8106 53.0956C9.7298 51.0031 9.7298 48.3228 11.8106 46.2185C11.9164 46.1127 12.0104 45.9833 12.1397 45.9011C12.9862 45.2545 13.3036 44.6314 12.8804 43.4441C12.1985 41.5396 13.2213 39.4589 14.9729 38.4361C16.7245 37.4133 18.9111 37.6367 20.3924 39.0709C22.3908 41.0106 24.3541 43.0091 26.3173 44.9841C26.5172 45.184 26.67 45.4191 26.8111 45.5954C33.0887 39.306 39.284 33.1225 45.5028 26.8919C45.3618 26.739 45.1854 26.5392 44.9856 26.3511C43.0811 24.4466 41.1767 22.554 39.284 20.6378C37.6029 18.9332 37.3208 16.5937 38.5551 14.7363C39.813 12.8436 42.0349 12.2206 44.2685 13.0905C44.4801 13.1728 44.8445 13.0905 45.0208 12.9494C45.5028 12.5497 45.926 12.056 46.3845 11.621C48.3007 9.79887 50.9575 9.78712 52.8737 11.621C54.0493 12.7496 55.1779 13.9134 56.33 15.0655C56.5063 15.2418 56.6944 15.4064 56.9295 15.6298C58.1874 14.3719 59.4217 13.1258 60.6561 11.8914C61.4908 11.0567 62.008 11.0567 62.8427 11.8914C64.2769 13.3256 65.7229 14.7598 67.1453 16.1941C67.933 16.9934 67.933 17.5342 67.1336 18.3336C65.9345 19.5445 64.7354 20.7436 63.5363 21.9427C63.501 21.9779 63.4775 22.0249 63.3835 22.1543C64.7001 23.4592 66.0403 24.7641 67.3452 26.1042C69.2144 28.0322 69.2026 30.7243 67.3452 32.6522C67.0866 32.9226 66.8397 33.2283 66.534 33.4516C65.8757 33.9571 65.7346 34.4274 66.0638 35.2855C66.8044 37.2135 65.911 39.4118 64.1593 40.5169C62.396 41.6219 60.1271 41.4221 58.6106 39.9526C56.6121 38.0129 54.6489 36.0144 52.6856 34.0394C52.4858 33.8396 52.3447 33.5927 52.1449 33.3106C50.2875 35.1797 48.5476 36.9196 46.8077 38.6595C46.6079 38.8593 46.4198 39.0709 46.2082 39.2355C45.7027 39.647 45.0443 39.6117 44.6211 39.1767C44.2097 38.7418 44.1862 38.0834 44.6447 37.6014C45.4441 36.755 46.2905 35.9439 47.1134 35.121C48.2067 34.0277 49.3 32.9344 50.3345 31.8999C49.2412 30.8066 48.1832 29.7485 47.1722 28.7375C41.0474 34.8623 34.8755 41.0341 28.786 47.1354C29.7853 48.1347 30.8433 49.1809 32.0894 50.4388C32.1364 50.3448 32.2187 50.0509 32.4068 49.8628C33.9704 48.2757 35.5574 46.6887 37.1327 45.1134C37.8145 44.4316 38.4728 44.361 38.9901 44.8901C39.5074 45.4073 39.4251 46.0539 38.7315 46.7475C36.9799 48.5109 35.2165 50.2625 33.4178 52.0494C33.6412 52.2845 33.8175 52.4843 34.0174 52.6724C35.9336 54.5886 37.8615 56.5048 39.7777 58.4328C41.4118 60.0904 41.6704 62.4415 40.4478 64.2754C39.2017 66.1564 36.9681 66.7912 34.7345 65.9213C34.5229 65.839 34.1584 65.9213 33.9821 66.0623C33.5119 66.4503 33.1122 66.9087 32.6772 67.332C30.714 69.2246 28.0219 69.2246 26.0704 67.3202C24.9301 66.2034 23.8016 65.0631 22.673 63.9345C22.4967 63.7582 22.3086 63.5936 22.0852 63.382C20.8273 64.6399 19.593 65.886 18.3468 67.1086C17.5122 67.9433 16.9949 67.9315 16.1603 67.1086C14.726 65.6744 13.2801 64.2402 11.8576 62.806C11.07 62.0183 11.0817 61.4775 11.8811 60.6664C13.0802 59.4555 14.2793 58.2564 15.4784 57.0574C15.5137 57.0221 15.5372 56.9751 15.6195 56.8575L15.6077 56.8928ZM61.7376 38.9416C62.6546 38.9181 63.3482 38.5184 63.7596 37.6955C64.1711 36.8843 64.1006 36.0732 63.5598 35.3208C63.3835 35.0739 63.1601 34.8623 62.9485 34.6507C56.7532 28.4554 50.5696 22.2601 44.3743 16.0765C44.1744 15.8766 43.9863 15.6768 43.763 15.5005C43.1869 15.042 42.5404 14.9009 41.8232 15.0655C40.2362 15.4299 39.5544 17.3109 40.5184 18.6275C40.6712 18.8274 40.8475 19.0155 41.0356 19.1918C47.3015 25.4577 53.5673 31.7235 59.8214 37.9894C60.3622 38.5301 60.9265 38.9651 61.7376 38.9416ZM17.3829 39.9408L17.2653 40.1289C16.3483 40.1289 15.5019 40.658 15.1728 41.5044C14.7731 42.5154 15.0317 43.3853 15.7841 44.1377C22.1557 50.4976 28.5156 56.8693 34.8756 63.2292C35.9336 64.2754 37.309 64.3342 38.2495 63.3937C39.1782 62.4533 39.1312 61.0661 38.0966 60.0081C37.0504 58.9383 35.9806 57.892 34.9226 56.834C29.656 51.5674 24.3893 46.289 19.0992 41.0341C18.629 40.5639 17.9589 40.2935 17.3829 39.9291V39.9408ZM64.3004 32.5817C64.7119 32.1467 65.1233 31.6882 65.5465 31.2533C66.7691 30.0072 66.7809 28.7728 65.5465 27.5502C60.8677 22.8714 56.1889 18.1925 51.5101 13.5137C51.3455 13.3491 51.1927 13.1846 51.0046 13.0552C50.2052 12.4792 49.3117 12.3499 48.5241 12.9142C47.76 13.4549 47.1134 14.1838 46.4903 14.7716C52.4623 20.7436 58.3285 26.6215 64.3004 32.5934V32.5817ZM14.6908 46.4418C14.3146 46.865 13.9502 47.3118 13.5387 47.7232C12.2103 49.0751 12.1985 50.2507 13.5387 51.5909C18.1587 56.2227 22.7905 60.8427 27.4106 65.4628C27.5869 65.6391 27.7633 65.8272 27.9631 65.98C28.786 66.6266 29.9028 66.6736 30.7022 66.0035C31.3606 65.4628 31.9248 64.8162 32.4891 64.2519C26.5642 58.327 20.698 52.4491 14.6673 46.4301L14.6908 46.4418ZM61.7612 14.2191C60.7149 15.2536 59.6804 16.2999 58.7046 17.2756C59.7156 18.2866 60.7619 19.3329 61.7259 20.2968C62.7251 19.2976 63.7832 18.2513 64.7942 17.2521C63.8067 16.2646 62.7722 15.2301 61.7612 14.2308V14.2191ZM14.2441 61.7479C15.2551 62.7707 16.3013 63.817 17.2183 64.7457C18.2293 63.7464 19.2755 62.7002 20.263 61.7244C19.2991 60.7487 18.2646 59.7142 17.2771 58.7149C16.2778 59.7142 15.2433 60.7487 14.2441 61.7479Z" fill="#4F4F4F"/>
<path d="M41.8234 40.9048C42.4583 40.9165 42.9639 41.4691 42.9286 42.104C42.8933 42.7154 42.376 43.1974 41.7764 43.1739C41.1415 43.1622 40.6477 42.6096 40.6712 41.9747C40.7065 41.3633 41.212 40.893 41.8234 40.9048Z" fill="#4F4F4F"/>
</svg>
