<svg width="79" height="79" viewBox="0 0 79 79" fill="none" xmlns="http://www.w3.org/2000/svg">
<g clip-path="url(#clip0_1055_510)">
<path d="M41.2831 43.7071V45.2368C42.6437 45.2368 43.9634 45.2472 45.2933 45.2368C46.081 45.2368 46.705 45.4436 46.7971 46.3428C46.8687 47.0767 46.2958 47.5005 45.2728 47.5005C41.8355 47.5005 38.4084 47.5005 34.9711 47.5005C34.1425 47.5005 33.4162 47.3248 33.4264 46.3635C33.4264 45.4022 34.1732 45.2162 34.9916 45.2265C36.2806 45.2472 37.5798 45.2265 38.9199 45.2265V43.6967C38.5005 43.6967 38.1117 43.6967 37.723 43.6967C31.8919 43.6967 26.0607 43.6967 20.2194 43.6967C18.2859 43.6967 17.8665 43.2729 17.8665 41.3297C17.8665 33.9186 17.8665 26.5075 17.8665 19.1067C17.8665 17.1841 18.2961 16.75 20.2398 16.75C33.5082 16.75 46.7664 16.75 60.0348 16.75C61.8864 16.75 62.3365 17.2048 62.3365 19.0757C62.3365 26.5178 62.3365 33.9599 62.3365 41.4021C62.3365 43.2626 61.8966 43.6967 60.0143 43.6967C54.1832 43.6967 48.352 43.6967 42.5107 43.6967C42.1219 43.6967 41.723 43.6967 41.2729 43.6967L41.2831 43.7071ZM60.0245 41.3917V19.1067H20.1887V41.3917H60.0245Z" fill="#4F4F4F"/>
<path d="M9.75399 53.7125C9.75399 55.1802 9.75399 56.4929 9.75399 57.7953C9.75399 58.0227 9.78469 58.2501 9.80515 58.6119C11.1351 58.6119 12.424 58.6119 13.713 58.6119C14.0711 58.6119 14.5212 58.5602 14.777 58.7566C15.1043 58.9943 15.4828 59.4594 15.4624 59.8109C15.4419 60.1623 14.9918 60.5137 14.6849 60.8135C14.5723 60.9272 14.2961 60.8858 14.1018 60.8858C10.4701 60.8858 6.83843 60.8858 3.20676 60.8858C3.10446 60.8858 3.00215 60.8858 2.91008 60.8755C2.22467 60.8238 1.74385 60.4931 1.74385 59.7592C1.74385 59.0253 2.2349 58.6532 2.91008 58.6325C3.97401 58.5912 5.03794 58.6119 6.11209 58.6119C6.54176 58.6119 6.96119 58.6119 7.45223 58.6119V53.7125C6.66451 53.7125 5.90749 53.7125 5.15047 53.7125C2.94077 53.6814 1.72339 52.4824 1.72339 50.2808C1.72339 44.9886 1.72339 39.7068 1.72339 34.4146C1.72339 33.598 1.85639 32.8538 2.81801 32.8021C3.63642 32.7608 3.97401 33.3293 3.97401 34.1252C3.97401 36.5128 3.97401 38.9109 3.97401 41.2985C3.97401 44.1927 3.97401 47.0869 3.97401 49.9914C3.97401 51.2111 4.18884 51.4281 5.34484 51.4385C7.57499 51.4385 9.81538 51.4281 12.0455 51.4488C12.9765 51.4591 13.3447 51.0767 13.3447 50.1258C13.3243 41.2365 13.3243 32.3473 13.3447 23.4581C13.3447 22.4865 12.9662 22.1454 12.0353 22.1557C9.80514 22.1867 7.56475 22.1557 5.3346 22.1661C4.14791 22.1661 3.97401 22.3521 3.97401 23.6028C3.97401 25.391 3.96378 27.1688 3.97401 28.957C3.97401 29.7529 3.78986 30.3938 2.88961 30.4661C2.16328 30.5281 1.74386 29.939 1.73363 28.9157C1.73363 26.9931 1.71317 25.0809 1.73363 23.1583C1.75409 21.2151 2.86916 19.9437 4.79241 19.8921C7.36015 19.8094 9.9279 19.8197 12.4854 19.8921C14.4291 19.9437 15.5544 21.1738 15.5544 23.148C15.5749 32.2439 15.5749 41.3296 15.5544 50.4255C15.5544 52.4618 14.3268 53.6608 12.3013 53.7125C11.5033 53.7331 10.7054 53.7125 9.77446 53.7125H9.75399Z" fill="#4F4F4F"/>
<path d="M72.7507 53.7125V58.6119C74.05 58.6119 75.3389 58.6015 76.6177 58.6119C77.0167 58.6119 77.4975 58.5705 77.7737 58.7773C78.1011 59.015 78.4284 59.5008 78.4284 59.8729C78.4284 60.1933 77.9885 60.5448 77.6714 60.7928C77.5179 60.9169 77.2213 60.8859 76.9962 60.8859C73.3952 60.8859 69.8045 60.8859 66.2035 60.8859C66.0705 60.8859 65.9375 60.8859 65.8045 60.8652C65.16 60.8032 64.7201 60.4931 64.6997 59.8006C64.669 59.046 65.1396 58.6636 65.8045 58.6325C66.9298 58.5705 68.0654 58.6119 69.2009 58.6015C69.5692 58.6015 69.9272 58.6015 70.3774 58.6015V53.7021C69.6101 53.7021 68.8224 53.7021 68.0347 53.7021C65.8863 53.6711 64.6792 52.4825 64.669 50.3222C64.6485 44.999 64.669 39.6861 64.6588 34.3629C64.6588 33.536 64.8224 32.7918 65.7841 32.7918C66.7355 32.7918 66.9196 33.536 66.9196 34.3629C66.9196 39.5517 66.9196 44.7302 66.9196 49.9191C66.9196 51.2731 67.0731 51.4282 68.403 51.4385C70.5308 51.4385 72.6689 51.4385 74.7968 51.4385C76.0653 51.4385 76.2699 51.2318 76.2699 49.9914C76.2699 41.2055 76.2699 32.4197 76.2699 23.6338C76.2699 22.3211 76.1164 22.1661 74.8479 22.1557C72.6177 22.1557 70.3876 22.1764 68.1472 22.1454C67.2572 22.1351 66.8787 22.4865 66.8991 23.4064C66.9401 25.2256 66.8991 27.0448 66.9094 28.864C66.9094 29.6806 66.7661 30.3834 65.8045 30.4765C65.0782 30.5488 64.669 29.97 64.6588 28.926C64.6588 27.0035 64.6383 25.0913 64.6588 23.1687C64.6792 21.1531 65.8045 19.9438 67.8096 19.8921C70.3057 19.8301 72.8121 19.8301 75.3083 19.8921C77.344 19.9438 78.4898 21.1945 78.5 23.2411C78.5 32.2646 78.5 41.2779 78.5 50.3015C78.5 52.4514 77.2827 53.6711 75.1548 53.7125C74.3876 53.7228 73.6305 53.7125 72.7507 53.7125Z" fill="#4F4F4F"/>
<path d="M40.0657 64.0283C35.4622 64.0283 30.8689 64.0283 26.2654 64.0283C23.8613 64.0283 22.8588 63.0153 22.8485 60.607C22.8485 58.1159 22.8383 55.6249 22.8485 53.1338C22.8588 51.0976 23.9125 49.9813 25.9278 49.9813C35.3599 49.9606 44.792 49.9606 54.2241 49.9813C56.2906 49.9813 57.3238 51.0976 57.3341 53.2062C57.3443 55.7282 57.3443 58.2606 57.3341 60.7827C57.3341 62.9843 56.2701 64.0283 54.0502 64.0386C49.3853 64.0386 44.7204 64.0386 40.0555 64.0386L40.0657 64.0283ZM40.0964 61.7646C44.6999 61.7646 49.2933 61.744 53.8968 61.775C54.797 61.775 55.1448 61.5062 55.1244 60.5656C55.0732 58.1779 55.0834 55.7799 55.1244 53.3922C55.1346 52.5757 54.8993 52.2552 54.0502 52.2552C44.7511 52.2759 35.452 52.2759 26.1528 52.2552C25.3038 52.2552 25.0685 52.586 25.0787 53.3922C25.1196 55.7489 25.0889 58.1056 25.0889 60.4623C25.0889 61.713 25.1401 61.7543 26.3984 61.7646C30.961 61.7646 35.5338 61.7646 40.0964 61.7646Z" fill="#4F4F4F"/>
<path d="M11.9637 28.6676C11.9637 30.5384 10.4394 32.0889 8.60821 32.0682C6.77703 32.0475 5.2732 30.4868 5.29366 28.6159C5.31412 26.7864 6.80772 25.2876 8.60821 25.2669C10.4496 25.2463 11.9739 26.7864 11.9739 28.6572L11.9637 28.6676ZM8.89465 27.4272C8.7412 27.4272 8.59798 27.4272 8.44452 27.4169C8.13762 27.82 7.66703 28.1921 7.57496 28.6366C7.4522 29.2671 7.9228 29.7115 8.57752 29.7322C9.23224 29.7529 9.7335 29.3601 9.65166 28.7089C9.59028 28.2541 9.16062 27.851 8.88441 27.4272H8.89465Z" fill="#4F4F4F"/>
<path d="M74.9092 28.6575C74.9092 30.5284 73.3952 32.0788 71.564 32.0788C69.7226 32.0788 68.2188 30.518 68.2392 28.6472C68.2495 26.8073 69.7226 25.3189 71.5333 25.2879C73.3645 25.2569 74.9092 26.797 74.9092 28.6678V28.6575ZM72.8223 28.8642C72.8223 28.7092 72.8223 28.5645 72.8121 28.4094C72.3926 28.1304 71.9937 27.6859 71.5435 27.6239C70.9195 27.5412 70.4898 28.0063 70.5103 28.6885C70.5308 29.3707 70.9706 29.8255 71.5947 29.7015C72.0448 29.6188 72.4131 29.1536 72.8223 28.8539V28.8642Z" fill="#4F4F4F"/>
<path d="M11.9637 44.9165C11.9637 46.7977 10.4394 48.2965 8.58776 48.2758C6.73612 48.2551 5.26299 46.715 5.29368 44.8338C5.32437 43.0043 6.80773 41.5262 8.62868 41.5159C10.4803 41.5159 11.9841 43.0353 11.9739 44.9165H11.9637ZM8.88443 43.6555H8.41386C8.11718 44.0586 7.65682 44.441 7.57498 44.8855C7.46245 45.5264 7.96373 45.9708 8.59799 45.9812C9.23225 45.9812 9.75398 45.578 9.65168 44.9165C9.58007 44.4617 9.14019 44.0689 8.8742 43.6451L8.88443 43.6555Z" fill="#4F4F4F"/>
<path d="M74.9194 44.9369C74.8989 46.8078 73.3848 48.3065 71.523 48.2859C69.6611 48.2549 68.2085 46.7148 68.2494 44.8232C68.2903 42.9834 69.7736 41.5156 71.5844 41.5259C73.436 41.5259 74.9296 43.066 74.9194 44.9369ZM71.3286 46.1566C71.4718 46.1566 71.6151 46.1566 71.7583 46.1669C72.0652 45.7535 72.5358 45.3814 72.6176 44.9266C72.7301 44.2961 72.2698 43.8413 71.6048 43.8309C70.9399 43.8206 70.4488 44.2134 70.5409 44.8646C70.6023 45.3194 71.0524 45.7225 71.3184 46.1566H71.3286Z" fill="#4F4F4F"/>
<path d="M47.7484 53.299C49.7638 53.2784 51.3801 54.8908 51.3801 56.9271C51.3801 58.9116 49.8251 60.5448 47.861 60.5861C45.8763 60.6275 44.1884 59.0047 44.1475 56.9994C44.1066 55.0149 45.7433 53.3197 47.7382 53.299H47.7484ZM49.1193 56.9787C49.1397 56.2449 48.5669 55.6144 47.8508 55.573C47.104 55.5317 46.4492 56.1725 46.4492 56.9477C46.4492 57.6816 47.0528 58.2915 47.7689 58.3018C48.485 58.3018 49.0988 57.7126 49.1193 56.9787Z" fill="#4F4F4F"/>
<path d="M32.4238 60.5965C30.4187 60.5965 28.8023 58.9634 28.8125 56.9375C28.8125 54.9426 30.388 53.3301 32.3521 53.3095C34.3572 53.2784 36.0145 54.9013 36.0452 56.9168C36.0759 58.8911 34.3982 60.5966 32.4238 60.6069V60.5965ZM33.7434 56.9065C33.723 56.1829 33.1092 55.5628 32.4033 55.5731C31.6565 55.5731 31.0325 56.2553 31.0734 57.0202C31.1143 57.7541 31.7383 58.3226 32.4647 58.2916C33.191 58.2605 33.7639 57.6404 33.7434 56.9065Z" fill="#4F4F4F"/>
<path d="M41.2012 57.01C41.2012 57.6095 41.3342 58.2607 41.1603 58.7982C41.0273 59.2116 40.5465 59.6767 40.1373 59.7801C39.503 59.9455 39.0529 59.439 39.0222 58.7982C38.9711 57.5991 38.9302 56.3795 39.0631 55.1908C39.1041 54.8187 39.6769 54.3122 40.0861 54.2088C40.7102 54.0538 41.1399 54.5603 41.2012 55.2011C41.2626 55.8006 41.2114 56.4001 41.2114 57.01H41.2012Z" fill="#4F4F4F"/>
</g>
<defs>
<clipPath id="clip0_1055_510">
<rect width="78" height="78" fill="white" transform="translate(0.5 0.5)"/>
</clipPath>
</defs>
</svg>
