<svg width="24" height="24" viewBox="0 0 24 24" fill="none" xmlns="http://www.w3.org/2000/svg">
<path d="M22.1536 6.53101C19.055 4.76674 15.9564 3.00992 12.8578 1.24565C12.2834 0.918106 11.7317 0.910662 11.1573 1.24565C10.1673 1.81885 9.16971 2.37716 8.17211 2.94292C6.04844 4.14888 3.92477 5.34739 1.80111 6.56079C1.00001 7.01488 0.780838 7.85607 1.23429 8.66004C1.31742 8.80892 1.40811 8.96525 1.50636 9.10669C1.93714 9.74689 2.72313 9.94788 3.41842 9.59801C3.61492 9.50123 3.81141 9.38957 4.06081 9.25558V9.67989C4.06081 13.2382 4.06081 16.7891 4.06081 20.3474C4.06081 21.4491 4.62007 22 5.73858 22C9.9179 22 14.0972 22 18.2765 22C19.3951 22 19.9543 21.4491 19.9543 20.3474C19.9543 16.7816 19.9543 13.2159 19.9543 9.65012V9.24813C20.181 9.37468 20.3549 9.47146 20.5362 9.56823C21.1031 9.85855 21.6699 9.84366 22.1611 9.44168C22.403 9.24813 22.5768 8.96525 22.7355 8.69726C23.2343 7.85607 23.0151 7.02232 22.1536 6.53845V6.53101ZM18.9567 20.3623C18.9567 20.8983 18.8282 21.0248 18.2765 21.0248C16.1907 21.0248 14.0972 21.0248 12.0113 21.0248C9.92546 21.0248 7.80935 21.0248 5.71591 21.0248C5.19444 21.0248 5.05841 20.8908 5.05841 20.3772C5.05841 16.5658 5.05841 12.7543 5.05841 8.94292C5.05841 8.74193 5.12642 8.63771 5.30025 8.54094C7.41636 7.34242 9.53247 6.14391 11.641 4.93796C11.9055 4.78907 12.1323 4.78163 12.3892 4.93796C14.5053 6.15136 16.629 7.34987 18.7602 8.54838C18.9265 8.64515 18.9718 8.74937 18.9718 8.93548C18.9718 12.7469 18.9718 16.5583 18.9718 20.3697L18.9567 20.3623ZM21.4961 8.69726C21.3071 8.88337 21.0728 8.74193 20.8688 8.63026C19.4404 7.81141 18.0045 6.99999 16.5685 6.18113C15.3518 5.48883 14.1275 4.80396 12.9182 4.09677C12.291 3.732 11.709 3.73945 11.0818 4.09677C8.4593 5.60793 5.82172 7.09677 3.19169 8.60049C2.96497 8.73448 2.6929 8.91314 2.48884 8.68237C2.26967 8.43672 2.11852 8.10917 2.03539 7.78907C2.00516 7.68486 2.23944 7.45409 2.39815 7.35731C4.21952 6.30768 6.04844 5.27294 7.87737 4.2382C9.10925 3.53845 10.3487 2.8387 11.5806 2.12406C11.8753 1.95285 12.1171 1.9454 12.4194 2.11662C15.4878 3.87344 18.5562 5.61538 21.6245 7.3722C21.7984 7.47642 21.9268 7.66252 22.1158 7.85607C21.889 8.18361 21.7303 8.47394 21.5036 8.68982L21.4961 8.69726Z" fill="black"/>
<path d="M11.9584 15.8288C9.96324 15.8437 8.32326 17.4665 8.32326 19.4243C8.32326 19.8784 8.48952 20.0422 8.96565 20.0422C9.97836 20.0422 10.9911 20.0422 12.0038 20.0422C13.0089 20.0422 14.0141 20.0422 15.0117 20.0422C15.5105 20.0422 15.6767 19.871 15.6692 19.3797C15.639 17.4144 13.9687 15.8214 11.9509 15.8362L11.9584 15.8288ZM9.41154 19.0521C9.41154 18.0695 10.5905 17.005 11.7544 16.9231C13.1525 16.8263 14.4373 17.7643 14.6036 19.0521H9.41154Z" fill="black"/>
<path d="M11.898 11.2357C10.7341 11.2357 9.77431 12.1588 9.77431 13.2978C9.77431 14.4442 10.7114 15.3896 11.8677 15.3896C13.0392 15.3896 13.9839 14.4739 13.9914 13.3275C14.0065 12.1811 13.0618 11.2432 11.898 11.2357ZM11.8829 14.4144C11.2783 14.4144 10.7795 13.9305 10.7643 13.335C10.7568 12.7246 11.2556 12.2258 11.8753 12.2183C12.4799 12.2183 12.9863 12.7022 12.9938 13.2978C12.9938 13.9082 12.5026 14.4144 11.8829 14.4144Z" fill="black"/>
</svg>
