<svg width="256" height="31" viewBox="0 0 256 31" fill="none" xmlns="http://www.w3.org/2000/svg">
<g clip-path="url(#clip0_138_13941)">
<path d="M35.7822 15.9682L31.5941 11.8949C31.4528 11.7309 31.3076 11.5707 31.1506 11.4145L20.1642 0.659037C19.2653 -0.219679 17.8248 -0.219679 16.9299 0.659037L9.38585 8.04807L1.23733 15.9682C0.240358 16.9368 0.931176 18.6239 2.32459 18.6239H5.35869V27.2549C5.35869 28.8405 6.65005 30.1292 8.24757 30.1292H28.8465C30.4401 30.1292 31.7354 28.8444 31.7354 27.2549V18.6239H34.6949C36.0883 18.6239 36.7792 16.9368 35.7822 15.9682ZM25.7418 18.6591C25.1726 19.5104 24.4897 20.2681 23.7243 20.9476C22.1424 22.3497 20.5371 23.7244 18.9435 25.1108C18.6609 25.3568 18.4332 25.3529 18.1506 25.1108C16.8828 24.0212 15.6071 22.9355 14.3433 21.842C13.3777 21.0062 12.4514 20.1353 11.6742 19.116C11.16 18.4404 10.74 17.71 10.5398 16.8821C10.4613 16.5658 10.426 16.2377 10.3711 15.9175V15.2496C10.3828 15.1872 10.3946 15.1247 10.4025 15.0622C10.5516 13.7226 11.0893 12.5822 12.1845 11.766C13.2639 10.9615 14.4767 10.7311 15.7798 11.0787C16.7336 11.3325 17.4598 11.9183 18.0446 12.6916C18.2213 12.9259 18.3783 13.1759 18.551 13.4297C18.5941 13.3633 18.6255 13.3047 18.6648 13.2501C18.9199 12.9064 19.1515 12.5393 19.4459 12.2269C20.6509 10.9537 22.2288 10.6334 23.7517 11.1529C25.2511 11.6645 26.15 12.758 26.5464 14.2538C26.9664 15.8355 26.6445 17.3039 25.7418 18.6552V18.6591Z" fill="#0074D3"/>
<path d="M44.2532 29.891V6.26715H50.6237L56.9627 17.6788L63.235 6.26715H69.3739V29.8949H64.5774V12.6408L57.838 24.6187H55.8912L49.0497 12.6408V29.8949H44.2532V29.891Z" fill="#0074D3"/>
<path d="M80.8588 30.1253C79.0689 30.1253 77.5067 29.7621 76.1643 29.0396C74.8219 28.3171 73.7818 27.2822 73.0439 25.9348C72.306 24.5874 71.937 22.994 71.937 21.1468C71.937 19.2995 72.3099 17.628 73.0596 16.2572C73.8093 14.8903 74.8534 13.8398 76.1957 13.1055C77.5381 12.3713 79.0807 12.0042 80.8234 12.0042C82.5662 12.0042 84.1637 12.383 85.4865 13.1407C86.8053 13.8983 87.8337 14.9528 88.5716 16.3119C89.3095 17.671 89.6785 19.2917 89.6785 21.1858C89.6785 23.0799 89.3134 24.6304 88.5873 25.9739C87.8611 27.3212 86.8445 28.3483 85.5336 29.0591C84.2265 29.7699 82.6643 30.1253 80.8548 30.1253H80.8588ZM80.792 25.8528C81.8204 25.8528 82.6486 25.6302 83.2727 25.185C83.8968 24.7397 84.3521 24.1578 84.6308 23.4314C84.9095 22.7089 85.0508 21.9474 85.0508 21.1468C85.0508 20.3462 84.9095 19.5768 84.6308 18.8426C84.3521 18.1084 83.9046 17.503 83.2884 17.0227C82.6722 16.5462 81.84 16.3041 80.7881 16.3041C79.7362 16.3041 78.9669 16.5423 78.3388 17.0227C77.7108 17.503 77.2594 18.1084 76.9808 18.8426C76.7021 19.5768 76.5608 20.3462 76.5608 21.1468C76.5608 21.9474 76.7021 22.7363 76.9808 23.451C77.2594 24.1617 77.7147 24.7397 78.3388 25.185C78.9629 25.6302 79.7794 25.8528 80.7881 25.8528H80.792Z" fill="#0074D3"/>
<path d="M91.8569 29.891V12.3049H96.2491L96.4846 14.3396C96.9752 13.7382 97.5405 13.2657 98.1763 12.922C98.8122 12.5783 99.4638 12.3362 100.123 12.2034C100.783 12.0706 101.379 12.0042 101.917 12.0042C103.617 12.0042 104.939 12.3713 105.893 13.1055C106.843 13.8398 107.526 14.8239 107.938 16.058C108.35 17.2921 108.558 18.6668 108.558 20.1782V29.8871H103.864V20.7758C103.864 20.2407 103.821 19.7096 103.73 19.1745C103.64 18.6395 103.479 18.1513 103.244 17.7061C103.008 17.2609 102.678 16.9055 102.255 16.6399C101.831 16.3744 101.269 16.2377 100.578 16.2377C99.6836 16.2377 98.9339 16.4603 98.3333 16.9055C97.7289 17.3507 97.2814 17.9521 96.9909 18.7059C96.7005 19.4635 96.5553 20.2954 96.5553 21.2093V29.8871H91.8608L91.8569 29.891Z" fill="#0074D3"/>
<path d="M113.657 10.5358C112.786 10.5358 112.079 10.2742 111.545 9.75083C111.007 9.22751 110.741 8.55577 110.741 7.73173C110.741 6.86473 111.019 6.16176 111.581 5.63063C112.138 5.09558 112.844 4.83002 113.692 4.83002C114.473 4.83002 115.152 5.09168 115.722 5.615C116.291 6.13833 116.577 6.83349 116.577 7.70049C116.577 8.56749 116.302 9.23141 115.757 9.75083C115.207 10.2742 114.509 10.5358 113.661 10.5358H113.657ZM111.31 29.891V12.305H116.004V29.891H111.31Z" fill="#0074D3"/>
<path d="M118.889 29.891V12.305H123.116L123.521 14.2733C123.968 13.6524 124.467 13.1798 125.012 12.8557C125.562 12.5354 126.115 12.3167 126.673 12.2035C127.23 12.0941 127.744 12.0355 128.215 12.0355C129.267 12.0355 130.193 12.2347 130.998 12.637C131.803 13.0392 132.45 13.6836 132.945 14.574C133.416 13.9296 133.93 13.4219 134.487 13.0548C135.045 12.6877 135.638 12.4261 136.266 12.2698C136.89 12.1136 137.529 12.0355 138.177 12.0355C139.539 12.0355 140.642 12.3206 141.482 12.8869C142.322 13.4532 142.934 14.2382 143.327 15.238C143.719 16.2377 143.916 17.4055 143.916 18.7411V29.8871H139.221V19.9752C139.221 19.573 139.198 19.1629 139.154 18.7411C139.111 18.3193 139.005 17.9171 138.836 17.5382C138.668 17.1594 138.424 16.847 138.099 16.6048C137.773 16.3588 137.321 16.2377 136.74 16.2377C136.16 16.2377 135.712 16.3588 135.331 16.6048C134.951 16.8509 134.648 17.1789 134.425 17.589C134.201 17.9991 134.04 18.4443 133.938 18.9247C133.836 19.405 133.789 19.8854 133.789 20.3775V29.8871H129.094V19.944C129.094 19.5651 129.071 19.1668 129.028 18.7411C128.984 18.3193 128.882 17.9171 128.725 17.5382C128.568 17.1594 128.317 16.847 127.972 16.6048C127.626 16.3588 127.151 16.2377 126.547 16.2377C125.719 16.2377 125.087 16.476 124.651 16.9563C124.215 17.4367 123.929 18.003 123.795 18.6591C123.662 19.3152 123.595 19.9205 123.595 20.479V29.891H118.901H118.889Z" fill="#0074D3"/>
<path d="M146.624 29.891V12.305H150.851L151.255 14.2733C151.703 13.6524 152.201 13.1798 152.747 12.8557C153.297 12.5354 153.85 12.3167 154.407 12.2035C154.965 12.0941 155.479 12.0355 155.95 12.0355C157.002 12.0355 157.928 12.2347 158.733 12.637C159.537 13.0392 160.185 13.6836 160.68 14.574C161.151 13.9296 161.665 13.4219 162.222 13.0548C162.78 12.6877 163.372 12.4261 164 12.2698C164.624 12.1136 165.264 12.0355 165.912 12.0355C167.274 12.0355 168.377 12.3206 169.217 12.8869C170.057 13.4532 170.669 14.2382 171.062 15.238C171.454 16.2377 171.65 17.4055 171.65 18.7411V29.8871H166.956V19.9752C166.956 19.573 166.932 19.1629 166.889 18.7411C166.846 18.3193 166.74 17.9171 166.571 17.5382C166.402 17.1594 166.159 16.847 165.833 16.6048C165.508 16.3588 165.056 16.2377 164.475 16.2377C163.894 16.2377 163.447 16.3588 163.066 16.6048C162.685 16.8509 162.383 17.1789 162.159 17.589C161.936 17.9991 161.775 18.4443 161.673 18.9247C161.571 19.405 161.524 19.8854 161.524 20.3775V29.8871H156.829V19.944C156.829 19.5651 156.806 19.1668 156.762 18.7411C156.719 18.3193 156.617 17.9171 156.46 17.5382C156.303 17.1594 156.052 16.847 155.707 16.6048C155.361 16.3588 154.886 16.2377 154.282 16.2377C153.454 16.2377 152.822 16.476 152.386 16.9563C151.95 17.4367 151.664 18.003 151.53 18.6591C151.397 19.3152 151.33 19.9205 151.33 20.479V29.891H146.636H146.624Z" fill="#0074D3"/>
<path d="M182.444 30.1253C180.588 30.1253 179.014 29.7582 177.715 29.024C176.419 28.2898 175.422 27.2509 174.732 25.9036C174.037 24.5562 173.691 22.9823 173.691 21.1819C173.691 19.3815 174.049 17.7608 174.763 16.3939C175.477 15.027 176.49 13.953 177.797 13.1719C179.104 12.3948 180.655 12.0042 182.44 12.0042C183.783 12.0042 184.96 12.2268 185.977 12.672C186.994 13.1173 187.853 13.7382 188.56 14.5388C189.266 15.3394 189.788 16.2689 190.138 17.3234C190.483 18.3817 190.648 19.5221 190.624 20.7445C190.624 21.0569 190.613 21.3577 190.589 21.6467C190.565 21.9357 190.522 22.2247 190.456 22.5137H178.347C178.413 23.1815 178.602 23.7946 178.916 24.3492C179.23 24.9038 179.669 25.3451 180.238 25.6653C180.808 25.9895 181.518 26.1496 182.37 26.1496C182.927 26.1496 183.441 26.0871 183.912 25.966C184.383 25.845 184.784 25.6497 185.121 25.3802C185.455 25.1147 185.69 24.8022 185.824 24.4468H190.452C190.161 25.7591 189.619 26.8369 188.827 27.6844C188.034 28.5319 187.076 29.1489 185.957 29.5356C184.839 29.9261 183.665 30.1214 182.437 30.1214L182.444 30.1253ZM178.453 19.2487H186.134C186.11 18.6473 185.961 18.0849 185.683 17.5616C185.404 17.0383 184.988 16.6165 184.442 16.2923C183.893 15.9682 183.194 15.8081 182.346 15.8081C181.498 15.8081 180.788 15.976 180.215 16.308C179.642 16.6399 179.218 17.0695 178.939 17.5928C178.661 18.1162 178.496 18.6668 178.453 19.2448V19.2487Z" fill="#0074D3"/>
<path d="M200.822 30.1254C198.227 30.1254 196.233 29.4654 194.836 28.1414C193.439 26.8175 192.74 24.8218 192.74 22.1505V12.305H197.434V21.8147C197.434 22.6153 197.552 23.3221 197.788 23.9353C198.023 24.5484 198.392 25.0327 198.895 25.3881C199.397 25.7435 200.052 25.9231 200.857 25.9231C201.728 25.9231 202.4 25.7357 202.871 25.3569C203.342 24.978 203.663 24.4742 203.844 23.8377C204.025 23.205 204.111 22.5293 204.111 21.8186V12.3089H208.774V22.1544C208.774 24.9351 208.075 26.9581 206.678 28.2273C205.281 29.4966 203.33 30.1293 200.826 30.1293L200.822 30.1254Z" fill="#0074D3"/>
<path d="M221.362 30.1253C220.781 30.1253 220.173 30.0706 219.533 29.9574C218.897 29.848 218.269 29.6293 217.657 29.3052C217.04 28.9849 216.467 28.5202 215.929 27.9187L215.894 29.8871H211.298V6.26715H215.992V14.3748C216.663 13.5742 217.496 12.9805 218.493 12.59C219.486 12.1995 220.522 12.0042 221.593 12.0042C223.336 12.0042 224.769 12.3986 225.887 13.1875C227.006 13.9764 227.838 15.0504 228.388 16.4095C228.937 17.7647 229.208 19.3229 229.208 21.0804C229.208 22.8378 228.929 24.3336 228.368 25.7005C227.811 27.0674 226.955 28.1491 225.801 28.938C224.651 29.7269 223.167 30.1214 221.358 30.1214L221.362 30.1253ZM220.357 25.9543C221.452 25.9543 222.304 25.7083 222.904 25.2201C223.509 24.7319 223.933 24.1071 224.18 23.3533C224.427 22.5957 224.549 21.8068 224.549 20.9827C224.549 20.1587 224.416 19.3854 224.145 18.6629C223.878 17.9404 223.434 17.3624 222.822 16.9289C222.206 16.4954 221.385 16.2767 220.357 16.2767C219.419 16.2767 218.618 16.5032 217.959 16.9602C217.299 17.4171 216.801 18.0107 216.467 18.7449C216.134 19.4791 215.965 20.268 215.965 21.1155C215.965 21.963 216.114 22.7558 216.416 23.5017C216.718 24.2476 217.193 24.8413 217.841 25.2865C218.489 25.7317 219.329 25.9543 220.357 25.9543Z" fill="#0074D3"/>
<path d="M231.39 29.891V6.26715H236.085V29.8949H231.39V29.891Z" fill="#0074D3"/>
<path d="M247.052 30.1253C245.195 30.1253 243.621 29.7582 242.322 29.024C241.027 28.2898 240.03 27.2509 239.339 25.9036C238.644 24.5562 238.299 22.9823 238.299 21.1819C238.299 19.3815 238.656 17.7608 239.37 16.3939C240.085 15.027 241.097 13.953 242.404 13.1719C243.711 12.3948 245.262 12.0042 247.048 12.0042C248.39 12.0042 249.568 12.2268 250.584 12.672C251.601 13.1173 252.46 13.7382 253.167 14.5388C253.873 15.3394 254.395 16.2689 254.745 17.3234C255.09 18.3817 255.255 19.5221 255.231 20.7445C255.231 21.0569 255.22 21.3577 255.196 21.6467C255.173 21.9357 255.129 22.2247 255.063 22.5137H242.954C243.021 23.1815 243.209 23.7946 243.523 24.3492C243.837 24.9038 244.277 25.3451 244.846 25.6653C245.415 25.9895 246.125 26.1496 246.977 26.1496C247.534 26.1496 248.049 26.0871 248.52 25.966C248.991 25.845 249.391 25.6497 249.729 25.3802C250.062 25.1147 250.298 24.8022 250.431 24.4468H255.059C254.768 25.7591 254.227 26.8369 253.434 27.6844C252.641 28.5319 251.683 29.1489 250.565 29.5356C249.446 29.9261 248.272 30.1214 247.044 30.1214L247.052 30.1253ZM243.06 19.2487H250.741C250.718 18.6473 250.568 18.0849 250.29 17.5616C250.011 17.0383 249.595 16.6165 249.049 16.2923C248.5 15.9682 247.801 15.8081 246.953 15.8081C246.106 15.8081 245.395 15.976 244.822 16.308C244.249 16.6399 243.825 17.0695 243.546 17.5928C243.268 18.1162 243.103 18.6668 243.06 19.2448V19.2487Z" fill="#0074D3"/>
</g>
<defs>
<clipPath id="clip0_138_13941">
<rect width="254.467" height="30.1292" fill="white" transform="translate(0.766273)"/>
</clipPath>
</defs>
</svg>
