<svg width="79" height="79" viewBox="0 0 79 79" fill="none" xmlns="http://www.w3.org/2000/svg">
<path d="M46.4581 58.9563C41.8952 63.3219 36.3742 62.6966 32.53 58.9209C30.6136 60.8323 28.3664 61.9886 25.6515 62.0004C22.9251 62.0004 20.6665 60.8795 18.7045 58.8973C18.3965 59.1569 18.1227 59.4046 17.8376 59.6524C13.6397 63.2394 7.75364 62.6494 4.29727 58.2955C3.62425 57.446 3.56722 56.856 4.11476 56.3723C4.6623 55.8885 5.19844 56.0419 5.90568 56.8914C8.93998 60.5492 13.7538 60.8441 16.982 57.505C17.3242 57.151 17.5752 56.5257 17.5866 56.0183C17.655 53.7057 17.6208 51.393 17.6094 49.0804C17.6094 48.3017 17.7463 47.6291 18.6589 47.5701C19.3433 47.5229 19.7197 48.0657 19.7197 49.0568C19.7197 51.1807 19.811 53.3045 19.6855 55.4047C19.6057 56.679 20.119 57.4696 21.0202 58.1303C21.3966 58.4017 21.7844 58.6613 22.3548 59.0625C22.3548 58.5079 22.3548 58.1421 22.3548 57.7882C22.3548 48.5731 22.3548 39.358 22.3548 30.1546C22.3548 26.0604 24.8415 22.7566 28.4804 21.9071C33.2372 20.7979 37.8685 24.5265 37.9598 29.5883C38.0054 32.2785 37.9598 34.9687 37.9598 37.7415H40.6062C40.6062 37.2341 40.6062 36.7386 40.6062 36.2312C40.5492 33.4702 40.7431 30.6856 40.3781 27.9718C39.6138 22.3554 34.6973 18.5797 29.1535 19.0281C23.9518 19.4411 19.7768 24.0899 19.7197 29.6237C19.6741 34.2489 19.7197 38.8742 19.7083 43.4876C19.7083 43.7708 19.7996 44.1484 19.6741 44.3372C19.4003 44.7383 19.0467 45.2339 18.6361 45.3283C18.0657 45.4581 17.6436 44.9743 17.6208 44.3372C17.5752 43.2753 17.598 42.2251 17.598 41.1632C17.598 40.821 17.598 40.4789 17.598 40.0187C17.1531 40.0187 16.8223 40.0187 16.4915 40.0187C12.8298 40.0187 9.16813 40.0187 5.50643 40.0187C5.19844 40.0187 4.79919 40.1013 4.60527 39.9361C4.27446 39.6765 3.89802 39.2518 3.87521 38.8742C3.8638 38.5674 4.27446 38.1308 4.59386 37.9185C4.84482 37.7533 5.25547 37.8241 5.59769 37.8241C9.22516 37.8241 12.864 37.8241 16.4915 37.8241C16.8223 37.8241 17.1531 37.8241 17.598 37.8241C17.598 36.0542 17.5752 34.4023 17.598 32.7387C17.6322 31.0042 17.541 29.2461 17.8262 27.5588C18.7501 22.0251 22.9366 17.7656 28.0584 16.9396C33.4882 16.0547 38.5986 18.6741 41.245 23.7123C41.3591 23.9365 41.4732 24.1607 41.6671 24.5265C41.8496 24.1725 41.9865 23.9011 42.1234 23.6415C44.8497 18.4027 50.6331 15.7243 56.1656 17.1402C61.6752 18.5443 65.6677 23.7359 65.7476 29.6237C65.7818 31.9953 65.7476 34.3787 65.7476 36.7503C65.7476 37.0689 65.7476 37.3757 65.7476 37.8123C67.1507 37.8123 68.4739 37.8123 69.7971 37.8123C71.0747 37.8123 72.3409 37.8123 73.6185 37.8123C74.7136 37.8123 75.2954 38.2016 75.2269 38.945C75.1357 39.9361 74.417 40.0069 73.6527 40.0069C65.3369 40.0069 57.0211 40.0069 48.7053 40.0069C48.3403 40.0069 47.9752 40.0069 47.5418 40.0069C47.519 40.4081 47.4961 40.7148 47.4961 41.0334C47.4961 46.0127 47.4961 50.9801 47.4847 55.9593C47.4847 56.6318 47.6787 57.1038 48.1349 57.5522C51.3746 60.7733 56.0971 60.5374 59.12 56.9976C60.1467 55.7823 60.5117 55.7823 61.5155 56.9976C64.6867 60.7733 69.8313 60.7733 73.0025 56.9976C73.1622 56.8088 73.2991 56.4785 73.493 56.4313C73.9265 56.3251 74.5311 56.1717 74.8049 56.3841C75.0786 56.5965 75.09 57.2454 75.0786 57.7056C75.0786 57.9416 74.782 58.1775 74.6109 58.4017C71.1089 62.6848 65.2913 63.204 61.1277 59.617C60.8653 59.3928 60.6144 59.1687 60.3634 58.9445C54.8652 63.0742 51.5571 63.0742 46.4581 58.9563ZM63.6601 37.7533C63.6601 34.8271 63.8084 32.0307 63.6259 29.2579C63.1924 22.379 57.158 17.7302 50.7814 19.2287C46.0474 20.3496 42.7394 24.7389 42.728 30.0131C42.7051 39.358 42.728 48.7028 42.728 58.0359C42.728 58.3073 42.7622 58.5787 42.7964 58.9681C44.3364 58.0123 45.4771 57.1746 45.4429 55.0272C45.3174 46.9094 45.3858 38.7798 45.3972 30.662C45.3972 30.0838 45.3972 29.5057 45.4543 28.9275C45.8991 24.2197 50.3365 20.8569 54.7853 21.8481C58.8463 22.7448 61.5497 26.7565 61.0022 31.0514C60.9224 31.6767 60.6258 32.0897 60.0098 32.1133C59.3368 32.1369 58.9603 31.7239 58.9033 31.0632C58.8348 30.2608 58.9147 29.4467 58.7892 28.668C58.2759 25.6946 55.6523 23.6415 52.7206 23.8657C49.9487 24.0781 47.6102 26.6031 47.519 29.5883C47.4505 31.9599 47.4961 34.3433 47.4961 36.715C47.4961 37.0571 47.4961 37.3875 47.4961 37.7415H58.8919C58.8919 37.0217 58.8919 36.361 58.8919 35.7002C58.8919 34.9215 59.1771 34.3197 59.987 34.3315C60.7512 34.3315 61.025 34.9215 61.025 35.653C61.025 36.3492 61.025 37.0335 61.025 37.7415H63.6601V37.7533ZM24.6248 37.7179H35.8266C35.8266 34.7563 35.9635 31.8655 35.7924 28.9983C35.6213 26.1783 33.1916 23.9837 30.4995 23.8657C27.7047 23.7359 24.9556 25.73 24.6818 28.5736C24.3967 31.5823 24.6134 34.6265 24.6134 37.7179H24.6248ZM40.5948 52.8207H24.5107V59.7114C25.0469 59.735 25.5602 59.8176 26.0735 59.7822C28.3435 59.6288 30.1231 58.5197 31.5604 56.7262C32.2448 55.8649 32.838 55.8885 33.5452 56.7026C33.933 57.151 34.3323 57.623 34.7886 58.0005C36.4768 59.4164 38.3818 60.0536 40.5948 59.6878V52.8207ZM24.5336 40.0305V45.2929H40.572V40.0305H24.5336ZM40.5948 47.6055H24.545V50.5081H40.5948V47.6055Z" fill="#4F4F4F"/>
<path d="M53.3826 72.1704C49.1847 76.2647 43.6637 76.2529 39.5115 72.2058C38.8841 72.7014 38.2453 73.2088 37.6065 73.6925C37.0133 74.1409 36.3745 74.3061 35.9068 73.5745C35.4505 72.8666 35.8155 72.3474 36.4201 71.8873C37.116 71.3563 37.7776 70.7664 38.3708 70.1292C39.2947 69.1145 39.7396 69.0791 40.6066 70.1292C43.812 74.0347 48.9452 74.0701 52.219 70.2118C52.2761 70.141 52.3331 70.0584 52.4015 69.9876C53.1202 69.1381 53.6677 69.1381 54.3864 69.9876C57.8884 74.1409 62.7935 74.1527 66.284 69.9876C66.7745 69.3977 67.3107 69.0791 67.9495 69.6454C68.5883 70.2236 68.3259 70.8253 67.881 71.4271C64.63 75.7338 58.7895 76.5243 54.5917 73.197C54.2039 72.8902 53.8274 72.548 53.4054 72.1822L53.3826 72.1704Z" fill="#4F4F4F"/>
<path d="M25.629 72.135C23.9179 73.8341 22.0015 74.9668 19.6859 75.191C16.1154 75.5332 13.2865 74.0937 11.0507 71.2737C10.5944 70.7073 10.5145 70.082 11.1305 69.5864C11.7579 69.0908 12.2712 69.3858 12.7275 69.9522C14.8264 72.548 17.4501 73.6099 20.6783 72.7722C22.2639 72.3592 23.5187 71.3799 24.5567 70.0938C25.378 69.0908 25.8799 69.0908 26.7127 70.0938C28.1728 71.8518 29.9637 72.9374 32.2451 73.0435C32.998 73.0789 33.6596 73.3031 33.5798 74.2471C33.4999 75.191 32.8041 75.2854 32.0626 75.2382C29.5645 75.073 27.4769 73.9875 25.629 72.135Z" fill="#4F4F4F"/>
</svg>
