<svg width="79" height="79" viewBox="0 0 79 79" fill="none" xmlns="http://www.w3.org/2000/svg">
<g clip-path="url(#clip0_974_2139)">
<path d="M75.1663 66.3239C74.7741 66.0743 74.3641 65.8426 73.8827 65.5573C74.8632 65.1651 75.4159 64.6125 75.0772 63.6676C74.7563 62.7763 73.9897 62.7228 73.1696 62.9189C72.5279 63.0615 71.8504 63.0615 71.2265 63.2398C70.1212 63.5785 69.3546 63.0615 68.4632 62.3841C69.8181 61.9562 71.066 61.564 72.3139 61.154C73.4192 60.7974 73.8471 60.1735 73.5797 59.3534C73.3301 58.5512 72.5992 58.3016 71.4939 58.6582C69.6577 59.2286 67.8214 59.8348 65.9674 60.3874C65.6465 60.4766 65.2008 60.5657 64.9512 60.4231C63.2042 59.4782 61.4927 58.4621 59.603 57.3924C61.4927 56.305 63.222 55.2888 64.9691 54.3439C65.2365 54.2013 65.6822 54.2905 66.0031 54.3796C67.8571 54.8966 69.7111 55.4314 71.5652 55.9841C72.4209 56.2336 73.1875 56.2158 73.5618 55.2531C73.8827 54.4331 73.4192 53.7735 72.3139 53.4526C71.1195 53.096 69.9072 52.7573 68.5345 52.3651C69.4081 51.7055 70.1033 51.2242 71.1195 51.6164C71.6543 51.8125 72.2604 51.9194 72.8309 51.9551C73.9362 52.0086 74.5423 50.9746 74.0253 49.9941C73.9184 49.798 73.7579 49.6019 73.5975 49.3879C74.1323 49.0671 74.6137 48.8175 75.0772 48.5322C75.8259 48.0866 76.2359 47.4804 75.7546 46.6247C75.2733 45.8047 74.5423 45.8047 73.7758 46.2503C73.0627 46.6604 72.3674 47.0526 71.5652 47.5161C71.5652 47.1595 71.5652 46.9813 71.5652 46.803C71.6008 45.9116 71.2443 45.2877 70.2994 45.2342C69.4081 45.1985 69.0159 45.769 68.9446 46.6069C68.9089 47.0704 68.7663 47.5517 68.7841 48.0152C68.8376 49.1918 68.1423 49.6554 67.0549 49.9584C67.3936 48.3896 67.6966 46.9278 68.0175 45.4838C68.2136 44.5924 68.1245 43.8615 67.144 43.5584C66.3061 43.291 65.7 43.7902 65.4504 44.9311C65.0047 46.9634 64.5769 48.9957 64.1134 51.0102C64.0242 51.3846 63.8816 51.8659 63.6142 52.0264C61.9563 53.0426 60.2448 53.9874 58.3551 55.0749C58.3551 53.1139 58.3016 51.3668 58.3908 49.6375C58.4086 49.1205 58.6582 48.4966 58.9969 48.1222C60.4231 46.5712 61.9384 45.0916 63.4003 43.5584C64.1134 42.7918 64.042 41.8648 63.2755 41.4191C62.598 41.0269 62.0276 41.223 61.5106 41.7579C60.5301 42.7562 59.5496 43.7545 58.4977 44.8242C58.2303 43.8615 58.373 43.2197 59.1217 42.7027C59.8348 42.2035 60.4944 41.6331 61.154 41.0448C61.7067 40.5278 61.7958 39.886 61.3323 39.2799C60.8331 38.6202 60.1735 38.5846 59.4961 39.0481C59.1752 39.262 58.8899 39.5116 58.373 39.9038C58.373 38.959 58.373 38.2459 58.373 37.5328C58.3373 36.481 57.8203 35.857 57.0181 35.9283C56.0554 36.0174 55.7523 36.6771 55.7523 37.5328C55.7523 38.2815 55.7523 39.0303 55.7523 39.9751C55.2353 39.6186 54.9145 39.3868 54.6114 39.1551C53.8983 38.6202 53.1674 38.5311 52.5969 39.2977C52.0264 40.0643 52.3473 40.7417 53.0426 41.2765C53.7022 41.7935 54.344 42.3462 55.0392 42.8097C55.9306 43.3801 55.8058 44.1111 55.6275 45.0916C54.3618 43.915 53.2387 42.881 52.1334 41.8292C51.4738 41.2052 50.7785 40.92 50.0298 41.6331C49.388 42.2214 49.5128 42.9879 50.3685 43.7902C51.9373 45.252 53.5239 46.7139 55.0927 48.1935C55.3423 48.4253 55.6989 48.7462 55.7167 49.0314C55.7702 51.0102 55.7523 53.0069 55.7523 55.1818C54.0587 54.2192 52.5612 53.31 51.0281 52.5256C50.2615 52.1334 49.9228 51.5985 49.798 50.7785C49.4593 48.7996 49.0671 46.8386 48.6571 44.8776C48.4788 44.0576 47.944 43.5941 47.0704 43.7723C46.2504 43.9506 45.983 44.5567 46.0721 45.3411C46.1078 45.5907 46.1612 45.8403 46.2147 46.0899C46.4643 47.3913 46.7139 48.6927 46.9635 50.0119C45.6086 49.7088 45.0381 48.9244 44.9668 47.6765C44.9312 46.9991 44.7529 46.3038 44.5746 45.6442C44.3785 44.9133 43.8437 44.5567 43.0771 44.6994C42.3284 44.842 41.9896 45.3946 42.0431 46.1434C42.0609 46.5178 42.1323 46.8743 42.1857 47.4091C41.3835 46.9634 40.7952 46.6247 40.1891 46.286C39.4225 45.8581 38.6916 45.8225 38.1924 46.6425C37.6933 47.4804 38.0855 48.1044 38.8342 48.5501C39.5651 48.9779 40.296 49.4058 41.1696 49.9049C40.7239 50.1367 40.4743 50.2615 40.2247 50.4041C39.4938 50.7963 39.066 51.349 39.4582 52.1868C39.8504 53.0426 40.5635 53.1673 41.3835 52.7751C41.9718 52.4899 42.5779 52.2225 43.1662 51.9373C44.1646 51.4737 44.2715 51.4916 45.1986 52.4543C43.9506 52.8108 42.7206 53.1495 41.5083 53.4882C40.3852 53.8091 39.9395 54.3974 40.1534 55.2353C40.3495 56.0554 41.0626 56.3406 42.2036 56.0375C44.1289 55.5027 46.0543 54.9501 47.9974 54.4331C48.3005 54.3439 48.6927 54.2548 48.9423 54.3796C50.725 55.3423 52.4721 56.3763 54.3618 57.4637C52.6326 58.4621 51.0638 59.4069 49.4593 60.2448C49.0136 60.4766 48.354 60.5479 47.8548 60.4052C45.9651 59.8883 44.0933 59.2821 42.2036 58.6938C41.3479 58.4264 40.5813 58.4442 40.2069 59.3891C39.8682 60.2091 40.3317 60.8509 41.437 61.2075C42.7562 61.6175 44.0576 62.0275 45.4303 62.4376C44.5924 63.2933 43.7367 63.525 42.7027 63.0615C42.1679 62.8298 41.5974 62.705 41.027 62.5624C40.2782 62.3841 39.6008 62.6337 39.4938 63.3824C39.4225 63.8637 39.8147 64.452 40.0643 64.9512C40.1356 65.1117 40.403 65.1651 40.6526 65.3078C40.0643 65.6465 39.5473 65.9495 39.0481 66.2348C38.0498 66.8231 37.7289 67.5362 38.2281 68.2493C38.7985 69.105 39.5295 69.0158 40.3139 68.5345C40.8487 68.1958 41.4192 67.9105 42.0609 67.554C42.0609 67.8036 42.0966 67.9105 42.0788 68.0175C41.9718 68.8732 42.2749 69.4794 43.1484 69.622C44.0398 69.7646 44.4855 69.2119 44.6637 68.4097C44.8064 67.8036 44.9668 67.1975 45.0381 66.5913C45.1451 65.5752 45.8582 65.3078 46.7674 64.969C46.4108 66.3417 46.1078 67.5362 45.8047 68.7306C45.5195 69.8537 45.8047 70.5847 46.6426 70.7451C47.6409 70.9412 48.0866 70.3529 48.3183 69.4615C48.7997 67.554 49.2988 65.6465 49.8158 63.7568C49.905 63.4181 50.0654 63.008 50.315 62.8476C52.0443 61.7958 53.827 60.8153 55.788 59.6921C55.788 61.7066 55.7523 63.5072 55.788 65.3078C55.8058 66.003 55.5741 66.4487 55.0392 66.8766C53.417 68.178 51.8303 69.515 50.2615 70.8699C49.4236 71.6008 49.4593 72.7952 50.4041 73.0805C50.8855 73.2231 51.6342 73.0448 52.0621 72.7418C53.2922 71.8504 54.4153 70.8342 55.6454 69.8002C55.9306 70.8699 55.8236 71.6365 54.9679 72.2248C54.4866 72.5457 53.9518 72.92 53.7022 73.4014C53.4704 73.8292 53.3813 74.5601 53.5952 74.9523C53.7913 75.2911 54.4866 75.3802 54.9858 75.4872C55.1819 75.5228 55.4314 75.3267 55.788 75.2019C55.788 75.915 55.788 76.5211 55.788 77.1451C55.8237 77.983 56.198 78.5891 57.0894 78.5891C57.9629 78.5891 58.373 78.0186 58.4086 77.1629C58.4264 76.4855 58.4086 75.8081 58.4086 75.0058C58.7295 75.1663 58.8543 75.2198 58.9613 75.2911C59.71 75.7546 60.3874 75.6654 60.8688 74.9523C61.3323 74.2571 61.0649 73.6331 60.4588 73.134C60.0131 72.7596 59.5852 72.3496 59.1039 72.0287C58.373 71.5473 58.3016 70.9234 58.5512 69.9963C59.5852 70.9412 60.5301 71.8326 61.4927 72.6883C62.3128 73.4192 63.0259 73.4727 63.5964 72.8665C64.1668 72.2604 64.0777 71.5295 63.2755 70.7807C61.8671 69.4615 60.4409 68.1601 59.0326 66.8409C58.8008 66.627 58.4621 66.3417 58.4621 66.0922C58.4086 64.0777 58.4443 62.0454 58.4443 59.8169C60.1557 60.7974 61.6888 61.6175 63.1507 62.5445C63.6142 62.8298 64.0421 63.4002 64.1847 63.9172C64.7017 65.8069 65.0939 67.7501 65.5574 69.6576C65.807 70.656 66.6805 71.1016 67.4649 70.6738C68.178 70.2816 68.2671 69.622 68.0889 68.8732C67.7858 67.6075 67.5005 66.3239 67.1975 64.9512C68.3919 65.2721 68.9267 65.8604 68.8554 66.9657C68.8376 67.4649 68.9446 67.9819 69.0337 68.481C69.1585 69.2298 69.5863 69.6755 70.3529 69.6576C71.173 69.622 71.583 69.1228 71.6365 68.3206C71.6543 68.0532 71.6721 67.7858 71.69 67.4114C72.5279 67.8927 73.2588 68.3027 73.9719 68.695C74.7384 69.1228 75.3981 68.998 75.8437 68.2314C76.2894 67.447 75.9507 66.8409 75.2554 66.3952L75.1663 66.3239Z" fill="#4F4F4F"/>
<path d="M32.9868 60.1558C31.7567 60.0845 30.5088 60.0489 29.2966 59.8527C14.8743 57.4995 5.17619 44.8956 6.60237 30.3842C7.86811 17.5663 18.1723 7.6365 31.4537 6.44206C43.7189 5.33677 55.8058 13.6978 59.1039 25.7491C59.7456 28.1201 59.8883 30.6159 60.2092 33.0583C60.3161 33.9496 60.6548 34.5736 61.5997 34.5379C62.4732 34.5023 62.8654 33.914 62.8654 33.0583C62.8654 32.88 62.8654 32.7017 62.8654 32.5056C62.5802 17.2633 50.1367 4.49888 34.823 3.78579C17.9049 3.00139 3.82131 16.3719 3.75 33.2544C3.83914 34.4488 3.91045 35.6432 4.03524 36.8377C5.49708 51.153 18.5645 62.8656 32.9333 62.7586C34.0208 62.7586 34.6091 62.3129 34.6269 61.475C34.6448 60.655 34.0565 60.1915 32.9868 60.1202V60.1558Z" fill="#4F4F4F"/>
<path d="M32.3094 10.9701C26.8899 11.077 21.3813 13.3946 16.9779 18.101C13.145 22.2013 11.184 27.1216 11.0236 32.7372C10.9879 33.9138 11.4336 34.52 12.2715 34.5735C13.1094 34.6091 13.5907 33.9852 13.6442 32.8442C13.6799 32.1846 13.7333 31.5428 13.8047 30.8832C14.9278 21.5238 22.4153 14.4107 31.8816 13.6263C40.9913 12.8776 49.5841 18.7963 52.1334 27.6743C52.6148 29.3679 52.7574 31.1684 52.9713 32.9333C53.0961 33.9852 53.5239 34.5913 54.344 34.5556C55.1641 34.5378 55.6097 33.9317 55.6097 32.8442C55.6097 32.5233 55.6097 32.1846 55.5741 31.8637C54.8253 20.0977 45.0738 10.9522 32.2916 10.9522L32.3094 10.9701Z" fill="#4F4F4F"/>
<path d="M39.476 35.0905C39.0303 29.6888 37.1941 24.8576 34.5378 20.3116C33.8425 19.1172 32.7372 19.2241 31.9885 20.5077C29.9205 24.091 28.3695 27.8882 27.6921 32.0063C27.2999 34.4665 27.1038 36.9445 28.2982 39.2799C29.35 41.33 31.0436 42.471 33.379 42.4531C35.6609 42.4353 37.408 41.33 38.3172 39.2621C38.8877 37.9607 39.1016 36.4988 39.476 35.1083V35.0905ZM36.1244 37.7824C35.6787 39.1194 34.5913 39.8147 33.3077 39.8147C32.042 39.8147 30.9902 39.0838 30.5088 37.7646C30.2592 37.0871 30.081 36.3562 30.081 35.6431C30.0097 31.4002 31.3824 27.5317 33.3255 23.5383C35.1974 27.3712 36.5345 31.0793 36.5701 35.1261C36.5701 36.0175 36.4097 36.9445 36.1244 37.7824Z" fill="#4F4F4F"/>
</g>
<defs>
<clipPath id="clip0_974_2139">
<rect width="78" height="78" fill="white" transform="translate(0.5 0.5)"/>
</clipPath>
</defs>
</svg>
