<svg width="24" height="24" viewBox="0 0 24 24" fill="none" xmlns="http://www.w3.org/2000/svg">
<g clip-path="url(#clip0_191_196)">
<path d="M8.89319 10.1881V7.09407C8.66545 7.09407 8.44616 7.09407 8.22686 7.09407C7.88948 7.09407 7.75453 6.95955 7.74609 6.62324C7.74609 5.90017 7.74609 5.1855 7.74609 4.46243C7.74609 4.13452 7.88948 4 8.22686 4C11.3982 4 14.5696 4 17.7326 4C18.0868 4 18.2218 4.13452 18.2218 4.48765C18.2218 5.19391 18.2218 5.90857 18.2218 6.61483C18.2218 6.95955 18.0784 7.08567 17.7241 7.09407C17.5217 7.09407 17.3193 7.09407 17.0831 7.09407V10.1881C17.2012 10.1881 17.3108 10.1881 17.4289 10.1881C19.4363 10.1881 21.4353 10.1881 23.4427 10.1881C23.9404 10.1881 24.0416 10.289 24.0416 10.7935C24.0416 14.2659 24.0416 17.7384 24.0416 21.2024C24.0416 21.6816 23.9319 21.7909 23.4596 21.7909C22.1775 21.7909 20.8955 21.8077 19.6135 21.7825C19.2508 21.7825 19.0652 21.8834 18.964 22.2197C18.8712 22.5056 18.7616 22.7915 18.6013 23.0437C18.517 23.1782 18.3145 23.2539 18.1543 23.338C18.1121 23.3632 18.0446 23.338 17.994 23.338C12.2079 23.338 6.41344 23.338 0.627364 23.338C0.585192 23.338 0.543019 23.338 0.500846 23.338C0.0538174 23.3296 -0.106438 23.0941 0.0706864 22.6906C0.483977 21.7405 0.897268 20.7988 1.31056 19.8571C2.66008 16.7883 4.0096 13.7194 5.34226 10.6506C5.49408 10.2974 5.69651 10.1713 6.07606 10.1797C6.90264 10.205 7.73766 10.1797 8.56424 10.1797C8.66545 10.1797 8.7751 10.1797 8.89319 10.1797V10.1881ZM14.713 7.11089H9.71133V14.8124H14.713V7.11089ZM23.0547 10.9701C21.9835 10.9701 20.963 10.9701 19.9424 10.9701C19.7062 10.9701 19.605 11.0457 19.5207 11.2559C18.77 12.9964 18.0025 14.7368 17.2349 16.4772C17.1927 16.5697 17.159 16.6622 17.1168 16.7799C18.1965 16.7799 19.217 16.7799 20.2376 16.7799C20.4569 16.7799 20.5497 16.7126 20.6425 16.5108C21.3341 14.9049 22.0426 13.3074 22.7511 11.7016C22.8523 11.4661 22.9451 11.2307 23.0632 10.9701H23.0547ZM8.91005 10.9701C8.03286 10.9701 7.18941 10.9785 6.33753 10.9701C6.1098 10.9701 6.01702 11.0542 5.94111 11.2475C5.182 12.9964 4.41446 14.7452 3.64692 16.494C3.61318 16.5781 3.57944 16.6706 3.54571 16.7799C4.64219 16.7799 5.71337 16.7799 6.77612 16.7715C6.8689 16.7715 7.00385 16.6369 7.04603 16.536C7.59427 15.3169 8.10034 14.0726 8.68232 12.8618C8.97753 12.2481 8.90162 11.6427 8.91849 10.9869L8.91005 10.9701ZM11.2464 17.545C10.0487 17.545 8.90162 17.545 7.74609 17.545C7.51836 17.545 7.40871 17.6122 7.31593 17.8224C6.77612 19.0836 6.21945 20.3448 5.66277 21.606C5.52782 21.917 5.39286 22.2281 5.23261 22.5813C6.48935 22.5813 7.69549 22.5813 8.90162 22.5729C8.98596 22.5729 9.10405 22.4299 9.14622 22.329C9.62699 21.2612 10.0909 20.185 10.5632 19.1172C10.7825 18.6044 11.0102 18.0999 11.2464 17.5534V17.545ZM9.89689 22.5729H10.2343C11.2886 22.5729 12.3513 22.5729 13.4056 22.5729C13.6334 22.5729 13.743 22.4972 13.8358 22.2954C14.3081 21.1856 14.7973 20.0925 15.2781 18.9911C15.4805 18.5203 15.6914 18.0495 15.9107 17.545C14.713 17.545 13.5575 17.545 12.4104 17.545C12.1826 17.545 12.073 17.6122 11.9802 17.8224C11.4404 19.0836 10.8837 20.3448 10.3271 21.606C10.1921 21.917 10.0571 22.2281 9.89689 22.5813V22.5729ZM14.5527 22.5729C15.6492 22.5729 16.6698 22.5729 17.6904 22.5729C17.9181 22.5729 18.0109 22.4888 18.0868 22.2954C18.5085 21.3117 18.9471 20.328 19.3773 19.3443C19.6388 18.7557 19.8918 18.1672 20.1533 17.5702C20.0942 17.5534 20.0689 17.545 20.0352 17.545C18.9977 17.545 17.9687 17.545 16.9313 17.545C16.8385 17.545 16.6951 17.6711 16.6529 17.772C16.2312 18.7053 15.8264 19.6385 15.4131 20.5718C15.1263 21.2192 14.848 21.8666 14.5443 22.5644L14.5527 22.5729ZM0.990048 22.5729C2.1034 22.5729 3.17459 22.5729 4.2542 22.5644C4.33855 22.5644 4.45663 22.4299 4.49881 22.329C5.16513 20.8324 5.82302 19.3274 6.48092 17.8224C6.51465 17.7384 6.53996 17.6543 6.58213 17.545C5.54468 17.545 4.54098 17.5534 3.53727 17.545C3.2758 17.545 3.14085 17.6207 3.03963 17.8645C2.40705 19.3358 1.75759 20.7904 1.11657 22.2534C1.07439 22.3458 1.04066 22.4467 0.990048 22.5813V22.5729ZM23.2572 12.5928C23.2572 12.5928 23.2234 12.5844 23.2066 12.576C21.9751 15.3758 20.7521 18.1756 19.5122 20.9922H23.2572V12.5844V12.5928ZM8.53894 6.29533H17.4289V4.79033H8.53894V6.29533ZM12.4441 16.7631C13.684 16.7631 14.8733 16.7631 16.0541 16.7631C16.2649 16.7631 16.2987 16.6369 16.3577 16.5024C17.1253 14.762 17.8844 13.0216 18.6519 11.2812C18.6941 11.1887 18.7278 11.0878 18.77 10.9869H17.0578C17.0578 11.3232 17.0662 11.6343 17.0578 11.9454C17.0494 12.1135 17.0156 12.2901 16.9481 12.4414C16.4842 13.3831 16.0035 14.3248 15.5396 15.2665C15.4215 15.5103 15.2612 15.6196 14.9829 15.6112C14.3756 15.6028 13.7768 15.6028 13.1695 15.6112C13.0767 15.6112 12.9333 15.67 12.8911 15.7457C12.7309 16.0568 12.6044 16.3847 12.4357 16.7631H12.4441ZM7.78826 16.7631C9.05344 16.7631 10.2596 16.7631 11.4741 16.7631C11.5248 16.7631 11.6091 16.721 11.626 16.679C11.7862 16.3343 11.938 15.9895 12.0983 15.6028C11.1789 15.6028 10.3186 15.6028 9.4583 15.6028C9.02814 15.6028 8.91005 15.4851 8.91005 15.0479C8.91005 14.8124 8.91005 14.5854 8.91005 14.35C8.88475 14.35 8.86788 14.35 8.84258 14.35C8.49676 15.1403 8.15095 15.9307 7.78826 16.7631ZM15.5311 7.10248V13.526C15.7336 13.1309 15.8854 12.7946 16.0625 12.4835C16.2312 12.1808 16.2903 11.8781 16.2903 11.5334C16.2734 10.1713 16.2903 8.80927 16.2903 7.4472C16.2903 7.3379 16.2903 7.22019 16.2903 7.11089H15.5396L15.5311 7.10248Z" fill="black"/>
</g>
<defs>
<clipPath id="clip0_191_196">
<rect width="24" height="24" fill="white"/>
</clipPath>
</defs>
</svg>
