<svg width="79" height="79" viewBox="0 0 79 79" fill="none" xmlns="http://www.w3.org/2000/svg">
<g clip-path="url(#clip0_1055_727)">
<path d="M19.0508 18.921V14.3016C18.9829 14.2484 18.9285 14.1818 18.8742 14.1951C16.6868 14.315 16.2928 13.3964 17.0536 11.5726C17.3933 10.7739 17.5291 9.89529 17.9367 9.1498C18.1677 8.73712 18.7383 8.25788 19.1867 8.23126C25.1239 7.76533 31.0475 7.39259 36.9847 7.00653C38.0852 6.93997 38.5471 7.37927 38.5607 8.45757C38.5743 9.81542 38.5607 11.1733 38.5607 12.5311C38.5607 13.7425 38.1667 14.1419 36.9304 14.1419C34.5935 14.1419 32.2703 14.1419 29.9334 14.1419C29.6073 14.1419 29.2677 14.1419 28.8873 14.1419V18.7613C28.8873 18.7613 28.9824 18.8677 29.0367 18.8677C31.129 19.0275 31.1426 19.0408 31.4551 21.1042C31.7812 23.2342 32.1072 25.3508 32.4741 27.4675C32.5148 27.6938 32.7865 27.9467 33.0039 28.0798C37.6233 30.8088 40.3949 34.7759 40.8432 40.0475C41.0334 42.2574 40.5035 44.5071 40.2998 46.7436C40.2454 47.3027 40.1639 47.8485 40.096 48.4476C41.4274 48.168 42.6909 47.8752 43.9545 47.6355C44.4164 47.5423 44.8919 47.529 45.3674 47.529C46.7532 47.5024 46.9978 47.8352 47.025 49.2197C47.025 49.6191 47.4054 50.1915 47.7586 50.3512C48.5602 50.7107 49.4705 50.8704 50.503 51.1633C50.3944 50.2314 50.3264 49.5259 50.2313 48.8203C49.5928 44.161 48.8863 39.5151 48.3428 34.8425C48.139 33.1385 48.2613 31.4079 48.2885 29.6773C48.3021 28.7721 48.9135 28.4393 49.783 28.4393C51.8481 28.4393 53.8996 28.4393 55.9647 28.4393C61.7117 28.4393 67.4587 28.4393 73.1921 28.4393C74.6866 28.4393 74.9719 28.7721 75.0399 30.2497C75.2844 35.3883 74.1703 40.3937 73.5318 45.439C72.4856 53.5861 71.2901 61.7066 70.2439 69.8537C70.0401 71.4245 70.1896 73.022 70.176 74.6195C70.1488 77.0556 68.6815 78.5066 66.1816 78.5066C49.2939 78.5066 32.3925 78.5066 15.5048 78.5066C13.1272 78.5066 11.7821 77.3352 11.4561 74.9523C10.342 66.8851 9.2551 58.8178 8.15461 50.7373C7.80136 48.1414 7.44812 45.5588 7.10846 42.9629C6.51067 38.2371 8.10026 34.2168 11.3746 30.8222C12.3528 29.7971 13.6027 29.0117 14.7711 28.1863C15.1787 27.8935 15.3961 27.6805 15.464 27.1347C15.7901 24.7385 16.2384 22.3689 16.646 19.986C16.7683 19.2671 17.2438 18.9077 17.9911 18.8944C18.3171 18.8944 18.6432 18.8944 19.0236 18.8944L19.0508 18.921ZM27.6102 59.3769C27.6102 58.312 27.6102 57.3269 27.6102 56.3417C27.6102 55.0904 27.9498 54.7043 29.1998 54.691C32.5556 54.6378 34.7973 52.4812 36.9575 50.4444C37.6912 49.7522 37.5417 48.168 37.7863 46.9965C37.8135 46.8634 37.8406 46.7303 37.8542 46.6105C38.0852 44.6403 38.6151 42.6434 38.4656 40.6998C38.0173 35.0954 34.9603 31.2615 29.5938 29.2247C27.3249 28.3594 24.9608 28.4126 22.5968 28.4925C17.5427 28.6523 13.6706 30.8754 11.1164 35.1486C9.78496 37.3851 9.13282 39.8212 9.49965 42.4704C10.1518 47.0897 10.7496 51.7224 11.3746 56.3417C12.2033 62.4787 13.0321 68.6023 13.8744 74.7393C14.0239 75.8442 14.3907 76.1371 15.5591 76.1504C17.2438 76.1504 18.9421 76.1504 20.6268 76.1504C21.7545 76.1504 22.8957 76.1504 23.9555 76.1504C23.9555 71.8505 23.9555 67.6705 23.9555 63.5037C23.9555 60.9611 24.9473 59.8162 27.6102 59.3902V59.3769ZM50.9106 35.6678C51.6035 40.7531 52.2828 45.7452 52.9757 50.7107C53.0029 50.937 53.2611 51.2298 53.4784 51.3097C55.8289 52.2283 56.7256 54.052 56.8071 56.395C56.8343 57.3801 56.8071 58.3652 56.8071 59.337C59.6194 59.9227 60.4618 60.9478 60.4618 63.7434C60.4618 65.4606 60.4618 67.1646 60.4618 68.9085H67.9207C69.4287 57.8061 70.9368 46.7702 72.4449 35.6678H50.9242H50.9106ZM42.2562 61.8397C37.4874 61.8397 32.7322 61.8397 27.9634 61.8397C26.7135 61.8397 26.401 62.1459 26.401 63.3573C26.401 67.098 26.401 70.8388 26.401 74.5795C26.401 75.8442 26.6999 76.1371 28.0313 76.1371C37.4874 76.1371 46.9434 76.1371 56.4131 76.1371C57.7309 76.1371 58.0163 75.8575 58.0299 74.5662C58.0299 70.8521 58.0299 67.1513 58.0299 63.4372C58.0299 62.1059 57.7445 61.8397 56.3451 61.8397C51.6443 61.8397 46.957 61.8397 42.2562 61.8397ZM30.0829 59.3769H54.2936V57.1405H30.0829V59.3769ZM72.5672 30.9153H50.7748V33.1651H72.5672V30.9153ZM18.1269 26.0164H29.8111C29.5394 24.4323 29.2813 22.9147 29.0231 21.3571H18.9285C18.6568 22.9147 18.3987 24.4456 18.1269 26.0164ZM44.5523 50.0184C40.8704 50.1782 38.4384 52.388 35.8842 54.5845H53.8724C53.3969 53.7325 52.6904 53.5329 51.8753 53.4796C50.6389 53.3864 49.3754 53.3199 48.1662 53.0669C46.4815 52.7075 45.0957 51.8821 44.5523 50.0184ZM60.4618 71.4112V76.1237C62.4861 76.1237 64.4697 76.1237 66.4533 76.1237C67.2006 76.1237 67.7033 75.7244 67.7305 74.9922C67.7848 73.8207 67.744 72.6359 67.744 71.4112H60.4618ZM19.7029 11.6924H36.0744V9.56248C35.8842 9.54917 35.7483 9.52255 35.6125 9.53586C30.6942 9.84204 25.776 10.1748 20.8578 10.4411C19.9611 10.4943 19.7301 10.947 19.7029 11.6924ZM21.605 14.1685V18.8411H26.3195V14.1685H21.605Z" fill="#4F4F4F"/>
<path d="M23.9293 46.3313C21.6603 46.3313 19.405 46.3313 17.1361 46.3313C15.8454 46.3313 15.4514 45.9453 15.4514 44.6673C15.4514 42.5773 15.4514 40.5006 15.4514 38.4105C15.4514 37.1858 15.8454 36.7864 17.0682 36.7864C21.6603 36.7864 26.2525 36.7864 30.8447 36.7864C32.081 36.7864 32.475 37.1858 32.475 38.3972C32.475 40.4473 32.475 42.4974 32.475 44.5475C32.475 45.9719 32.1218 46.318 30.6952 46.318C28.4263 46.318 26.171 46.318 23.9021 46.318L23.9293 46.3313ZM17.9649 39.1826V43.8686H29.9887V39.2226C29.7714 39.2093 29.6083 39.1826 29.4453 39.1826C25.6411 39.1826 21.837 39.1826 17.9649 39.1826Z" fill="#4F4F4F"/>
<path d="M61.3187 47.5295C60.0552 47.5029 58.4927 47.2633 57.1205 46.358C55.069 45.0135 55.0826 42.8569 57.1477 41.5124C59.5117 39.9815 63.9001 39.9815 66.2233 41.5257C68.2613 42.8835 68.2613 45.0268 66.1962 46.3713C65.0821 47.1035 63.4246 47.5162 61.3051 47.5162L61.3187 47.5295ZM65.3131 43.9751C63.7099 42.3377 59.403 42.3777 58.0987 43.9751C59.6068 45.506 63.6012 45.5327 65.3131 43.9751Z" fill="#4F4F4F"/>
<path d="M37.3525 68.9223C37.3797 66.3131 39.5671 64.2098 42.23 64.2098C44.9337 64.2098 47.1075 66.3797 47.0803 69.0421C47.0531 71.638 44.8658 73.7547 42.2028 73.7547C39.4992 73.7547 37.3254 71.5848 37.3525 68.9223ZM42.2436 66.606C40.9122 66.5927 39.7981 67.6576 39.7845 68.9756C39.7845 70.2802 40.885 71.3718 42.23 71.3585C43.5207 71.3585 44.6076 70.3068 44.6348 69.0421C44.662 67.7375 43.5751 66.6326 42.2436 66.6193V66.606Z" fill="#4F4F4F"/>
</g>
<defs>
<clipPath id="clip0_1055_727">
<rect width="78" height="78" fill="white" transform="translate(0.5 0.5)"/>
</clipPath>
</defs>
</svg>
