<svg width="79" height="79" viewBox="0 0 79 79" fill="none" xmlns="http://www.w3.org/2000/svg">
<path d="M45.2353 13.8993C45.0106 12.5478 44.7859 11.2864 44.5744 10.0122C44.2705 8.21019 45.2617 7.02603 47.0987 7.01316C49.1869 7.00029 51.2619 7.00029 53.35 7.01316C55.2003 7.02603 56.1915 8.19732 55.9008 9.9993C55.6893 11.2736 55.4646 12.5349 55.24 13.8864C55.5175 13.9765 55.7951 14.0666 56.0594 14.1567C57.4867 14.6201 58.3326 15.5854 58.5308 17.0142C58.7291 18.4043 58.2004 19.6013 56.9581 20.3221C56.284 20.7082 56.2444 21.1201 56.3898 21.725C56.7995 23.3597 57.6585 24.7112 59.0727 25.6637C62.086 27.6845 63.4473 30.4389 63.3548 33.9914C63.2887 36.4112 63.3283 38.831 63.3548 41.2379C63.3548 41.5468 63.5662 41.9973 63.8173 42.126C66.8042 43.6191 67.65 45.9874 66.1566 49.0637C67.4782 49.6429 68.5223 50.531 69.0113 51.9211C69.5135 53.3112 69.3153 54.6498 68.5223 56.0013C69.8175 56.5934 70.8616 57.4429 71.3638 58.7815C71.866 60.0944 71.6942 61.3686 71.0598 62.733C72.0114 62.733 72.8573 62.733 73.7031 62.733C74.8397 62.7458 75.2494 63.132 75.2362 64.2647C75.2362 65.3201 75.2626 66.4013 75.0644 67.4439C74.5489 70.0567 72.2625 71.8973 69.5268 72.0132C69.2624 72.0132 68.9981 72.0132 68.7338 72.0132C49.2398 72.0132 29.759 72.0132 10.265 72.0132C6.20761 72.0132 3.7626 69.632 3.74939 65.7062C3.74939 62.9647 3.45863 62.6043 6.77591 62.7201C6.90808 62.7201 7.04024 62.7072 7.31778 62.6815C7.31778 62.3082 7.31778 61.935 7.31778 61.5746C7.31778 53.2597 7.31778 44.9448 7.31778 36.63C7.31778 33.8627 8.66584 32.5627 11.5206 32.5627C13.5691 32.5627 15.6176 32.5627 17.6793 32.5627C17.7454 32.5627 17.8115 32.5498 17.9569 32.5241V30.1557C15.5119 29.4607 13.7805 27.9934 13.4369 25.4706C13.2783 24.3122 13.4898 23.0122 13.8863 21.9052C14.7453 19.4597 16.4634 17.5033 18.2608 15.6369C18.7895 15.0963 19.4635 14.929 20.0186 15.4825C22.2125 17.6577 24.2082 20.0003 24.9879 23.0379C25.8206 26.2944 24.1024 28.9458 20.4812 30.1557V32.5627C21.9614 32.5627 23.4416 32.5627 24.9219 32.5627C25.8206 32.5627 26.706 32.5369 27.6048 32.5627C29.6136 32.627 31.1071 34.0429 31.1467 36.0122C31.1864 37.9171 31.1467 39.8092 31.1731 41.7142C31.1731 42.0617 31.2921 42.5122 31.53 42.7181C33.7635 44.6617 35.1645 47.03 35.7195 49.8874C35.7328 49.9775 35.7988 50.0547 35.8385 50.132C36.7901 50.029 37.1337 49.5785 37.1337 48.6132C37.0808 43.5548 37.1072 38.4963 37.1072 33.4379C37.1072 30.2716 38.4024 27.7617 41.0457 25.934C42.6845 24.8013 43.8079 23.3468 44.0854 21.3775C44.1251 21.1201 43.9533 20.6825 43.7286 20.5538C42.3673 19.7043 41.6801 18.5201 41.9312 16.9627C42.1823 15.4052 43.1867 14.4528 44.7595 14.0795C44.8784 14.0538 44.9974 14.0023 45.222 13.925L45.2353 13.8993ZM24.1685 49.9518C24.1289 50.0419 24.1817 49.9647 24.195 49.8874C24.7633 47.03 26.1642 44.6488 28.3845 42.7181C28.6092 42.525 28.7414 42.1132 28.7546 41.8043C28.7942 40.0666 28.7678 38.329 28.7678 36.5785C28.7678 35.2142 28.4242 34.8666 27.01 34.8666C21.8821 34.8666 16.7542 34.8666 11.6263 34.8666C10.0007 34.8666 9.70993 35.1498 9.70993 36.7072C9.70993 45.0221 9.70993 53.3369 9.70993 61.6518V62.6557H21.9218C20.838 61.33 19.5957 60.0429 18.6177 58.5884C17.0053 56.1686 16.7542 53.4142 16.8467 50.5953C16.8996 49.0765 17.2432 48.626 18.8159 48.8448C20.6001 49.0894 22.3447 49.5656 24.1685 49.9647V49.9518ZM72.8176 65.1013H6.1944C5.96972 68.2033 7.34421 69.6706 10.4104 69.6706C29.7987 69.6706 49.2001 69.6706 68.5884 69.6706C71.6546 69.6706 73.0423 68.2033 72.8044 65.1013H72.8176ZM60.9097 36.1666C59.9978 36.4498 59.1652 36.7973 58.3061 36.9647C54.9756 37.6082 52.0284 36.8874 49.4777 34.6221C46.7816 32.228 43.2396 31.8934 40.332 33.6567C39.7373 34.0171 39.4862 34.4161 39.4862 35.1241C39.5258 39.4102 39.4994 43.6963 39.4994 47.9825C39.4994 48.2914 39.4994 48.6132 39.4994 48.9607C40.2659 48.8963 40.9268 48.8191 41.5743 48.8062C42.6052 48.7934 43.0281 49.2052 43.0678 50.1835C43.081 50.827 43.0678 51.4706 43.0678 52.1142C43.0414 56.1557 41.4554 59.4894 38.2967 62.1152C38.1117 62.2696 37.9002 62.3854 37.702 62.5142C37.7548 62.5656 37.8077 62.63 37.8606 62.6815H43.6493C43.0678 61.3815 42.8695 60.1072 43.3718 58.7944C43.8872 57.4557 44.9048 56.5934 46.2265 56.0013C45.4467 54.6627 45.2353 53.3241 45.7243 51.934C46.2133 50.5567 47.2441 49.6429 48.5922 49.0637C48.4336 48.7033 48.3014 48.4458 48.1957 48.1755C46.993 45.1508 49.1473 41.9716 52.4646 41.8429C53.3236 41.8043 54.1827 41.8429 55.0417 41.8429C56.9845 41.8429 58.9273 41.8429 60.9097 41.8429V36.1795V36.1666ZM39.7109 30.928C40.0941 31.0052 40.1602 31.0439 40.2131 31.0181C44.4291 29.4349 48.1164 30.1686 51.4865 33.1676C53.9183 35.3429 57.6718 35.4072 60.3414 33.6181C60.8172 33.3092 60.9758 32.9746 60.8965 32.4211C60.5793 30.4003 59.5749 28.8171 57.8436 27.6458C55.6761 26.1785 54.3413 24.1706 53.958 21.6092C53.9316 21.4033 53.8523 21.1973 53.7862 20.9914H46.623C46.3586 24.1448 44.6009 26.3458 42.0766 28.1478C41.1514 28.8171 40.5567 29.9241 39.7241 30.9409L39.7109 30.928ZM57.3546 62.7072C60.434 62.7072 63.5001 62.7072 66.5795 62.7072C68.2051 62.7072 69.2889 61.7676 69.2889 60.3904C69.2889 59.0132 68.2051 58.0736 66.5795 58.0736C60.4604 58.0736 54.3545 58.0736 48.2353 58.0736C46.5437 58.0736 45.4467 59.026 45.4731 60.429C45.4996 61.8062 46.5701 62.6944 48.2353 62.6944C51.2751 62.6944 54.3148 62.6944 57.3546 62.6944V62.7072ZM57.4074 55.7439C59.6806 55.7439 61.967 55.7439 64.2402 55.7439C65.7998 55.7439 66.8703 54.8171 66.8967 53.4656C66.9231 52.0884 65.8262 51.1102 64.227 51.1102C59.6674 51.1102 55.1078 51.1102 50.5482 51.1102C48.9226 51.1102 47.8389 52.0498 47.8521 53.427C47.8521 54.8043 48.9358 55.731 50.5746 55.731C52.8478 55.731 55.1342 55.731 57.4074 55.731V55.7439ZM28.7017 62.5142C29.3625 56.9666 24.2214 50.8528 19.3049 51.3419C18.8688 57.0567 23.5474 62.63 28.7017 62.5142ZM31.2392 62.5656C36.7504 62.2567 41.4025 56.6191 40.6096 51.2904C36.3539 51.3805 30.5916 55.7953 31.2392 62.5656ZM57.3414 48.7805C58.8612 48.7805 60.3811 48.7805 61.901 48.7805C63.4473 48.7676 64.5178 47.8151 64.5178 46.4765C64.5178 45.1379 63.4605 44.1597 61.9142 44.1597C58.8744 44.1468 55.8347 44.1468 52.8082 44.1597C51.2751 44.1597 50.2178 45.1637 50.2442 46.5151C50.2707 47.828 51.3147 48.7676 52.795 48.7934C54.3148 48.8062 55.8347 48.7934 57.3546 48.7934L57.3414 48.7805ZM29.9705 55.7825C30.9881 54.5983 32.1247 53.2854 33.2481 51.9597C33.3803 51.8052 33.5256 51.5736 33.5124 51.3805C33.301 48.626 32.1511 46.3349 29.9837 44.4557C27.8426 46.3092 26.706 48.5488 26.4682 51.2132C26.4417 51.4835 26.64 51.8052 26.825 52.0369C27.8955 53.3369 28.9925 54.5983 29.9837 55.7825H29.9705ZM19.2521 18.0052C17.7454 19.7944 16.3445 21.4676 15.8026 23.63C15.3665 25.3547 16.3181 27.0151 18.0626 27.5557C18.0626 27.028 18.0626 26.526 18.0626 26.0241C18.0626 24.9815 18.4723 24.4538 19.2256 24.428C20.0186 24.4151 20.4415 24.9686 20.4415 26.0627C20.4415 26.5518 20.4415 27.0538 20.4415 27.5815C22.2654 27.131 23.098 24.9944 22.7279 23.6815C22.1332 21.5062 20.7587 19.7944 19.2389 18.0052H19.2521ZM53.5747 9.39435H46.8873C47.1516 10.9389 47.4159 12.4191 47.667 13.9122H52.795C53.0593 12.4062 53.3104 10.9389 53.5747 9.39435ZM50.231 18.6102C51.6848 18.6102 53.1386 18.6102 54.5924 18.6102C55.6232 18.6102 56.2312 18.1726 56.1651 17.426C56.0858 16.5379 55.4646 16.2934 54.632 16.2934C51.698 16.2934 48.7508 16.2934 45.8168 16.2934C44.9841 16.2934 44.363 16.5379 44.2969 17.4389C44.244 18.1854 44.8388 18.6102 45.8696 18.6102C47.3234 18.6102 48.7772 18.6102 50.231 18.6102Z" fill="#4F4F4F"/>
</svg>
