<svg width="79" height="79" viewBox="0 0 79 79" fill="none" xmlns="http://www.w3.org/2000/svg">
<g clip-path="url(#clip0_1055_1085)">
<path d="M65.4468 48.4561H13.636C13.6124 48.8577 13.5769 49.247 13.5769 49.6242C13.5769 58.2393 13.5769 66.8665 13.5769 75.4816C13.5769 77.7692 12.9026 78.3776 10.6551 78.4749C7.26024 78.6331 7 77.465 7 74.7393C7.03549 53.2869 7.02366 31.8223 7.02366 10.3698C7.02366 9.90743 7.01183 9.43287 7.05914 8.97048C7.17743 7.82668 7.9818 7.07225 9.09372 6.99924C9.3303 6.98708 9.57871 6.99924 9.81529 6.99924C29.6169 6.99924 49.4186 6.99924 69.2202 6.99924C71.2784 6.99924 71.9882 7.71716 71.9882 9.83442C71.9882 31.7614 71.9882 53.6762 71.9882 75.6032C71.9882 77.7327 71.2784 78.4628 69.232 78.4628C68.6879 78.4628 68.1438 78.4749 67.5996 78.4628C66.3931 78.4262 65.5651 77.6231 65.4468 76.3942C65.4113 76.0535 65.4349 75.7128 65.4349 75.372C65.4349 66.8178 65.4349 58.2515 65.4349 49.6973V48.4561H65.4468ZM16.0965 41.6298C16.061 40.997 16.0136 40.4738 16.0136 39.9506C16.0136 33.3433 16.0136 26.736 16.0136 20.1287C16.0136 17.4882 17.2084 16.2592 19.7753 16.2592C26.8844 16.2592 34.0055 16.2592 41.1147 16.2592C43.8826 16.2592 45.03 17.4273 45.03 20.2504C45.03 26.736 45.03 33.2094 45.03 39.695V41.6054H47.6206C47.5733 41.3256 47.5023 41.1066 47.5023 40.8997C47.5023 37.5169 47.4431 34.1342 47.5141 30.7636C47.5496 29.1209 48.9572 27.8554 50.6015 27.8311C53.7006 27.7946 56.8117 27.7946 59.9227 27.8311C61.5551 27.8433 62.9509 29.1331 62.9864 30.788C63.0573 34.3776 63.01 37.9672 63.01 41.6054H65.3758V13.7647H13.636V41.6176H16.1083L16.0965 41.6298ZM25.0155 18.3521C23.2175 18.3521 21.5614 18.3521 19.9054 18.3521C18.3321 18.3521 18.0482 18.632 18.0482 20.2382C18.0482 26.7481 18.0482 33.2581 18.0482 39.7681C18.0482 41.3986 18.3085 41.6785 19.8699 41.6785C26.9554 41.6785 34.0291 41.6785 41.1147 41.6785C42.747 41.6785 42.9718 41.4351 42.9718 39.7194C42.9718 33.2459 42.9718 26.7603 42.9718 20.2869C42.9718 20.0435 42.9718 19.788 42.9718 19.5446C42.9363 18.851 42.5696 18.4008 41.9072 18.3886C39.9909 18.3521 38.0628 18.3765 36.04 18.3765C36.04 20.6276 36.04 22.7813 36.04 24.9473C36.04 27.2227 34.4668 28.2692 32.5505 27.1254C31.131 26.2736 29.96 26.2371 28.5168 27.1132C26.5651 28.3057 25.0155 27.247 25.0155 24.8742C25.0155 22.7448 25.0155 20.6154 25.0155 18.3521ZM11.4477 76.3212V9.14084H9.12921V76.3333H11.4477V76.3212ZM69.8826 76.3333V9.14084H67.5642V76.3333H69.8826ZM13.6242 11.5745H65.3758V9.15301H13.6242V11.5745ZM13.636 43.8444V46.2293H65.3758V43.8444H13.636ZM51.9145 29.997C50.1993 29.7415 49.5369 30.07 49.525 31.2382C49.4895 34.2681 49.5132 37.3101 49.525 40.34C49.525 41.2039 49.9864 41.6663 50.8262 41.6663C53.7716 41.6663 56.7288 41.6663 59.6743 41.6663C60.5141 41.6663 60.9636 41.2039 60.9636 40.34C60.9636 37.3101 60.9636 34.2681 60.9636 31.2382C60.9636 30.3864 60.5023 29.924 59.6624 29.9119C59.3076 29.9119 58.9527 29.9119 58.5978 29.9119C58.2784 31.2504 58.9527 32.7105 57.9236 33.8178C56.8471 34.986 55.4277 34.4871 54.1501 34.4992C53.6415 34.4992 53.0146 34.2194 52.6242 33.8543C51.5005 32.8079 52.1747 31.3355 51.9145 29.997ZM27.0974 18.3886V25.6895C29.3803 23.7426 31.6278 23.6331 33.9108 25.6895V18.3886H27.0974ZM56.445 29.997H54.0792V32.382H56.445V29.997Z" fill="#4F4F4F"/>
<path d="M48.555 78.4635C44.8762 78.4635 41.1974 78.4635 37.5186 78.4635C35.3066 78.4635 33.9936 77.1737 33.9936 74.9104C33.9699 68.0841 33.9699 61.2699 33.9936 54.4436C33.9936 52.229 35.3066 50.927 37.4595 50.927C44.8171 50.927 52.1628 50.927 59.5204 50.927C61.7088 50.927 63.01 52.2777 63.01 54.5166C63.01 61.3064 63.01 68.0962 63.01 74.8861C63.01 77.1128 61.6851 78.4513 59.4968 78.4513C55.8534 78.4513 52.1983 78.4513 48.555 78.4513V78.4635ZM42.9836 53.0199C41.0673 53.0199 39.2929 53.0199 37.5186 53.0199C36.4303 53.0199 36.0518 53.4215 36.0518 54.5409C36.0518 61.3064 36.0518 68.0597 36.0518 74.8252C36.0518 75.9447 36.4422 76.3706 37.5068 76.3706C44.8289 76.3706 52.1628 76.3706 59.4849 76.3706C60.5614 76.3706 60.9754 75.9447 60.9754 74.8496C60.9754 68.0841 60.9754 61.3308 60.9754 54.5653C60.9754 53.3971 60.585 53.0199 59.4376 53.0078C57.8644 52.9956 56.3029 53.0078 54.7297 53.0078C54.5049 53.0078 54.2802 53.0686 54.0081 53.0929C54.0081 55.271 54.0081 57.3761 54.0081 59.4812C54.0081 61.927 52.494 62.9613 50.4595 61.7445C49.0873 60.917 47.9754 60.8927 46.5914 61.7201C44.5095 62.9613 42.9836 61.9392 42.9836 59.4447C42.9836 57.3396 42.9836 55.2345 42.9836 52.9956V53.0199ZM45.1009 60.4425C47.3958 58.2401 49.6433 58.4713 51.9144 60.333V53.0929H45.1009V60.4425Z" fill="#4F4F4F"/>
<path d="M23.6787 78.4635C22.2592 78.4635 20.8398 78.4635 19.4321 78.4635C17.3621 78.4514 16.0254 77.0885 16.0136 74.9834C16.0136 71.9779 16.0017 68.9724 16.0136 65.9547C16.0136 63.8861 17.3266 62.4989 19.3493 62.4868C22.3066 62.4624 25.252 62.4624 28.2092 62.4868C30.2201 62.4989 31.5213 63.8861 31.5331 65.9668C31.545 68.9724 31.545 71.9779 31.5331 74.9956C31.5331 77.1129 30.1846 78.4514 28.1027 78.4635C26.6241 78.4635 25.1455 78.4635 23.6669 78.4635H23.6787ZM20.4494 64.7014C18.5568 64.3363 18.0481 64.75 18.0481 66.6483C18.0481 69.3131 18.0481 71.9779 18.0481 74.6306C18.0481 76.0177 18.403 76.3706 19.7752 76.3706C22.4485 76.3706 25.1337 76.3706 27.807 76.3706C29.1437 76.3706 29.4985 75.9934 29.4985 74.5941C29.4985 71.9292 29.4985 69.2644 29.4985 66.6118C29.4985 64.75 28.8953 64.2755 27.0854 64.7257C27.0263 65.7113 27.0854 66.7091 26.8962 67.6704C26.7069 68.6682 25.8434 69.2401 24.696 69.1914C23.5486 69.1427 22.3184 69.5565 21.2893 68.6925C19.9881 67.6095 20.7215 66.0277 20.4376 64.7014H20.4494ZM24.9444 67.062V64.6649H22.5904V67.062H24.9444Z" fill="#4F4F4F"/>
<path d="M23.8326 32.4558C24.5542 32.4558 25.2758 32.4436 25.9973 32.4558C26.6361 32.4801 27.0383 32.833 27.0264 33.4901C27.0264 34.1471 26.6124 34.5122 25.9855 34.5244C24.5187 34.5487 23.0401 34.5487 21.5733 34.5244C20.9464 34.5244 20.5442 34.135 20.5442 33.4779C20.5442 32.8208 20.9464 32.4679 21.5851 32.4558C22.3304 32.4314 23.0874 32.4558 23.8326 32.4558Z" fill="#4F4F4F"/>
<path d="M23.7615 39.1604C23.04 39.1604 22.3184 39.1848 21.5968 39.1604C20.9817 39.1361 20.544 38.8076 20.5322 38.1505C20.5204 37.4326 20.9581 37.0919 21.6323 37.0797C23.0754 37.0675 24.5186 37.0675 25.9499 37.0797C26.5768 37.0797 27.0026 37.4082 27.0145 38.0896C27.0263 38.8076 26.5768 39.1483 25.9144 39.1726C25.1928 39.1969 24.4713 39.1726 23.7497 39.1726L23.7615 39.1604Z" fill="#4F4F4F"/>
<path d="M41.7533 73.8274C41.0317 73.8274 40.3102 73.8274 39.5886 73.8274C38.9498 73.8274 38.5358 73.4746 38.5122 72.8296C38.4885 72.1239 38.9144 71.7589 39.5886 71.7589C41.0317 71.7589 42.463 71.7589 43.9062 71.7589C44.5449 71.7589 44.9589 72.0996 44.9826 72.7566C45.0063 73.4624 44.5804 73.8274 43.9062 73.8396C43.1846 73.8518 42.463 73.8396 41.7415 73.8396L41.7533 73.8274Z" fill="#4F4F4F"/>
<path d="M41.6824 69.2036C40.9963 69.2036 40.2984 69.2036 39.6123 69.2036C38.9262 69.2036 38.5004 68.8385 38.5122 68.1328C38.5122 67.4878 38.938 67.1228 39.565 67.1228C41.0081 67.1228 42.4512 67.1228 43.8825 67.1228C44.5568 67.1228 44.9826 67.4878 44.9708 68.1936C44.9708 68.8628 44.545 69.1914 43.918 69.2036C43.1728 69.2157 42.4158 69.2036 41.6705 69.2036H41.6824Z" fill="#4F4F4F"/>
</g>
<defs>
<clipPath id="clip0_1055_1085">
<rect width="78" height="78" fill="white" transform="translate(0.5 0.5)"/>
</clipPath>
</defs>
</svg>
