<svg width="79" height="79" viewBox="0 0 79 79" fill="none" xmlns="http://www.w3.org/2000/svg">
<g clip-path="url(#clip0_981_1097)">
<path d="M60.9559 25.626C63.2416 25.626 65.5105 25.626 67.7963 25.626C68.166 25.626 68.5526 25.626 68.9223 25.626C69.9475 25.626 70.4349 26.1471 70.4349 27.1555C70.4349 33.8445 70.4349 40.5336 70.4181 47.2227C70.4181 48.3487 69.9307 48.9538 69.1072 48.9538C68.2836 48.9538 67.7963 48.3487 67.7963 47.2059C67.7963 42.0126 67.7963 36.8361 67.7963 31.6429C67.7963 31.2395 67.7963 30.8529 67.7963 30.1975C67.3425 30.6176 67.0568 30.8529 66.8047 31.105C58.4517 39.4412 50.1156 47.7941 41.7458 56.1302C41.1576 56.7017 40.9223 57.2899 40.9223 58.0966C40.9559 63.0546 40.9391 68.0126 40.9391 72.9706C40.9391 73.1555 40.9727 73.3403 40.9895 73.7773C41.3929 73.4076 41.6786 73.1555 41.9475 72.8866C48.3845 66.4496 54.8047 60.0294 61.2416 53.5924C61.5105 53.3235 61.7626 53.0378 62.0484 52.8025C62.6534 52.3151 63.3089 52.2815 63.8803 52.8361C64.4517 53.4076 64.4013 54.0462 63.8971 54.6513C63.729 54.8529 63.5442 55.0378 63.3593 55.2227C55.8467 62.7521 48.3341 70.2815 40.7878 77.7773C40.4181 78.1471 39.7458 78.416 39.208 78.416C32.7374 78.4496 26.2836 78.4328 19.8131 78.4328C17.8299 78.4328 17.561 78.1639 17.561 76.1302C17.561 69.6597 17.5273 63.2059 17.561 56.7353C17.561 56.2143 17.8971 55.6092 18.25 55.1891C18.7206 54.6176 19.3593 54.1975 19.9139 53.7101C19.8635 53.5924 19.8131 53.4916 19.7626 53.3739C19.3425 53.3571 18.9223 53.3235 18.4853 53.3235C16.3509 53.3235 14.1996 53.3235 12.0652 53.3235C10.687 53.3235 10.2836 52.9202 10.2668 51.5924C10.25 44.9034 10.2332 38.2143 10.2668 31.5252C10.2668 31.0546 10.5189 30.4832 10.8551 30.1471C20.5358 20.4832 30.2332 10.7857 39.9643 1.10504C40.3173 0.752101 40.9559 0.533613 41.4601 0.533613C48.0988 0.5 54.7542 0.5 61.4097 0.5C62.6366 0.5 63.124 0.970588 63.124 2.18067C63.124 8.44958 63.0736 14.7353 63.1408 21.0042C63.1408 22.4664 62.8887 23.6597 61.6618 24.5336C61.3593 24.7521 61.0568 24.9874 60.7542 25.2059C60.8215 25.3403 60.8719 25.4748 60.9391 25.5924L60.9559 25.626ZM58.4181 3.2395C58.1156 3.20588 57.9811 3.17227 57.8467 3.17227C52.6702 3.17227 47.4769 3.15546 42.3005 3.20588C41.8467 3.20588 41.3089 3.52521 40.9727 3.86134C32.4853 12.3151 24.0147 20.7857 15.5442 29.2563C15.3593 29.4412 15.1912 29.6765 14.9391 30.0126C20.3005 30.0126 25.4769 30.0126 30.6534 30.0294C31.4265 30.0294 31.9811 29.8109 32.5189 29.2563C40.8719 20.8697 49.2416 12.5168 57.5946 4.14706C57.8467 3.89496 58.0652 3.62605 58.4181 3.2395ZM60.3845 5.2395C60.166 5.39076 60.0988 5.42437 60.0484 5.47479C51.4097 14.1134 42.771 22.7353 34.1492 31.3908C33.8131 31.7269 33.6282 32.3824 33.6282 32.8866C33.5946 37.8782 33.6114 42.8866 33.6114 47.8782C33.6114 48.0966 33.6786 48.3319 33.729 48.6176C33.9139 48.4832 34.0147 48.416 34.0988 48.3487C42.7038 39.7437 51.3257 31.1387 59.9139 22.5C60.2332 22.1807 60.4181 21.5924 60.4181 21.1218C60.4517 16.1639 60.4349 11.2059 60.4349 6.2479C60.4349 5.96218 60.4013 5.67647 60.3845 5.22269V5.2395ZM65.8131 28.2647C63.3929 28.2647 61.2416 28.2983 59.1072 28.2647C58.3005 28.2479 57.7122 28.4832 57.124 29.0714C49.2752 36.9538 41.4097 44.8193 33.5273 52.6681C33.124 53.0714 32.4349 53.3403 31.8635 53.3739C29.6114 53.458 27.3425 53.4916 25.1072 53.3739C23.7122 53.3067 23.04 54.0462 22.2668 55.1218H23.4433C28.2836 55.1218 33.1408 55.105 37.9811 55.1386C38.771 55.1386 39.2921 54.8866 39.8467 54.3487C48.1996 45.9622 56.5862 37.5924 64.9559 29.2227C65.1912 28.9874 65.4097 28.7353 65.8131 28.2983V28.2647ZM12.9223 32.7521C12.9223 35.2731 12.9223 37.7437 12.9223 40.2143C12.9223 40.416 13.0231 40.6849 13.1576 40.8361C14.5358 42.2983 15.7626 44.0126 17.3761 45.1218C19.5105 46.584 21.5778 47.9286 22.0315 50.6513H24.9223C25.1912 48.8361 24.7542 47.2563 23.5273 46.0294C22.7206 45.2227 21.729 44.5504 20.7206 44.0126C18.082 42.6344 16.3677 40.5504 15.9139 37.6092C15.6786 36.0294 15.7458 34.416 15.6618 32.7521H12.9055H12.9223ZM32.2332 75.7773C32.4853 74.1975 32.2332 72.7185 31.2248 71.6092C30.3005 70.6176 29.1744 69.7437 27.9811 69.0882C25.2416 67.5924 23.5442 65.4076 23.1576 62.3151C22.9727 60.8529 23.124 59.3403 23.124 57.8277H20.2332C20.2332 60.3487 20.2332 62.8193 20.2332 65.2899C20.2332 65.4916 20.3341 65.7269 20.4517 65.9118C21.645 67.7101 22.9727 69.3908 24.9055 70.4328C27.1072 71.626 28.8719 73.1386 29.3257 75.7605H32.2164L32.2332 75.7773ZM29.124 57.8277H26.0484C24.8047 62.5504 26.6198 65.5924 29.6954 66.9874C32.4517 68.2143 34.2668 70.3655 34.8383 73.4076C34.9895 74.1639 34.9895 74.9538 35.0568 75.7437H38.4517C38.2668 74.2815 38.3677 72.8361 37.8971 71.5924C36.9727 69.1386 35.1744 67.2899 32.8887 65.9958C28.5694 63.542 28.1324 62.6344 29.1408 57.8445L29.124 57.8277ZM30.8215 50.6849C31.4433 47.9118 30.7038 45.5084 28.7878 43.6092C27.4937 42.3319 25.9811 41.2395 24.4181 40.3151C21.7122 38.7017 20.7374 36.584 21.6282 33.5924C21.7122 33.3235 21.7626 33.0546 21.8467 32.6681C21.0231 32.6681 20.3173 32.7185 19.6114 32.6681C18.8551 32.6008 18.5694 32.9034 18.4685 33.6597C17.9643 37.5084 19.0568 40.3655 22.6198 41.9958C25.4097 43.2731 27.124 45.5588 27.6114 48.6513C27.7122 49.3067 27.7122 49.979 27.7794 50.6681H30.8383L30.8215 50.6849ZM33.561 57.7437C33.1072 57.8109 32.5862 57.7269 32.2668 57.9454C30.9223 58.9034 30.9223 61.6933 32.2668 62.6176C34.2332 63.979 36.2668 65.2731 38.25 66.5672C38.25 66.1134 38.1996 65.4916 38.25 64.8697C38.3341 64.0798 38.0652 63.6765 37.2752 63.3908C35.6786 62.8025 34.5862 61.626 34.0315 60.0126C33.7963 59.3067 33.7122 58.5672 33.5273 57.7269L33.561 57.7437ZM30.9727 41.4916C30.9727 41.0378 30.9223 40.416 30.9727 39.7941C31.04 39.021 30.7542 38.6849 30.0484 38.2815C29.0063 37.6933 27.9811 36.8697 27.2921 35.9118C26.6702 35.0378 26.5189 33.8445 26.0988 32.6008C25.729 32.7185 25.04 32.7353 24.8383 33.0546C23.6786 34.9034 23.3089 36.7017 25.7626 38.0462C27.561 39.021 29.1744 40.2983 30.9559 41.5084L30.9727 41.4916ZM12.9727 50.7353H19.3089C18.8047 49.0546 17.5778 48.4328 16.4013 47.6765C15.2248 46.937 14.1492 46.0462 12.9727 45.1891V50.7353ZM26.687 75.7773C25.3929 72.8361 22.0147 72.5336 20.3173 69.9286V75.7773H26.687ZM36.3173 57.8277C36.4853 59.1555 36.8047 60.2815 38.2164 60.8193V57.8277H36.3173ZM30.8719 35.7605V32.7521H29.0568C29.1072 34.0966 29.561 35.105 30.8719 35.7605Z" fill="#4F4F4F"/>
<path d="M57.9811 48.5168C57.6449 49.021 57.4769 49.4412 57.1743 49.7437C53.8634 53.0715 50.5525 56.3824 47.2248 59.7101C46.5861 60.3488 45.897 60.5841 45.1407 59.9454C44.5021 59.4076 44.6029 58.5841 45.3928 57.7941C48.6701 54.5 51.9474 51.1891 55.292 47.9454C55.6785 47.5757 56.418 47.374 56.9559 47.4244C57.3088 47.458 57.6113 48.0967 57.9811 48.5168Z" fill="#4F4F4F"/>
<path d="M37.5105 41.105C36.3845 41.105 35.729 40.1807 36.0988 39.2899C36.166 39.1218 36.2836 38.9538 36.4181 38.8193C39.8635 35.3571 43.3089 31.9118 46.771 28.4664C47.3593 27.8781 48.0652 27.8277 48.6702 28.4664C49.2752 29.0882 49.1744 29.7941 48.603 30.3655C45.1912 33.7941 41.7626 37.2227 38.3173 40.6344C38.0652 40.8865 37.6954 41.0042 37.5273 41.0882L37.5105 41.105Z" fill="#4F4F4F"/>
<path d="M57.9811 14.6681C57.645 15.1723 57.4769 15.5924 57.1744 15.895C53.8635 19.2227 50.5526 22.5336 47.2248 25.8614C46.5862 26.5 45.8971 26.7521 45.1408 26.0967C44.5022 25.542 44.603 24.7353 45.3761 23.9454C48.6534 20.6513 51.9307 17.3403 55.2753 14.0967C55.6618 13.7269 56.4013 13.5252 56.9391 13.5756C57.2921 13.6093 57.5946 14.2479 57.9643 14.6681H57.9811Z" fill="#4F4F4F"/>
</g>
<defs>
<clipPath id="clip0_981_1097">
<rect width="78" height="78" fill="white" transform="translate(0.5 0.5)"/>
</clipPath>
</defs>
</svg>
