<svg width="79" height="79" viewBox="0 0 79 79" fill="none" xmlns="http://www.w3.org/2000/svg">
<path d="M66.4784 63.8128C65.2797 62.7692 63.8412 62.3602 62.2618 62.191C62.2618 61.7538 62.2618 61.3872 62.2618 61.0205C62.2618 54.0115 62.2618 46.9885 62.2618 39.9795C62.2618 32.0115 59.0182 25.6513 52.6297 20.9128C45.1836 15.3987 33.9015 15.3846 26.4554 20.8987C20.0246 25.6513 16.7951 32.0398 16.7951 40.05C16.7951 47.059 16.7951 54.082 16.7951 61.091V62.1769C16.5413 62.2333 16.3861 62.2615 16.231 62.2897C12.4092 62.9102 10.3079 65.3782 10.2938 69.2564C10.2938 70.441 10.2938 71.6115 10.2938 72.7961C10.2938 74.7987 10.7451 75.25 12.7618 75.25C30.6015 75.25 48.4412 75.25 66.281 75.25C66.563 75.25 66.8451 75.25 67.113 75.25C68.1284 75.1654 68.7348 74.5872 68.763 73.5859C68.7912 71.7525 68.8194 69.9192 68.7066 68.1C68.5938 66.3936 67.79 64.9833 66.4925 63.841L66.4784 63.8128ZM20.0387 39.8526C20.1515 31.5603 23.9451 25.4539 31.4336 21.7872C39.9233 17.641 50.8951 20.9128 55.9156 28.9372C57.9746 32.2372 59.0182 35.8192 59.0182 39.6833C59.0464 46.9462 59.0182 54.209 59.0182 61.4718C59.0182 61.6833 58.99 61.8949 58.9759 62.1487H20.081C20.0669 61.8808 20.0246 61.6128 20.0246 61.3308C20.0246 54.1667 19.94 46.9885 20.0387 39.8244V39.8526ZM65.5194 71.9359H13.6502C13.6502 70.5679 13.5233 69.2282 13.6784 67.9308C13.8336 66.6615 15.0464 65.7026 16.3297 65.5474C16.7246 65.5051 17.1336 65.5051 17.5425 65.5051C32.181 65.5051 46.8336 65.5051 61.472 65.5051C64.3771 65.5051 65.5194 66.6474 65.5194 69.5667C65.5194 70.3423 65.5194 71.1038 65.5194 71.95V71.9359Z" fill="#4F4F4F"/>
<path d="M13.4105 27.0334C13.7067 26.1731 13.3541 25.4257 12.381 24.918C10.3926 23.9026 8.4041 22.9154 6.40154 21.9283C6.10539 21.7731 5.76693 21.7026 5.18872 21.5052C4.80795 21.8578 4.24385 22.1962 3.9477 22.6898C3.55282 23.3526 3.77847 24.1283 4.44129 24.4808C6.75411 25.7219 9.10923 26.9065 11.4785 28.0347C12.24 28.4013 13.1426 27.8372 13.4105 27.0475V27.0334Z" fill="#4F4F4F"/>
<path d="M72.9656 21.8012C70.7515 22.8307 68.5656 23.9448 66.4079 25.073C65.5618 25.5243 65.3361 26.4551 65.731 27.2307C66.1259 28.0063 67.0284 28.3307 67.8746 27.9217C70.0182 26.8781 72.1618 25.8345 74.2631 24.7063C74.7425 24.4525 75.0528 23.8461 75.2502 23.6204C75.2643 22.0833 74.1079 21.2794 72.9656 21.8012Z" fill="#4F4F4F"/>
<path d="M39.5002 13.4526C40.4733 13.4526 41.122 12.7756 41.1502 11.6051C41.1784 9.61666 41.1784 7.64231 41.1502 5.65385C41.1361 4.48333 40.4874 3.7641 39.5425 3.75C38.5695 3.75 37.9207 4.48333 37.8925 5.71026C37.8643 6.66923 37.8925 7.6282 37.8925 8.58718C37.8925 9.57436 37.8643 10.5756 37.8925 11.5628C37.9207 12.7474 38.5413 13.4385 39.5002 13.4526Z" fill="#4F4F4F"/>
<path d="M21.2515 13.7629C21.6464 14.1578 22.0272 14.5808 22.4926 14.8629C23.5361 15.5116 24.8618 14.7219 24.8618 13.227C24.7631 13.0296 24.622 12.5642 24.3118 12.2539C22.7887 10.6744 21.2374 9.12316 19.6579 7.58598C18.8823 6.82444 17.9092 6.82444 17.2605 7.47316C16.5977 8.13598 16.6259 9.09495 17.3733 9.8706C18.6426 11.1821 19.94 12.4655 21.2374 13.7488L21.2515 13.7629Z" fill="#4F4F4F"/>
<path d="M56.0425 15.0885C56.2541 14.9616 56.7336 14.7782 57.072 14.4539C58.6092 12.9731 60.1182 11.4641 61.613 9.94107C62.4169 9.10902 62.4733 8.15004 61.7823 7.47312C61.1054 6.7962 60.1464 6.85261 59.3143 7.65645C57.9041 9.0385 56.5079 10.4488 55.1118 11.859C54.8579 12.127 54.5759 12.3949 54.4066 12.7052C53.8002 13.777 54.5759 15.1026 56.0566 15.1026L56.0425 15.0885Z" fill="#4F4F4F"/>
<path d="M24.8336 41.0795C25.7502 41.0936 26.5118 40.5013 26.5823 38.9077C26.6246 37.6808 26.8502 36.4116 27.2733 35.2834C29.3605 29.7552 33.4361 26.8642 39.3169 26.4834C40.4874 26.4129 41.1784 25.7501 41.122 24.7911C41.0797 23.818 40.3464 23.2398 39.1759 23.2539C30.7144 23.3526 23.6067 30.2911 23.3105 38.7667C23.2541 40.2616 23.7618 41.0654 24.8336 41.0795Z" fill="#4F4F4F"/>
</svg>
