<svg width="79" height="79" viewBox="0 0 79 79" fill="none" xmlns="http://www.w3.org/2000/svg">
<path d="M13.5173 42.7166C13.1013 42.3776 12.8701 42.1927 12.639 42.0078C2.40788 34.1187 3.16292 19.4191 10.5127 11.8999C17.3386 4.90447 27.7701 5.48999 33.9642 13.2096C40.2354 21.0216 40.3895 34.7813 30.3895 42.2235C30.2508 42.3314 30.1275 42.4546 29.8039 42.7166C31.8995 42.7166 33.7639 42.7166 35.6437 42.7166C36.4141 42.7166 37.1999 42.7166 37.9704 42.7166C39.1106 42.7166 39.4958 43.1326 39.5112 44.3036C39.6036 51.2836 35.2431 56.2143 28.3093 56.9847C28.1552 57.0001 28.0166 57.0309 27.7547 57.0617C27.9858 59.1265 28.2015 61.1449 28.4326 63.1634C28.9411 67.7551 29.465 72.3314 29.958 76.9231C30.0659 77.8476 29.5728 78.4177 28.6329 78.4177C23.9796 78.4177 19.3263 78.4177 14.6884 78.4177C13.6714 78.4177 13.2399 77.8322 13.3632 76.7536C14.072 70.4362 14.7808 64.1342 15.4742 57.8167C15.505 57.5702 15.4742 57.3391 15.4742 57.108C14.4572 56.9076 13.4403 56.7844 12.4696 56.5224C6.93795 54.9662 3.30158 49.6657 3.79464 43.9492C3.87168 43.071 4.39556 42.7166 5.22761 42.7166C7.6159 42.7166 10.0042 42.7166 12.3925 42.7166C12.6853 42.7166 12.978 42.7166 13.5019 42.7166H13.5173ZM16.6452 41.7458C16.7377 41.6688 16.8147 41.6072 16.9072 41.5301C16.9072 39.9277 16.8609 38.3098 16.9072 36.7073C16.9688 34.8891 18.2477 33.4716 19.958 33.2404C22.6236 32.8706 24.4265 33.7489 25.0582 35.7058C25.1198 35.9061 25.166 36.1218 25.1969 36.3375C25.2893 37.0925 25.1198 37.7088 24.2878 37.9246C23.5636 38.0941 23.0705 37.678 22.8394 36.7381C22.5774 35.6904 22.0998 35.4746 20.4819 35.6133C19.5882 35.6904 19.2646 36.2296 19.2646 37.0617C19.2646 38.6488 19.2955 40.2204 19.2646 41.8075C19.2646 42.3776 19.4804 42.5317 20.0043 42.6087C23.163 43.0555 26.0443 42.3159 28.6637 40.5902C37.693 34.6272 38.4634 19.8352 30.1429 12.6857C25.089 8.35594 18.3247 8.32512 13.24 12.6395C5.30467 19.3729 5.45875 33.2558 13.579 39.7582C14.5189 40.5132 15.6128 41.0987 16.6452 41.7612V41.7458ZM37.1537 45.1973H6.21376C6.22917 45.5825 6.22919 45.8907 6.27541 46.1988C6.41409 47.4931 6.42948 47.4931 7.70838 47.5086C9.17217 47.5086 10.6205 47.4623 12.0843 47.5548C12.485 47.5856 13.0089 47.94 13.2092 48.3098C13.3633 48.5871 13.2246 49.2035 12.9934 49.4654C12.7469 49.7274 12.2384 49.8506 11.8378 49.866C10.4511 49.9123 9.07973 49.8814 7.52348 49.8814C7.78543 50.2975 7.92411 50.5594 8.10901 50.7905C9.97342 53.2251 12.4542 54.581 15.5204 54.6272C19.6499 54.6889 23.7639 54.7351 27.8933 54.5964C29.3263 54.5502 30.8671 54.1342 32.146 53.4716C35.3972 51.7767 36.9997 48.9415 37.1846 45.2281L37.1537 45.1973ZM27.4773 75.9832C26.7685 69.6504 26.0751 63.3792 25.3818 57.0926H17.9857C17.2769 63.4254 16.5836 69.6812 15.8902 75.9832H27.4927H27.4773Z" fill="#4F4F4F"/>
<path d="M44.2877 23.6872C44.2877 19.0956 44.2877 14.5193 44.2877 9.92759C44.2877 7.84746 45.1352 7 47.2153 7C55.582 7 63.9488 7 72.3155 7C74.3802 7 75.2431 7.86287 75.2431 9.94299C75.2431 19.111 75.2431 28.2789 75.2431 37.4469C75.2431 39.4654 74.3802 40.3129 72.3463 40.3129C63.9488 40.3129 55.5512 40.3129 47.1537 40.3129C45.1198 40.3129 44.2877 39.4808 44.2877 37.4315C44.2877 32.8398 44.2877 28.2635 44.2877 23.6718V23.6872ZM61.0366 9.44993V30.7597H72.7624V9.44993H61.0366ZM46.7376 9.46534V30.7443H58.5096V9.46534H46.7376ZM46.7223 37.8783H72.7932V33.2558H46.7223V37.8783Z" fill="#4F4F4F"/>
<path d="M63.3325 66.5379C63.3325 67.108 63.3634 67.5086 63.3325 67.9092C63.2247 69.1419 62.3156 70.0664 61.0829 70.0818C57.8317 70.1126 54.5652 70.128 51.314 70.0818C49.9118 70.0664 49.049 69.0032 49.049 67.4316C49.049 62.5625 49.049 57.6935 49.049 52.8244C49.049 52.2697 49.049 51.7305 49.049 51.1295H46.7377C46.5528 52.054 46.9535 53.4254 45.4589 53.41C44.0413 53.3946 44.3649 52.1003 44.257 51.1758C43.3479 50.96 41.9149 51.3761 41.9612 49.8352C42.0074 48.4023 43.3017 48.7875 44.2108 48.6488C44.4265 47.7705 43.9642 46.3838 45.4589 46.3684C46.9689 46.3529 46.5374 47.7243 46.7223 48.6488H48.9874C49.0028 48.2944 49.0182 48.0016 49.0336 47.6935C49.0952 45.3976 50.5282 43.9646 52.8703 43.9338C55.3818 43.903 57.8934 43.9338 60.4049 43.9338C61.576 43.9338 62.7624 43.9338 63.9334 43.9338C66.6915 43.9338 68.0321 45.259 68.1091 48.017C68.1091 48.2019 68.14 48.3868 68.1554 48.6334H70.3741C70.559 47.6935 70.1738 46.2913 71.7301 46.3684C73.086 46.43 72.7624 47.6627 72.8549 48.618C73.7486 48.8645 75.2586 48.356 75.1661 49.9893C75.0891 51.3761 73.7948 51.0063 72.8857 51.1604C72.7316 52.0849 73.1168 53.3329 71.6376 53.4562C70.8364 53.5178 70.559 52.9477 70.3895 51.1758H68.1399C68.1399 51.5147 68.0937 51.8383 68.0937 52.1619C68.0937 55.9369 68.0937 59.7274 68.0937 63.5024C68.0937 65.7058 67.2463 66.5533 65.0737 66.5533C64.519 66.5533 63.9643 66.5533 63.3017 66.5533L63.3325 66.5379ZM60.9596 67.6473V46.2913C58.4327 46.2913 55.8441 46.2913 53.24 46.2913C51.7608 46.2913 51.4373 46.6303 51.4373 48.0941C51.4373 54.2882 51.4373 60.4824 51.4373 66.6766V67.6627H60.9596V67.6473ZM63.4096 51.0987V64.0571H65.6592V51.0987H63.4096ZM65.7054 48.618C65.7054 47.8167 65.9674 46.9693 65.1199 46.507C64.8118 46.3375 64.2416 46.3375 63.9181 46.507C63.0706 46.9847 63.3633 47.8167 63.3633 48.618H65.69H65.7054Z" fill="#4F4F4F"/>
<path d="M26.6144 14.1032C26.3371 14.5346 26.183 14.889 25.9365 15.1356C21.6684 19.4191 17.4003 23.6872 13.1168 27.9553C12.5004 28.5562 11.807 28.5871 11.314 28.094C10.7901 27.5701 10.7901 26.9229 11.4218 26.2912C15.7054 21.9923 20.0043 17.6779 24.334 13.4252C24.6422 13.1325 25.3047 13.0092 25.7362 13.1017C26.0751 13.1787 26.3063 13.718 26.6144 14.0878V14.1032Z" fill="#4F4F4F"/>
<path d="M19.4495 14.0724C19.1876 14.5039 19.0335 14.8891 18.7716 15.151C17.3232 16.6302 15.844 18.1094 14.3648 19.5578C13.7022 20.2049 12.9935 20.2512 12.485 19.7273C11.9919 19.2188 12.0381 18.5254 12.639 17.9245C14.1336 16.3991 15.6283 14.8582 17.1999 13.4099C17.5081 13.1171 18.1553 13.0247 18.6021 13.1171C18.9103 13.1787 19.126 13.6872 19.4495 14.0724Z" fill="#4F4F4F"/>
<path d="M17.4464 49.8968C17.0766 49.8352 16.5682 49.8968 16.3833 49.6965C16.0751 49.3575 15.7361 48.8028 15.7977 48.4022C15.9672 47.4007 16.8609 47.4931 17.6467 47.4931C18.3709 47.4931 19.1105 47.5856 19.203 48.4176C19.2492 48.8336 18.9256 49.3884 18.6021 49.6965C18.3709 49.9122 17.847 49.8352 17.4618 49.8968H17.4464Z" fill="#4F4F4F"/>
<path d="M63.9488 21.3298C63.6252 21.2989 63.3479 21.3298 63.0705 21.2527C62.408 21.0832 62.069 20.621 62.1769 19.943C62.3155 19.0339 62.9935 18.9106 63.7639 18.9106C64.5806 18.9106 65.4434 18.8644 65.6745 19.9122C65.8132 20.5747 65.4588 21.0524 64.8117 21.2373C64.5189 21.3298 64.2107 21.2989 63.9334 21.3298H63.9488Z" fill="#4F4F4F"/>
<path d="M55.6438 18.7874C56.1368 18.9569 56.6299 19.0031 56.9689 19.2496C57.539 19.6965 57.539 20.3128 57.0768 20.8829C56.5683 21.4838 54.7039 21.5147 54.1646 20.9137C53.6869 20.3744 53.6561 19.7273 54.2108 19.2804C54.5806 18.9877 55.1507 18.9415 55.6438 18.772V18.7874Z" fill="#4F4F4F"/>
</svg>
