<svg width="79" height="79" viewBox="0 0 79 79" fill="none" xmlns="http://www.w3.org/2000/svg">
<path d="M33.5879 30.5601C40.5442 30.5601 47.4879 30.5601 54.4442 30.5601C57.0355 30.5601 59.1614 31.493 60.2935 33.8814C60.7338 34.8143 60.9099 35.9463 60.935 36.9912C61.0105 40.1508 60.9728 43.3103 60.9602 46.4699C60.9602 47.0048 61.0608 47.3407 61.6017 47.6392C62.7464 48.2612 63.3376 49.3061 63.3502 50.5873C63.3628 58.3868 63.3628 66.1738 63.3502 73.9732C63.3502 74.9186 62.9351 75.3416 61.9917 75.3664C60.5073 75.4038 59.0104 75.3913 57.5261 75.3664C56.6833 75.354 56.2178 74.8689 56.2053 74.023C56.1927 73.2269 56.2304 72.4183 56.1549 71.6346C55.9788 69.6941 54.6706 68.4626 52.6957 68.3134C52.4189 68.2885 52.1422 68.3134 51.8529 68.3134C39.6637 68.3134 27.4618 68.3134 15.2726 68.3134C12.2411 68.3134 10.8951 69.6444 10.8951 72.6298C10.8951 74.4708 9.96842 75.3955 8.11509 75.4038C7.15907 75.4038 6.19047 75.4286 5.23446 75.4038C4.17781 75.3664 3.7627 74.9684 3.7627 73.9235C3.7627 66.1862 3.7627 58.4614 3.7627 50.7242C3.7627 49.3683 4.35392 48.2736 5.5741 47.6143C6.08984 47.3407 6.16532 47.0048 6.16532 46.5197C6.15274 43.3601 6.16532 40.2005 6.16532 37.0409C6.16532 33.0604 8.63083 30.5974 12.6562 30.5974C19.6376 30.5849 26.619 30.5974 33.6005 30.5974L33.5879 30.5601ZM60.9476 58.8346C60.9476 56.3467 60.9476 53.9211 60.9476 51.5078C60.9476 49.6544 60.7463 49.4554 58.8595 49.4554C41.9782 49.4554 25.1095 49.4554 8.2283 49.4554C7.88866 49.4554 7.47355 49.3558 7.22197 49.5051C6.81943 49.7415 6.25337 50.1271 6.21563 50.5003C6.08984 51.6696 6.16532 52.8637 6.16532 54.145C6.59301 54.145 6.92007 54.145 7.2597 54.145C8.74405 54.145 10.241 54.145 11.7253 54.145C12.7316 54.145 13.2725 54.6052 13.2474 55.364C13.2222 56.0855 12.7191 56.4836 11.7505 56.496C11.2599 56.496 10.7567 56.496 10.2661 56.496C8.90758 56.496 7.5616 56.496 6.21563 56.496V58.8222H60.9476V58.8346ZM12.0398 47.0297C11.9014 46.7685 11.8134 46.6068 11.7253 46.4575C9.54911 42.6013 12.0775 37.8868 16.5306 37.7127C20.0024 37.5758 23.4743 37.6131 26.9461 37.7127C29.6758 37.7997 31.9275 40.0886 32.2923 42.7506C32.4935 44.2806 32.0658 45.6365 31.2482 46.9924H35.8773C35.7138 46.7187 35.6132 46.5321 35.5125 46.358C33.4244 42.5889 35.9654 37.8992 40.3052 37.7127C43.8022 37.5634 47.3118 37.6007 50.8214 37.7127C53.5888 37.7997 55.8405 40.1508 56.1424 42.8625C56.3059 44.3552 55.8908 45.6863 55.0857 46.9924H58.5072C58.545 46.8182 58.5827 46.7063 58.5827 46.5819C58.5827 43.1735 58.633 39.7651 58.5576 36.3692C58.5198 34.267 57.0103 32.9111 54.7712 32.9111C40.6574 32.8986 26.5436 32.8986 12.4172 32.9111C10.0271 32.9111 8.58052 34.3416 8.55536 36.6926C8.5302 39.9144 8.55536 43.1362 8.55536 46.358C8.55536 46.557 8.60568 46.7685 8.63083 47.0048H12.0649L12.0398 47.0297ZM60.8973 61.2976H6.20305V72.9408H8.51762C8.51762 72.5427 8.50504 72.2193 8.51762 71.8834C8.66857 68.5497 10.7316 66.2982 14.1028 65.9872C15.8261 65.8255 17.5746 65.9126 19.3105 65.9001C30.2041 65.9001 41.0851 65.9001 51.9787 65.9001C56.0543 65.9001 58.4443 68.2138 58.5827 72.2442C58.5827 72.4805 58.633 72.7044 58.6708 72.9408H60.9099V61.2851L60.8973 61.2976ZM45.4878 40.0264C44.8337 40.0264 44.1921 40.0264 43.538 40.0264C42.5443 40.0264 41.5505 40.0015 40.5693 40.0512C38.5944 40.1632 37.1101 41.7057 37.1352 43.584C37.1604 45.4623 38.6573 47.0297 40.6322 47.0546C43.7267 47.1168 46.8212 47.0919 49.9282 47.0795C52.2177 47.0795 53.8404 45.5743 53.8152 43.5218C53.7901 41.4942 52.2302 40.0637 49.9534 40.0388C48.4691 40.0139 46.9847 40.0388 45.4878 40.0388V40.0264ZM21.6125 47.0795C23.1598 47.0795 24.707 47.1043 26.2542 47.0795C28.4179 47.0421 29.9903 45.5245 29.9651 43.5343C29.9525 41.5688 28.4304 40.0761 26.3046 40.0512C23.2101 40.0015 20.1156 40.0139 17.0086 40.0512C14.8198 40.0761 13.2725 41.5937 13.2977 43.584C13.3103 45.5867 14.8827 47.0546 17.0589 47.0919C18.581 47.1168 20.0905 47.0919 21.6125 47.0919V47.0795Z" fill="#4F4F4F"/>
<path d="M71.7027 73.0154C72.47 73.0154 73.1493 73.0154 73.8286 73.0154C74.6085 73.0154 75.1745 73.3264 75.25 74.1474C75.3255 74.8564 74.7468 75.354 73.8286 75.3664C71.6272 75.3913 69.4258 75.3913 67.2245 75.3664C66.2685 75.3664 65.7653 74.8937 65.7779 74.1722C65.7905 73.4508 66.3062 73.0403 67.2622 73.0154C67.9038 73.0029 68.5579 73.0154 69.3252 73.0154V71.9456C69.3252 52.4532 69.3252 32.9733 69.3252 13.4809C69.3252 10.7318 67.9415 9.36346 65.1489 9.35102C64.1552 9.35102 63.1614 9.32614 62.1677 9.35102C60.633 9.41321 59.5512 10.1471 58.8593 11.6274C59.1487 11.6523 59.3499 11.6896 59.5512 11.702C60.6078 11.7642 60.9726 12.1374 60.9852 13.2072C60.9978 14.3143 60.9601 15.4214 61.0104 16.5161C61.0355 16.9141 61.1739 17.3619 61.4129 17.6729C62.6583 19.2776 63.9539 20.8449 65.237 22.4247C65.6269 22.8974 66.0295 23.4572 65.5766 23.9796C65.2747 24.3404 64.6583 24.4523 64.1803 24.6514C64.042 24.7011 63.8659 24.6762 63.7149 24.6514C62.6583 24.5145 61.979 24.7384 61.4255 25.8704C60.633 27.5124 59.048 28.2588 57.1863 28.1717C55.2869 28.0846 53.878 27.1392 53.1232 25.4226C52.8465 24.7882 52.5069 24.6016 51.8779 24.6638C51.5131 24.7011 51.1357 24.6638 50.7584 24.6638C50.1168 24.6638 49.3747 24.6638 49.2237 23.9423C49.1356 23.4572 49.3369 22.7979 49.6388 22.3874C50.7961 20.8325 52.0918 19.3771 53.2616 17.8222C53.5761 17.3992 53.7648 16.7897 53.8025 16.2548C53.8906 15.2472 53.8151 14.2272 53.8277 13.2196C53.8403 12.1125 54.2302 11.6647 55.3246 11.702C56.0668 11.7269 56.3561 11.4781 56.6328 10.794C57.5008 8.57978 59.1612 7.24877 61.589 7.06219C63.0985 6.95023 64.6332 6.92535 66.1427 7.06219C69.2749 7.31097 71.363 9.42565 71.6649 12.523C71.7153 13.0082 71.7027 13.5057 71.7027 13.9909C71.7027 33.2345 71.7027 52.4781 71.7027 71.7093V72.9905V73.0154ZM52.7836 22.2755H61.9916C61.5764 21.753 61.262 21.3549 60.9349 20.9569C59.7189 19.4476 58.1339 18.7303 56.18 18.8049C55.9158 18.8049 55.5636 18.8671 55.4252 19.0288C54.5573 20.0488 53.727 21.1062 52.7836 22.263V22.2755ZM58.5071 16.4041V14.1526H56.2806V16.4041H58.5071ZM55.5133 24.7384C56.1674 26.2436 58.8468 26.1316 59.199 24.7384H55.5133Z" fill="#4F4F4F"/>
<path d="M17.4361 56.6453C16.9203 56.4587 16.4172 56.3965 16.0398 56.1228C15.5115 55.7372 15.5743 54.9535 16.0398 54.5057C16.5681 54.0082 18.304 53.9957 18.8324 54.5057C19.3104 54.9411 19.3733 55.7621 18.8575 56.1353C18.4676 56.4214 17.9141 56.4836 17.4109 56.6577L17.4361 56.6453Z" fill="#4F4F4F"/>
</svg>
