<svg width="79" height="79" viewBox="0 0 79 79" fill="none" xmlns="http://www.w3.org/2000/svg">
<path d="M34.6045 54.6635C34.4233 54.6228 34.3327 54.5903 34.2422 54.5903C32.9411 54.509 32.1231 55.1082 31.7882 56.388C30.8988 59.78 30.0342 63.1801 29.0954 66.5558C28.9719 67.0113 28.5107 67.5563 28.0825 67.7027C27.3167 67.963 26.7897 67.117 27.0449 66.1409C27.9096 62.8059 28.7825 59.479 29.6471 56.144C29.8201 55.4851 29.9848 54.8262 30.1577 54.1592C29.1778 53.7199 28.2143 53.3458 27.3167 52.8659C25.4309 51.8653 23.8828 50.4662 22.697 48.7093C22.3841 48.2456 22.0547 48.0422 21.4782 48.0585C19.8807 48.0992 18.2749 48.0829 16.6691 48.0666C14.8245 48.0504 13.5234 46.8709 13.4905 45.2034C13.4493 43.4952 14.7257 42.2425 16.6197 42.1856C17.8302 42.1449 19.049 42.1856 20.2595 42.1856C20.2924 42.1042 20.3254 42.0229 20.3583 41.9416C20.1524 41.7707 19.9713 41.5674 19.7407 41.4454C18.0937 40.5181 17.4514 38.9726 17.9208 37.183C18.0031 36.8658 17.9208 36.3859 17.7314 36.1337C13.2023 30.4072 13.5646 23.0213 18.6784 17.8317C19.0654 17.4331 19.5101 17.0915 19.823 16.8068C19.7736 16.5627 19.7819 16.5221 19.7654 16.5058C17.7149 14.6349 17.9702 13.1789 20.0289 11.3893C21.0418 10.5108 21.9476 9.51034 22.9028 8.5749C24.3686 7.13514 25.5544 7.11887 27.0449 8.52609C27.2014 8.67251 27.3661 8.81893 27.7696 9.17683C28.2802 8.5749 28.7166 7.91603 29.2848 7.39543C34.5798 2.57183 42.4358 2.54742 47.7719 7.31409C48.2413 7.72894 48.686 8.16005 49.1307 8.60744C50.333 9.82757 50.3412 11.064 49.1636 12.276C48.9907 12.4549 48.8095 12.6258 48.6283 12.8047C40.8053 20.5241 32.9822 28.2516 25.1756 35.9792C24.9368 36.2151 24.8133 36.573 24.6404 36.8658C24.9945 36.9797 25.3486 37.1912 25.7027 37.1993C28.3955 37.2237 31.0965 37.2156 33.921 37.2156C33.921 36.5242 33.9128 35.9141 33.921 35.304C33.9622 33.6446 34.8762 32.6929 36.5644 32.6848C40.7394 32.6604 44.9227 32.6767 49.0977 32.6767C49.8471 32.6767 50.5635 32.8393 50.5718 33.7341C50.58 34.637 49.88 34.8078 49.1224 34.8078C45.1286 34.8078 41.1429 34.7997 37.149 34.8241C36.7949 34.8241 36.1526 34.9787 36.1279 35.1332C36.0291 35.7595 36.095 36.4184 36.1856 37.0447C36.202 37.1342 36.6879 37.2074 36.9514 37.2074C43.144 37.2156 49.3283 37.2074 55.5209 37.2237C56.1467 37.2237 56.4761 37.061 56.402 36.3859C56.3691 36.1093 56.3773 35.8246 56.402 35.548C56.4514 34.9949 56.2291 34.7428 55.6444 34.7916C55.2738 34.8241 54.8209 34.9054 54.5327 34.7428C54.1292 34.515 53.6351 34.1083 53.5775 33.726C53.5363 33.4331 54.0633 32.8475 54.4339 32.7499C57.0031 32.0747 58.543 33.2867 58.5513 35.8815C58.5513 36.2801 58.5513 36.6787 58.5513 37.2156C59.0207 37.2156 59.4242 37.1993 59.8194 37.2156C61.2852 37.2806 62.1252 38.1185 62.2158 39.5501C62.6852 47.0743 58.1478 52.2395 52.7375 53.907C52.6222 53.9396 52.5234 54.0209 52.3505 54.1185C52.7046 55.4688 53.0504 56.811 53.3963 58.1531C54.0963 60.8211 54.788 63.4973 55.5291 66.1572C55.6362 66.5395 55.8997 66.9381 56.2044 67.1903C58.0737 68.752 58.5101 71.2574 57.209 73.2177C55.9738 75.0723 53.4869 75.7637 51.4694 74.812C49.3283 73.7953 48.4389 71.4607 49.1471 69.1506C49.353 68.4836 49.106 67.6783 49.0648 66.8568H47.846C43.4157 66.8568 38.9854 66.873 34.5551 66.8405C33.8139 66.8405 33.5175 67.0764 33.361 67.7597C32.9658 69.419 32.5376 71.0703 32.0682 72.7134C31.5329 74.6005 29.9189 75.5767 28.1319 75.1537C26.3038 74.7144 25.3156 73.0632 25.7356 71.1354C25.8509 70.6229 25.9827 70.1105 26.1474 69.6061C26.345 69.0286 26.7814 68.7439 27.3908 68.8984C28.0496 69.0611 28.2719 69.5492 28.1484 70.1837C28.0743 70.5822 27.9425 70.9645 27.8602 71.355C27.6379 72.323 27.8931 72.9005 28.6013 73.1039C29.2766 73.2909 29.8448 72.8598 30.0918 71.9244C30.8082 69.1913 31.5164 66.4582 32.2246 63.7251C33.0069 60.7235 33.7975 57.7301 34.6045 54.6554V54.6635ZM48.0025 10.3888C47.4178 9.84384 46.9155 9.37205 46.4132 8.9084C41.9252 4.83315 35.1974 4.75994 30.7671 8.9084C26.9873 12.4468 23.2981 16.0991 19.7077 19.8327C15.8703 23.8266 15.7056 30.1876 19.1313 34.4418C19.4689 34.8566 19.7324 35.1007 20.3665 34.8892C20.9265 34.7021 21.6512 34.6777 22.2029 34.8648C22.9193 35.1088 23.2816 34.8566 23.7346 34.4093C31.5659 26.6573 39.4054 18.9135 47.2449 11.1697C47.459 10.9582 47.6649 10.7223 47.9943 10.3807L48.0025 10.3888ZM60.05 39.3142H58.7736C47.8707 39.3142 36.9679 39.3142 26.065 39.3061C25.2827 39.3061 24.5827 39.2654 24.2781 40.209C24.1792 40.5262 23.8416 40.8922 23.5205 41.0061C22.1452 41.5023 22.4005 42.4784 22.6805 43.4871C22.8452 44.0809 23.0511 44.6665 23.2158 45.2685C23.364 45.8053 23.6769 45.968 24.2451 45.968C35.5844 45.9517 46.9237 45.9517 58.2713 45.968C58.856 45.968 59.0948 45.7403 59.2924 45.2441C60.0253 43.3813 60.19 41.4616 60.0418 39.3142H60.05ZM57.6043 48.1317H24.9862C26.7238 50.4744 29.7789 52.2802 32.7434 52.3534C38.1702 52.4917 43.6051 52.4998 49.0319 52.4185C52.474 52.3697 55.2903 50.8567 57.6125 48.1317H57.6043ZM45.6885 54.574H38.6231C37.4153 54.574 36.6687 55.1407 36.3832 56.2741C36.0373 57.6081 35.6997 58.9421 35.3539 60.3005H47.1873C46.6767 58.3646 46.1991 56.51 45.6885 54.574ZM48.3401 64.7256C48.1672 64.0586 48.0849 63.5054 47.8708 63.0093C47.7719 62.7734 47.4178 62.4968 47.179 62.4887C43.2263 62.4561 39.2819 62.4643 35.3292 62.4805C35.115 62.4805 34.7692 62.6107 34.7198 62.7571C34.5057 63.3753 34.3739 64.026 34.201 64.7256H48.3401ZM47.9202 54.6798C48.9824 58.7144 50.0365 62.7408 51.0988 66.7754C51.8893 66.5558 52.5728 66.3687 53.3057 66.1653C52.4411 62.8791 51.5764 59.6173 50.72 56.3554C50.3631 54.9997 49.4299 54.4412 47.9202 54.6798ZM55.8009 70.8588C55.842 69.4922 54.8209 68.4023 53.4539 68.3779C52.1281 68.3534 51.0494 69.3621 51.0082 70.6636C50.967 72.022 52.0046 73.1283 53.3551 73.1608C54.648 73.1933 55.7597 72.144 55.8009 70.8507V70.8588ZM25.1509 9.68929C23.5863 11.2348 22.0958 12.7071 20.5559 14.2282C20.7618 14.4397 21.0582 14.7488 21.2971 15.001C22.8534 13.4636 24.3686 11.9669 25.9415 10.4051C25.678 10.1692 25.3403 9.86824 25.1427 9.68929H25.1509ZM21.2394 45.9436C20.8194 45.2685 21.1488 44.3574 20.1936 44.3086C18.9748 44.2517 17.7479 44.2436 16.5291 44.333C16.2162 44.3574 15.928 44.813 15.6315 45.0651C15.928 45.3579 16.2162 45.8785 16.5291 45.9029C18.0196 45.9924 19.5266 45.9436 21.2394 45.9436ZM22.7876 38.273C22.7958 37.4921 22.1617 36.8658 21.3712 36.8577C20.5642 36.8577 19.9383 37.4596 19.9301 38.2486C19.9301 39.0295 20.5559 39.6721 21.3465 39.6802C22.1205 39.6802 22.7876 39.0376 22.7958 38.273H22.7876Z" fill="#4F4F4F"/>
<path d="M41.5807 29.8528C41.6219 29.5762 41.6054 29.4949 41.6384 29.4542C42.6595 28.2829 41.9678 27.3556 41.2925 26.3225C40.5843 25.2407 40.8396 23.7358 41.6713 22.7597C42.0995 22.2554 42.6018 21.9707 43.2194 22.4099C43.8206 22.8248 43.8371 23.3861 43.4171 23.9473C42.8736 24.6713 43.0465 25.2976 43.5653 25.9646C44.677 27.38 44.6358 29.2996 43.4336 30.3408C43.1453 30.5849 42.5689 30.6743 42.1901 30.5849C41.9019 30.5117 41.7207 30.0317 41.5807 29.8528Z" fill="#4F4F4F"/>
<path d="M49.0166 23.1176C48.8683 23.4674 48.8107 23.7196 48.6625 23.9066C48.0613 24.6631 48.259 25.2976 48.8189 25.989C49.8236 27.2335 49.8483 28.8441 48.9589 30.0317C48.5307 30.6011 48.0119 31.0322 47.2955 30.536C46.6532 30.0968 46.7108 29.4949 47.1473 28.9173C47.7237 28.1608 47.3861 27.5589 46.8838 26.9163C45.8215 25.5416 45.8873 23.6463 47.0649 22.6133C47.3367 22.3774 47.8719 22.2473 48.226 22.3286C48.5389 22.4018 48.7531 22.8411 49.0083 23.1095L49.0166 23.1176Z" fill="#4F4F4F"/>
<path d="M54.221 23.1095C54.0645 23.4755 54.0151 23.7277 53.8751 23.9148C53.2822 24.6713 53.4881 25.3058 54.0398 25.9972C55.0527 27.258 55.0774 28.8442 54.1716 30.0399C53.7434 30.6011 53.2328 31.0323 52.5082 30.5361C51.8576 30.0887 51.9235 29.4949 52.3599 28.9174C52.9034 28.2097 52.6482 27.6159 52.1623 26.9977C51.0671 25.5986 51.1 23.6382 52.2858 22.6133C52.5576 22.3774 53.0928 22.2554 53.4469 22.3368C53.7516 22.41 53.974 22.8411 54.221 23.1095Z" fill="#4F4F4F"/>
</svg>
