<svg width="79" height="79" viewBox="0 0 79 79" fill="none" xmlns="http://www.w3.org/2000/svg">
<path d="M31.4752 48.1688C32.7845 48.0365 34.041 47.9175 35.4165 47.7852C35.4165 47.2959 35.4165 46.7933 35.4165 46.2775C35.4694 43.5529 35.2975 40.8019 35.6546 38.1171C36.2233 33.8319 40.0059 30.5254 44.3308 30.446C50.4941 30.3402 56.6706 30.327 62.8339 30.446C67.7143 30.5386 71.6159 34.6254 71.7482 39.5322C71.8143 42.2568 71.7482 44.9813 71.7482 47.9043C72.3434 47.9043 72.8724 47.9043 73.4147 47.9043C76.3773 47.9439 78.4537 49.9675 78.4802 52.9037C78.5066 57.6518 78.5066 62.3999 78.4802 67.148C78.467 70.0313 76.3905 72.0813 73.5205 72.1474C70.2007 72.2268 69.8966 72.1474 67.9127 70.9174C66.6827 72.2929 64.9765 72.1474 63.2836 72.1474C56.5119 72.1474 49.7534 72.121 42.9818 72.1474C41.5798 72.1474 40.3101 71.949 39.1462 70.8645C37.6782 72.2665 35.8265 72.1474 33.9881 72.1342C30.6816 72.1077 28.6581 70.1239 28.6581 66.8306C28.6581 59.5828 28.6581 52.3217 28.6581 45.0739C28.6581 39.7306 28.6581 34.3874 28.6581 29.0308V27.695H19.0957C19.638 21.8095 20.1538 16.0562 20.6828 10.25H39.3049C39.834 16.0165 40.363 21.7963 40.9053 27.6686H31.4355V48.1556L31.4752 48.1688ZM66.352 53.2343C66.352 51.1446 67.0927 49.7294 68.574 48.6581C68.8385 48.4598 69.0501 47.9968 69.0501 47.653C69.0898 44.9946 69.1162 42.3494 69.0501 39.691C68.9707 36.0274 66.1139 33.1441 62.4636 33.1044C56.5516 33.0515 50.6528 33.0515 44.7408 33.1044C41.0243 33.1309 38.1807 36.0538 38.1146 39.7703C38.0749 42.389 38.0882 45.0078 38.1146 47.6133C38.1146 47.9307 38.2469 48.3936 38.4849 48.5523C40.0588 49.6236 40.8127 51.1182 40.8392 53.1814C42.9024 51.6472 45.1773 51.9117 47.3992 51.9117C51.6977 51.9117 55.9961 51.9117 60.2945 51.9117C62.3445 51.9117 64.421 51.7662 66.3388 53.2079L66.352 53.2343ZM37.9691 24.9573C37.612 20.9233 37.2549 16.9688 36.8978 13.001H23.1825C22.8254 17.0349 22.4816 20.9895 22.1245 24.9573H37.9691ZM40.8127 62.7835C40.8127 64.4367 40.8127 66.037 40.8127 67.6242C40.8127 68.9996 41.2624 69.4361 42.6114 69.4493C44.9657 69.4493 47.3199 69.4493 49.6741 69.4493C54.647 69.4493 59.6068 69.4493 64.5798 69.4493C65.3998 69.4493 66.2462 69.2906 66.2991 68.4045C66.4181 66.5264 66.3388 64.6351 66.3388 62.7702H40.8127V62.7835ZM40.8921 59.9399H66.3388C66.6033 56.4086 64.9765 54.6495 61.551 54.6363C56.2474 54.6363 50.9438 54.6363 45.6402 54.6363C42.2279 54.6363 40.5614 56.4747 40.8921 59.9399ZM75.8086 60.0721C75.8086 58.1676 75.8086 56.2631 75.8086 54.3585C75.8086 50.9727 75.425 50.6024 71.9995 50.6024C69.8437 50.6024 69.0898 51.343 69.0898 53.4856C69.0898 57.4402 69.0898 61.408 69.0898 65.3625C69.0898 69.1848 69.4337 69.5155 73.2427 69.4493C74.9621 69.4229 75.7953 68.6161 75.8086 66.91C75.8218 64.6351 75.8086 62.3602 75.8086 60.0721ZM31.3826 59.9531C31.3826 61.7386 31.4487 63.5373 31.3694 65.3228C31.1842 69.37 32.2687 69.5551 35.6149 69.4493C37.2549 69.3964 38.1014 68.5896 38.1014 66.9496C38.1146 62.3602 38.1146 57.7708 38.1014 53.1814C38.1014 51.5149 37.2814 50.7214 35.6414 50.6553C35.0859 50.6288 34.5171 50.6156 33.9617 50.6156C32.2555 50.6156 31.3958 51.4224 31.3826 53.1285C31.3694 55.4034 31.3826 57.6782 31.3826 59.9531Z" fill="#4F4F4F"/>
<path d="M3.11873 65.4948C3.11873 66.6587 3.11873 67.7432 3.11873 68.8277C3.11873 69.9122 3.11873 70.9174 3.11873 72.0548H0.5V49.293H8.06524C7.15265 46.1055 6.29295 43.0503 5.40681 39.9158C5.81682 39.8629 6.17393 39.8232 6.67651 39.7571C4.05778 37.1648 2.92035 34.1361 3.17165 30.4857C5.30102 30.2079 7.31136 30.618 9.3217 31.4909C9.94332 28.9515 11.2262 26.8882 13.2234 25.1953C15.2337 26.8221 16.5298 28.8986 17.0985 31.2528C19.1353 30.8825 21.1193 30.5254 23.2486 30.1418C23.5793 33.9906 22.5344 37.0458 19.9289 39.6909C20.3521 39.7835 20.6696 39.8497 21.0531 39.9158C20.167 43.0107 19.3073 46.0526 18.4079 49.2004H25.9467V72.0416H23.3677V65.4683H3.14519L3.11873 65.4948ZM23.2486 52.0308H3.21132V62.6644H23.2486V52.0308ZM8.9646 42.5742C9.26879 43.672 9.54654 44.6771 9.83751 45.6823C10.1946 46.8462 10.2343 48.4862 11.0278 49.0417C11.8875 49.6369 13.4614 49.2269 14.7179 49.2533C14.8237 49.2533 14.9692 49.293 15.0485 49.2533C15.2734 49.1078 15.5908 48.9756 15.6569 48.7639C16.2653 46.7404 16.834 44.7036 17.4424 42.5874H8.9646V42.5742ZM13.2234 29.2689C11.332 31.7818 11.3982 36.5035 13.3027 38.1567C15.0882 35.3661 15.075 31.9538 13.2234 29.2689ZM20.5373 33.1706C19.8231 33.3822 19.3205 33.4351 18.9237 33.6731C18.3418 34.017 17.5615 34.3741 17.3498 34.9164C16.8605 36.1596 16.6621 37.5351 16.3315 38.9238C18.5402 37.6938 19.9289 35.9083 20.5373 33.1838V33.1706ZM10.1946 38.9503C9.85075 37.7996 9.52009 36.8606 9.28203 35.8819C8.87202 34.1493 7.90653 33.3689 5.97554 33.3822C6.5178 35.8686 7.93298 37.6409 10.1946 38.9371V38.9503Z" fill="#4F4F4F"/>
<path d="M16.5563 56.0515V58.5908H9.93018V56.0515H16.5563Z" fill="#4F4F4F"/>
</svg>
