<svg width="79" height="79" viewBox="0 0 79 79" fill="none" xmlns="http://www.w3.org/2000/svg">
<path d="M35.9858 66.9677V59.0868C35.6088 59.0868 35.2684 59.0868 34.9279 59.0868C30.5382 59.0868 26.1485 59.0989 21.7709 59.0868C19.193 59.0746 17.5271 56.7395 18.3905 54.4166C18.9133 53.018 20.178 52.1788 21.856 52.1666C26.951 52.1666 32.046 52.1666 37.1288 52.1666C37.4814 52.1666 37.8341 52.1666 38.3448 52.1666C38.3448 51.8261 38.3448 51.5221 38.3448 51.2302C38.3448 44.6263 38.3448 38.0345 38.357 31.4306C38.357 30.7495 38.1746 30.4333 37.5179 30.2022C31.0002 28.0009 24.4947 25.7631 17.9892 23.5496C17.5758 23.4037 17.1137 23.355 16.6759 23.355C12.8699 23.3429 9.05169 23.3429 5.24565 23.355C4.57686 23.355 3.90806 23.1969 3.85942 22.4915C3.8351 22.0415 4.16342 21.3483 4.55254 21.1051C13.0158 15.8146 21.5885 10.6945 30.6841 6.53508C32.6297 5.64726 34.6604 4.95403 36.6789 4.22431C38.588 3.53108 40.4971 3.64054 42.4305 4.24864C47.2823 5.76888 51.8179 8.031 56.232 10.4877C62.2997 13.8687 68.2581 17.4443 74.265 20.9348C74.3502 20.9835 74.4353 21.0321 74.5082 21.0807C75.0433 21.4213 75.481 21.9321 75.1405 22.4915C74.8973 22.8929 74.2772 23.2942 73.8151 23.2942C69.851 23.355 65.8747 23.3185 61.8985 23.3429C61.3634 23.3429 60.8041 23.428 60.3055 23.5983C54.0189 25.7874 47.7444 28.0131 41.4699 30.2144C41.0078 30.3725 40.6309 30.4698 40.6309 31.1387C40.6552 37.9615 40.6552 44.7844 40.6552 51.6072C40.6552 51.7653 40.6795 51.9112 40.7038 52.1545C41.0929 52.1545 41.4334 52.1545 41.786 52.1545C46.9418 52.1545 52.0976 52.1423 57.2534 52.1545C59.8191 52.1545 61.485 54.5139 60.6095 56.849C60.0988 58.2233 58.8342 59.0625 57.2291 59.0746C52.8758 59.0746 48.5226 59.0746 44.1572 59.0746C43.8046 59.0746 43.4641 59.0746 43.0385 59.0746V66.6515C43.5614 67.4542 44.0478 68.0258 44.3396 68.6704C45.0084 70.1906 45.6042 71.7474 46.2122 73.3041C46.6986 74.5446 46.2366 75.2135 44.8868 75.2257C41.2996 75.2257 37.7125 75.2257 34.1253 75.2257C32.7877 75.2257 32.3257 74.5446 32.8121 73.3041C33.4444 71.6622 34.0767 70.0204 34.782 68.4028C35.013 67.8677 35.4751 67.4177 35.8277 66.9312C35.8885 66.9312 35.9493 66.9434 36.0101 66.9556L35.9858 66.9677ZM69.5956 20.9956L69.6686 20.8375C69.1336 20.5091 68.5985 20.1808 68.0513 19.8646C60.6946 15.5227 53.265 11.3026 45.4705 7.76343C41.5915 5.99995 37.8462 5.52564 33.9794 7.60533C33.8335 7.6783 33.6876 7.73911 33.5417 7.79992C25.1878 11.4363 17.3569 16.0579 9.53808 20.6916C9.42864 20.7524 9.27056 20.7402 9.14897 20.7645C9.22192 20.8497 9.29488 20.9348 9.38 21.0199H69.5956V20.9956ZM39.4878 54.4774C38.2354 54.4774 36.9951 54.4774 35.7426 54.4774C31.134 54.4774 26.5254 54.4774 21.9168 54.4774C20.9927 54.4774 20.4333 54.9274 20.482 55.645C20.5428 56.472 21.09 56.7882 21.8682 56.776C22.0263 56.776 22.1843 56.776 22.3424 56.776C33.7727 56.776 45.1908 56.776 56.6211 56.776C56.9372 56.776 57.3263 56.8611 57.5574 56.7152C57.9222 56.4841 58.3843 56.095 58.4207 55.7301C58.4572 55.3774 58.0924 54.8788 57.7641 54.6112C57.5452 54.4288 57.0953 54.4774 56.7548 54.4774C50.9911 54.4774 45.2394 54.4774 39.4757 54.4774H39.4878ZM35.4872 72.8419H43.5127C43.1115 71.8203 42.771 70.8839 42.3576 69.996C42.2481 69.7528 41.859 69.5096 41.5915 69.5096C40.1809 69.4609 38.7704 69.4731 37.372 69.5096C37.141 69.5096 36.7883 69.6798 36.7032 69.8623C36.2655 70.8474 35.8885 71.8568 35.4994 72.8663L35.4872 72.8419ZM38.3813 67.1015H40.5701V59.1719H38.3813V67.1015ZM33.8092 26.505C33.8092 26.505 33.87 26.4077 33.8943 26.359C32.7999 25.4104 31.7055 24.4618 30.599 23.5131C30.4895 23.4158 30.3193 23.3429 30.1734 23.3429C28.4953 23.3429 26.8294 23.3429 25.1513 23.3429C25.1513 23.4037 25.127 23.4645 25.1149 23.5253C28.0089 24.5226 30.9151 25.5077 33.8092 26.505ZM45.2273 26.2374C45.2273 26.2374 45.2881 26.3469 45.3124 26.4077C48.0362 25.4469 50.7722 24.4861 53.496 23.5253C51.976 23.3429 50.5047 23.3307 49.0333 23.355C48.7658 23.355 48.4618 23.4645 48.2551 23.6226C47.2215 24.4739 46.2244 25.3617 45.2151 26.2496L45.2273 26.2374ZM40.6917 23.3794V27.1009C42.1508 25.8361 43.4884 24.6807 44.9841 23.3794H40.6917ZM33.9916 23.3794C35.5116 24.6928 36.837 25.8482 38.284 27.0887V23.3794H33.9916Z" fill="#4F4F4F"/>
<path d="M51.1978 68.9014C50.7114 67.7582 50.0791 66.8096 49.921 65.8001C49.5562 63.4286 51.4897 61.4097 54.0067 61.3975C58.2019 61.3732 62.3971 61.3732 66.5922 61.3975C67.2975 61.3975 67.5772 61.1665 67.7839 60.5219C69.4133 55.572 71.067 50.6221 72.7208 45.6722C72.7937 45.4654 72.8545 45.2465 72.9275 45.0397C73.1707 44.3465 73.6328 43.9087 74.3867 44.1519C75.1649 44.3952 75.3838 44.9789 75.1284 45.7573C73.2437 51.4004 71.3589 57.0436 69.4984 62.6989C69.2309 63.5259 68.6472 63.7083 67.869 63.7083C63.455 63.6961 59.0288 63.7083 54.6147 63.7083C54.3229 63.7083 54.0311 63.6961 53.7514 63.7326C52.8516 63.8421 52.2071 64.5475 52.1949 65.411C52.1828 66.3109 52.8394 67.0407 53.7757 67.1501C54.0554 67.1866 54.3472 67.1623 54.6391 67.1623C59.3814 67.1623 64.1116 67.1623 68.8539 67.1623C71.5534 67.1623 72.9275 68.0866 73.9246 70.5676C74.3016 71.5163 74.6785 72.477 75.0676 73.4135C75.3716 74.1432 75.2865 74.7392 74.5326 75.1162C73.8881 75.4324 73.2801 75.1162 72.9153 74.2405C72.4776 73.2068 72.0641 72.173 71.6629 71.1271C71.2251 70.0082 70.4347 69.4609 69.2309 69.4731C64.525 69.4731 59.8192 69.4731 55.1133 69.4731C54.0067 69.4731 53.2285 69.9474 52.7421 70.9446C52.1828 72.1 51.5991 73.2311 51.0276 74.3743C50.6871 75.0554 50.1885 75.4446 49.4103 75.104C48.7294 74.8121 48.5713 74.1432 48.9847 73.3041C49.7508 71.7595 50.5412 70.2271 51.2221 68.9014H51.1978Z" fill="#4F4F4F"/>
<path d="M27.6441 68.6217C28.4588 70.2271 29.2492 71.7838 30.0396 73.3527C30.3922 74.046 30.3679 74.6905 29.6262 75.0797C28.8722 75.4811 28.3372 75.104 27.9846 74.4108C27.4009 73.2676 26.8172 72.1244 26.27 70.9812C25.7715 69.9474 24.9689 69.4609 23.8259 69.4609C19.1565 69.4731 14.475 69.4609 9.80557 69.4609C8.56527 69.4609 7.75056 70.0082 7.30064 71.1636C6.89937 72.2095 6.47377 73.2433 6.04818 74.277C5.75634 74.9946 5.26994 75.4324 4.49171 75.1162C3.72564 74.8122 3.59188 74.1919 3.89588 73.45C4.35795 72.319 4.77139 71.1757 5.25778 70.069C6.09681 68.1353 7.59248 67.1501 9.69613 67.1501C14.6574 67.1501 19.6186 67.1501 24.5798 67.1258C25.127 67.1258 25.8323 67.0164 26.1606 66.6637C26.5254 66.2623 26.8172 65.4596 26.6591 64.9853C26.4889 64.4624 25.808 64.0732 25.2729 63.7448C25.0176 63.5867 24.5798 63.6962 24.2393 63.6962C19.8861 63.6962 15.5329 63.6718 11.1796 63.7083C10.2312 63.7083 9.70829 63.3799 9.41646 62.4678C7.6168 56.9706 5.7685 51.4734 3.94452 45.9762C3.62836 45.0154 3.8594 44.383 4.55251 44.1398C5.23346 43.9087 5.80498 44.2979 6.13329 45.2587C7.82352 50.3302 9.53806 55.3896 11.1918 60.4732C11.4228 61.1665 11.7025 61.4097 12.4564 61.3976C16.4935 61.3611 20.5184 61.3976 24.5555 61.3732C26.4646 61.3611 27.9724 61.9935 28.7628 63.7935C29.5532 65.5813 29.1033 67.1623 27.7171 68.5123C27.6806 68.5488 27.6684 68.6217 27.6684 68.6217H27.6441Z" fill="#4F4F4F"/>
<path d="M39.0257 7.17969C39.9985 7.17969 40.4971 7.47157 40.6065 8.18913C40.7038 8.85803 40.3268 9.25938 39.7067 9.46613C37.4206 10.2567 35.1467 11.0593 32.8728 11.8499C32.5202 11.9715 32.0946 12.1782 31.7906 12.0809C31.4258 11.9472 31.0124 11.5701 30.9029 11.2174C30.8057 10.9134 31.0124 10.281 31.2677 10.1472C33.8091 8.79722 36.4357 7.654 39.0136 7.17969H39.0257Z" fill="#4F4F4F"/>
<path d="M29.6747 12.8714C29.5774 13.0174 29.4558 13.4066 29.2005 13.5647C28.556 13.9782 27.8872 14.3917 27.1576 14.5741C26.7928 14.6714 26.0997 14.3552 25.9173 14.0268C25.7349 13.6985 25.8565 12.9201 26.1362 12.7012C26.7685 12.2025 27.5467 11.8377 28.325 11.5701C29.0181 11.339 29.6747 11.9593 29.6626 12.8593L29.6747 12.8714Z" fill="#4F4F4F"/>
</svg>
