<svg width="79" height="79" viewBox="0 0 79 79" fill="none" xmlns="http://www.w3.org/2000/svg">
<g clip-path="url(#clip0_981_2115)">
<path d="M39.9119 38.6634C39.9119 35.7545 39.9119 32.8456 39.9119 29.9366C39.9119 27.4911 40.298 26.9505 42.6406 26.204C42.6406 26.0753 42.7178 25.8951 42.6921 25.7664C41.9455 22.5743 44.4168 21.5188 46.4505 20.2317C47.0941 19.8198 47.8149 20 48.2267 20.7208C48.6386 21.4159 48.5356 22.0594 47.8921 22.5485C47.5574 22.806 47.197 23.0376 46.8366 23.2436C45.8241 23.9129 45.4036 24.8654 45.5752 26.101C47.7376 26.7188 48.2267 27.3881 48.2267 29.7307C48.2267 32.5366 48.201 35.3426 48.2525 38.1485C48.2525 38.5862 48.5356 39.1525 48.8703 39.4357C49.7713 40.2337 50.2604 41.1604 50.2861 42.3446C50.2861 42.8852 50.2861 43.4 50.2861 43.9921H52.7832C52.7832 43.3228 52.7832 42.6792 52.7832 42.0357C52.7832 38.5862 52.7832 35.1109 52.7832 31.6614C52.7832 29.3961 53.8644 28.3406 56.0782 28.3149C57.2366 28.3149 58.3951 28.3149 59.5277 28.3149C61.4327 28.3664 62.5396 29.4475 62.5653 31.3525C62.5911 34.802 62.5653 38.2772 62.6168 41.7267C62.6168 42.3446 62.9257 43.0911 63.3376 43.503C67.9198 48.1109 72.5277 52.6673 77.1614 57.2238C78.2168 58.2535 78.8604 59.3347 78.2683 60.802C77.6505 62.2436 76.4663 62.7584 74.9218 62.7327C71.3951 62.6812 67.8426 62.7584 64.3158 62.6812C63.6465 62.6812 62.8228 62.3208 62.3337 61.8317C59.6822 59.2832 57.0822 56.6317 54.4822 54.0317C53.401 52.9505 52.0281 52.5043 50.3634 52.6931V53.9287C50.698 54.0317 51.0842 54.1347 51.4446 54.2634C55.6921 55.705 58.2406 59.798 57.6485 64.2515C57.1079 68.4475 53.4267 71.7941 49.0505 72.0515C48.9475 72.0515 48.8188 72.0515 48.7158 72.0515C35.6644 72.0515 22.5871 72.0772 9.53564 72.0515C5.21089 72.0515 1.5297 68.9109 0.705941 64.8178C-0.169307 60.4931 1.86436 56.4515 5.90594 54.598C6.62673 54.2634 6.7297 53.8515 6.7297 53.1822C6.7297 43.9149 6.7297 34.6733 6.7297 25.406C6.7297 22.0852 8.17129 20.6436 11.5178 20.6436C16.6149 20.6436 21.7376 20.6693 26.8347 20.6436C29.5891 20.6436 31.4168 21.8792 32.5495 24.299C34.6604 28.7782 36.7713 33.2574 38.9079 37.7366C39.0881 38.097 39.3455 38.4317 39.5772 38.7921C39.7059 38.7406 39.8089 38.6891 39.9376 38.6376L39.9119 38.6634ZM47.4287 53.8V48.2139C45.395 48.1109 43.3614 48.497 41.6366 47.0555C39.9119 45.5881 39.8347 43.6317 39.8604 41.6238H9.53564V53.8H47.4287ZM29.203 56.6574C22.896 56.6574 16.5891 56.6574 10.3079 56.6574C9.53564 56.6574 8.76337 56.6832 8.01683 56.8634C5.00495 57.6357 2.94555 60.6218 3.30594 63.6337C3.69208 66.8772 6.39505 69.3228 9.79307 69.3228C22.6644 69.3228 35.5356 69.3228 48.4069 69.3228C52.1911 69.3228 54.9455 66.5168 54.9713 62.8871C54.997 59.8495 52.5 56.503 48.3297 56.5802C41.9455 56.7089 35.5871 56.606 29.203 56.606V56.6574ZM9.48416 38.6891H36.2564C34.0426 34.004 31.9059 29.4218 29.7178 24.8654C29.2802 23.9386 28.4307 23.4753 27.3495 23.4753C26.1139 23.4753 24.904 23.4753 23.6683 23.4753C19.4723 23.4753 15.302 23.4753 11.1059 23.4753C10.1792 23.4753 9.48416 23.7584 9.48416 24.7881C9.48416 29.3961 9.48416 34.004 9.48416 38.6891ZM55.4604 31.1208C55.4347 31.404 55.4089 31.5584 55.4089 31.7129C55.4089 37.8911 55.4089 44.0693 55.4089 50.2475C55.4089 50.6852 55.6921 51.2 56.001 51.5089C58.5752 54.1347 61.1752 56.7604 63.8267 59.3347C64.1614 59.6693 64.7535 59.901 65.2168 59.901C68.4347 59.9525 71.6782 59.9268 74.896 59.901C75.1277 59.901 75.3594 59.8238 75.9 59.7466C75.3079 59.2574 74.896 58.9485 74.5614 58.5881C69.9277 54.006 65.2941 49.398 60.6347 44.8159C59.9396 44.1466 59.6564 43.4515 59.6822 42.499C59.7337 39.1267 59.6822 35.7545 59.6822 32.3565C59.6822 31.9446 59.6822 31.5327 59.6822 31.0693H55.4604V31.1208ZM42.7693 29.1644V38.7149H45.3693V29.1644H42.7693ZM47.5059 45.3307C47.5059 44.404 47.6089 43.503 47.4545 42.6535C47.3772 42.2416 46.8881 41.6495 46.5277 41.6238C45.2921 41.4951 44.0307 41.5723 42.795 41.5723C42.2287 44.8673 43.3614 45.7941 47.4802 45.3307H47.5059ZM50.3376 49.6297H52.5515V46.901H50.3376V49.6297Z" fill="#4F4F4F"/>
<path d="M15.7139 51.3802C14.9158 51.3802 14.0921 51.406 13.2941 51.3802C12.4446 51.3287 11.9554 50.8396 11.9812 49.9644C12.0069 49.1406 12.4703 48.6773 13.2941 48.6515C14.9416 48.6258 16.5891 48.6258 18.2366 48.6515C19.0604 48.6515 19.5238 49.1664 19.5495 49.9644C19.5753 50.8396 19.1119 51.3545 18.2366 51.3802C17.3871 51.4317 16.5376 51.3802 15.7139 51.3802Z" fill="#4F4F4F"/>
<path d="M15.7653 46.6436C14.9158 46.6436 14.0663 46.6436 13.2426 46.6436C12.4703 46.6179 12.0584 46.1802 12.0069 45.408C11.9554 44.5842 12.3416 43.9921 13.1396 43.9664C14.8901 43.8891 16.6663 43.8891 18.4168 43.9664C19.2149 43.9921 19.6267 44.6099 19.5495 45.4337C19.498 46.1802 19.0604 46.6436 18.2881 46.6693C17.4386 46.6951 16.6149 46.6693 15.7653 46.6693V46.6436Z" fill="#4F4F4F"/>
<path d="M27.0406 62.8871C27.0406 65.2297 24.9554 67.2891 22.6129 67.2891C20.2703 67.2891 18.2109 65.2297 18.2109 62.8614C18.2109 60.4158 20.2703 58.3564 22.6901 58.4079C25.0841 58.4594 27.0663 60.4673 27.0406 62.8614V62.8871ZM24.2604 62.9901C24.2604 62.1663 23.4624 61.3683 22.6386 61.3683C21.7891 61.3683 20.9653 62.2178 20.9911 63.0931C21.0426 63.9683 21.7634 64.6376 22.6643 64.6119C23.5653 64.6119 24.2604 63.8654 24.2346 62.9901H24.2604Z" fill="#4F4F4F"/>
<path d="M39.7574 62.8871C39.7574 65.2555 37.698 67.2891 35.3297 67.2891C32.9871 67.2891 30.9277 65.204 30.9277 62.8614C30.9277 60.4416 33.0129 58.3822 35.4327 58.4337C37.8525 58.4852 39.7832 60.4931 39.7574 62.9129V62.8871ZM36.9515 62.9644C36.9515 62.1149 36.1535 61.3426 35.3297 61.3426C34.4802 61.3426 33.6307 62.2436 33.6822 63.0673C33.7337 63.9169 34.506 64.6119 35.3812 64.5862C36.2822 64.5604 36.9515 63.8654 36.9515 62.9644Z" fill="#4F4F4F"/>
<path d="M10.0762 58.4079C12.4446 58.4079 14.4782 60.4673 14.4782 62.8357C14.4782 65.204 12.3159 67.3406 9.94754 67.2634C7.60496 67.2119 5.5713 65.101 5.62278 62.7584C5.64853 60.3901 7.70793 58.3822 10.0762 58.3822V58.4079ZM11.6723 63.0159C11.6723 62.2178 10.8485 61.3683 10.0505 61.3683C9.201 61.3683 8.3515 62.2178 8.37724 63.0673C8.40298 63.9169 9.17526 64.6376 10.0505 64.6119C10.9258 64.6119 11.6723 63.8654 11.6723 63.0159Z" fill="#4F4F4F"/>
<path d="M43.5416 63.0416C43.5416 60.6218 45.4466 58.6138 47.8406 58.5881C50.2347 58.5366 52.3456 60.6218 52.3456 63.0158C52.3456 65.3584 50.2862 67.3921 47.9179 67.3921C45.4723 67.3921 43.5416 65.4614 43.5159 63.0416H43.5416ZM49.7198 62.9901C49.7198 62.1406 48.9733 61.3683 48.1238 61.3425C47.3 61.3425 46.4763 62.1148 46.4248 62.9128C46.3733 63.7881 47.1971 64.6119 48.098 64.5861C48.9733 64.5861 49.6941 63.8396 49.7198 62.9643V62.9901Z" fill="#4F4F4F"/>
<path d="M25.5732 29.3703C25.3673 29.8594 25.2901 30.1426 25.1356 30.4C24.4406 31.5584 23.7713 32.7168 23.0505 33.8495C22.4841 34.7248 21.5574 35.0337 20.9138 34.5446C20.1416 33.9525 20.1416 33.1802 20.6049 32.3822C21.3257 31.1723 21.995 29.8852 22.8703 28.7782C23.1792 28.3921 24.0029 28.1604 24.5178 28.2376C24.9297 28.3149 25.2386 28.9842 25.5732 29.3446V29.3703Z" fill="#4F4F4F"/>
<path d="M17.0267 33.3861C15.8426 33.3861 15.1475 32.4851 15.5851 31.6356C16.3317 30.1426 17.1812 28.6752 18.1079 27.2594C18.5198 26.5901 19.2663 26.5386 19.9356 26.9762C20.6049 27.4139 20.8109 28.0832 20.399 28.7782C19.6525 30.1168 18.8544 31.4297 18.0049 32.6911C17.7475 33.0515 17.2327 33.2317 17.0267 33.3861Z" fill="#4F4F4F"/>
</g>
<defs>
<clipPath id="clip0_981_2115">
<rect width="78" height="78" fill="white" transform="translate(0.5 0.5)"/>
</clipPath>
</defs>
</svg>
