<svg width="24" height="24" viewBox="0 0 24 24" fill="none" xmlns="http://www.w3.org/2000/svg">
<path d="M21.6267 21.462C22.2716 21.462 22.8563 21.462 23.4497 21.462C23.8796 21.462 24 21.5905 24 22.0188C24 22.4128 24 22.8068 24 23.2008C24 23.6462 23.8796 23.7662 23.4239 23.7662C18.4794 23.7662 13.5349 23.7662 8.59047 23.7662C5.93336 23.7662 3.26765 23.7662 0.610534 23.7662C0.103189 23.7662 0.00859907 23.6634 0 23.1751C0 22.7726 0 22.3614 0 21.9588C0 21.5905 0.128986 21.4706 0.507345 21.462C0.687926 21.462 0.868506 21.462 1.05769 21.462C1.07488 21.462 1.10068 21.4535 1.16087 21.4363C1.16087 20.8881 1.16087 20.3228 1.16087 19.766C1.16087 19.5091 1.16947 19.2778 1.47044 19.1579C1.52204 19.1322 1.54783 18.978 1.54783 18.8838C1.54783 17.6247 1.54783 16.3655 1.54783 15.0978C1.54783 13.7959 2.33895 12.9993 3.6546 12.9993C4.30813 12.9993 4.96166 12.9993 5.61519 12.9993C6.93945 12.9993 7.72196 13.7873 7.73056 15.1235C7.73056 15.3034 7.73056 15.4833 7.73056 15.6803H10.8176C10.8176 15.5604 10.8176 15.4319 10.8176 15.312C10.8176 11.6802 10.8176 8.04836 10.8176 4.408C10.8176 4.06537 10.9294 3.85123 11.2218 3.67992C12.7954 2.76341 14.3518 2.78054 15.9083 3.72275C16.1405 3.86837 16.2522 4.04824 16.2436 4.32234C16.2264 4.75918 16.2436 5.19603 16.2436 5.65857H17.7915C17.7915 5.20459 17.8001 4.75062 17.7915 4.28808C17.7915 4.03111 17.8861 3.87693 18.0924 3.73132C19.5629 2.76341 21.4203 2.75484 22.8821 3.71419C23.0971 3.8598 23.2003 4.02255 23.2003 4.28808C23.2003 9.05053 23.2003 13.8215 23.2003 18.584C23.2003 18.8495 23.1229 19.0465 22.8907 19.1665C22.5554 19.3378 22.2286 19.5176 21.8846 19.6633C21.7298 19.7318 21.6439 19.7832 21.6525 19.9802C21.6697 20.4599 21.6525 20.9395 21.6525 21.4535L21.6267 21.462ZM15.4439 11.4575C15.4439 9.17901 15.4439 6.90914 15.4439 4.6307C15.4439 4.42513 15.3837 4.30521 15.1946 4.20242C14.0595 3.61996 12.933 3.62853 11.8065 4.21099C11.6345 4.30521 11.5743 4.41656 11.5743 4.61357C11.5743 9.17901 11.5743 13.7359 11.5743 18.3013C11.5743 18.4983 11.6345 18.6097 11.8065 18.7039C12.9416 19.2864 14.0595 19.2864 15.1946 18.7039C15.3837 18.6097 15.4439 18.4898 15.4439 18.2756C15.4439 15.9972 15.4439 13.7273 15.4439 11.4489V11.4575ZM22.392 11.4917C22.392 9.20471 22.392 6.91771 22.392 4.6307C22.392 4.42513 22.3318 4.30521 22.1426 4.20242C21.0075 3.61996 19.881 3.62853 18.7546 4.20242C18.5826 4.29664 18.5224 4.408 18.5224 4.605C18.5224 9.17045 18.5224 13.7273 18.5224 18.2928C18.5224 18.4898 18.5826 18.6011 18.7546 18.6954C19.8466 19.2607 20.9473 19.2778 22.0652 18.7467C22.306 18.6354 22.4006 18.4898 22.4006 18.2157C22.3834 15.9715 22.4006 13.7273 22.4006 11.4831L22.392 11.4917ZM19.3049 21.4535C19.3049 20.9481 19.2963 20.4684 19.3049 19.9888C19.3049 19.8003 19.2275 19.7404 19.0727 19.6718C18.746 19.5348 18.4364 19.372 18.1182 19.2179C17.8345 19.0808 17.7485 18.8581 17.7485 18.5412C17.7571 15.1578 17.7485 11.7658 17.7485 8.38242V8.0141H16.2092C16.2092 8.15971 16.2092 8.27963 16.2092 8.40811C16.2092 11.7829 16.2092 15.1578 16.2092 18.5326C16.2092 18.8667 16.1061 19.0894 15.8137 19.2264C15.4955 19.3806 15.1774 19.5348 14.8678 19.689C14.7904 19.7318 14.6786 19.7917 14.67 19.8517C14.6528 20.3828 14.6614 20.9138 14.6614 21.4449H19.2963L19.3049 21.4535ZM6.93945 19.1408C6.93945 17.6846 6.95665 16.2627 6.93945 14.8494C6.93085 14.2413 6.4235 13.7873 5.79577 13.7787C5.05625 13.7702 4.31673 13.7787 3.57721 13.7787C2.7861 13.7787 2.32175 14.2498 2.32175 15.0464C2.32175 16.2713 2.32175 17.5047 2.32175 18.7296C2.32175 18.8667 2.32175 19.0037 2.32175 19.1493H6.94805L6.93945 19.1408ZM13.1308 19.9288C13.1308 20.5027 13.1308 21.0423 13.1308 21.5819C13.1308 22.1473 13.0448 22.2329 12.4858 22.2329C8.71086 22.2329 4.93587 22.2329 1.16087 22.2329H0.791114V22.9867H23.2003V22.2329C22.6155 22.2329 22.0652 22.2329 21.5063 22.2329C20.9387 22.2329 20.8527 22.1473 20.8527 21.5905C20.8527 21.0423 20.8527 20.4856 20.8527 19.9374H20.0788C20.0788 20.4856 20.0788 21.0166 20.0788 21.5477C20.0788 22.1644 20.01 22.2329 19.4081 22.2329C17.8001 22.2329 16.192 22.2329 14.584 22.2329C13.9735 22.2329 13.9047 22.1644 13.9047 21.5477C13.9047 21.0081 13.9047 20.4684 13.9047 19.9202H13.1308V19.9288ZM12.3569 21.4535C12.3569 20.9481 12.3483 20.4684 12.3569 19.9888C12.3569 19.8003 12.2881 19.7404 12.1247 19.6718C11.7721 19.5176 11.4368 19.3378 11.0928 19.1579C10.8778 19.0465 10.7918 18.8752 10.8004 18.6354C10.809 18.4298 10.8004 18.2157 10.8004 18.0101H7.73056V19.1322C8.04873 19.2007 8.12612 19.432 8.10032 19.7318C8.09172 19.8945 8.10032 20.0487 8.10032 20.2115C8.10032 20.6226 8.10032 21.0338 8.10032 21.4535H12.3483H12.3569ZM1.94339 21.4363H7.31781V19.9374H1.94339V21.4363ZM10.7918 16.4854H7.73916V17.2135H10.7918V16.4854ZM17.7485 6.48086H16.235V7.20893H17.7485V6.48086Z" fill="black"/>
</svg>
