<svg width="79" height="79" viewBox="0 0 79 79" fill="none" xmlns="http://www.w3.org/2000/svg">
<g clip-path="url(#clip0_981_3056)">
<path d="M78.4731 34.2448C78.4731 33.1144 78.0694 32.4146 77.0735 31.8494C72.471 29.2655 67.8954 26.6279 63.3199 23.9902C63.0238 23.8287 62.7008 23.5326 62.4317 23.5595C61.8395 23.6672 61.0321 23.8018 60.7629 24.2055C60.5207 24.6092 60.736 25.4167 60.9513 25.9819C61.0859 26.3049 61.5973 26.4664 61.9472 26.6817C65.6346 28.808 69.3219 30.9074 72.9824 33.0067C73.3592 33.2221 73.7091 33.4643 74.1398 33.7334C73.8706 33.9219 73.736 34.0295 73.6014 34.1103C62.4855 40.4084 51.3696 46.6796 40.2536 52.9778C39.5269 53.3815 39.0424 53.1662 38.4503 52.8432C28.9493 47.3525 19.4213 41.8618 9.92029 36.3711C8.3323 35.456 6.77122 34.5409 5.02174 33.5181C7.6325 32.0378 10.0549 30.6113 12.5041 29.2117C14.1998 28.2428 15.8954 27.2738 17.5911 26.278C18.4255 25.7935 18.7484 25.0399 18.2371 24.1786C17.7257 23.3173 16.9451 23.2366 16.0839 23.6941C15.8954 23.8018 15.707 23.8825 15.5455 23.9902C10.9969 26.6009 6.47516 29.2386 1.89959 31.7956C0.876812 32.4415 0.5 33.1682 0.5 34.3525C0.55383 41.2158 0.55383 48.0792 0.5 54.9426C0.5 56.1268 0.903727 56.8535 1.95342 57.4457C14.0114 64.3628 26.0424 71.3069 38.0466 78.278C39.0694 78.8701 39.9037 78.897 40.9265 78.278C52.9306 71.3069 64.9617 64.3628 77.0197 57.4187C78.0424 56.8266 78.5 56.1537 78.5 54.9426C78.4462 48.0254 78.4462 41.1351 78.5 34.2179L78.4731 34.2448ZM37.9928 74.6444C37.5621 74.4291 37.2391 74.2945 36.9431 74.133C26.0963 67.8887 15.2495 61.6444 4.40269 55.3463C3.99897 55.104 3.56832 54.5119 3.56832 54.0544C3.51449 48.3214 3.54141 42.5616 3.54141 36.8287C3.54141 36.6672 3.56832 36.5326 3.62215 36.1827C10.647 40.22 17.4834 44.1765 24.3199 48.133C28.4917 50.5554 32.6636 52.9778 36.8623 55.3463C37.6698 55.8038 38.0466 56.2614 38.0197 57.2573C37.9658 62.9902 37.9928 68.75 37.9928 74.6444ZM75.4317 54.1889C75.4317 54.5119 75.1894 54.9964 74.8934 55.1579C63.6967 61.6444 52.5 68.104 41.2764 74.5637C41.2495 74.5637 41.1957 74.5637 41.0611 74.5637C41.0611 74.2138 41.0072 73.8908 41.0072 73.5409C41.0072 68.0502 41.0072 62.5595 41.0072 57.0688C41.0072 56.3691 41.1687 55.9653 41.8147 55.5885C52.7692 49.425 63.6967 43.2345 74.6242 37.0709C74.8395 36.9633 75.0549 36.8556 75.4586 36.6403C75.4586 42.6423 75.4586 48.4022 75.4586 54.1889H75.4317Z" fill="#4F4F4F"/>
<path d="M22.8126 35.3753C27.9803 38.309 33.1211 41.2966 38.2619 44.2842C39.1232 44.7955 39.8499 44.7686 40.7112 44.2842C45.8789 41.2697 51.0735 38.2821 56.2681 35.2945C57.1294 34.81 57.5062 34.191 57.5062 33.1951C57.4793 27.1931 57.4793 21.2179 57.5062 15.2158C57.5062 14.22 57.1294 13.6009 56.295 13.0895C51.1004 10.1289 45.9058 7.11439 40.7381 4.09989C39.8768 3.61542 39.1501 3.58851 38.2888 4.09989C33.1211 7.11439 27.9265 10.1289 22.7319 13.0895C21.8168 13.6009 21.4938 14.3007 21.4938 15.3235C21.5476 18.2842 21.4938 21.2179 21.4938 24.1786C21.4938 27.1392 21.5207 30.0999 21.4938 33.0336C21.4938 34.1372 21.8975 34.7831 22.8395 35.3214L22.8126 35.3753ZM54.4648 32.1993C54.4648 32.5223 54.1956 32.9798 53.8996 33.1682C49.8085 35.5637 45.6905 37.9322 41.5725 40.3007C41.4379 40.3815 41.2764 40.4084 41.0072 40.4891V33.1682C41.0072 30.7459 41.0072 28.3504 41.0072 25.9281C41.0072 25.5782 41.1687 25.0399 41.411 24.9053C45.6635 22.4829 49.97 20.1144 54.4648 17.6113C54.4648 22.6444 54.4648 27.4353 54.4648 32.2262V32.1993ZM39.0155 7.24896C39.2578 7.11439 39.6884 7.08747 39.9037 7.19513C44.3178 9.69824 48.705 12.2283 53.2805 14.8659C51.3965 15.9156 49.7008 16.8577 48.0052 17.7997C45.4482 19.1993 42.9182 20.6258 40.3613 22.0254C40.0114 22.2138 39.4192 22.4022 39.1501 22.2407C34.8437 19.8183 30.5642 17.3421 26.0693 14.7314C30.5373 12.1475 34.7898 9.69824 39.0424 7.27588L39.0155 7.24896ZM24.5083 17.2883C28.1956 19.4146 31.56 21.5678 35.1128 23.3173C37.4006 24.4477 38.2081 25.8204 38.0466 28.3773C37.7774 32.3338 37.9658 36.3442 37.9658 40.4891C37.5621 40.3276 37.266 40.22 36.9969 40.0585C33.0942 37.8245 29.2184 35.5906 25.3426 33.3028C24.9658 33.0875 24.5352 32.603 24.5352 32.2531C24.4814 27.3546 24.5083 22.456 24.5083 17.2883Z" fill="#4F4F4F"/>
</g>
<defs>
<clipPath id="clip0_981_3056">
<rect width="78" height="78" fill="white" transform="translate(0.5 0.5)"/>
</clipPath>
</defs>
</svg>
