<svg width="79" height="79" viewBox="0 0 79 79" fill="none" xmlns="http://www.w3.org/2000/svg">
<path d="M48.5308 71.2917C45.829 72.4005 44.116 71.7686 42.7133 69.241C42.5984 69.0264 42.2535 68.8356 42.012 68.8356C40.3335 68.7999 38.6664 68.7999 36.9878 68.8356C36.7694 68.8356 36.4475 69.0025 36.3325 69.1814C34.7344 71.8521 33.2743 72.3886 30.5265 71.3275C29.7907 72.1501 29.1124 73.0324 28.3076 73.7716C27.0544 74.94 25.5713 75.5361 23.8467 75.1189C21.8118 74.63 20.4896 73.0205 20.1332 70.6717C19.7768 68.3587 20.1907 66.1292 20.754 63.9116C20.915 63.2678 21.3519 62.9101 22.0072 63.0651C22.7085 63.2439 22.881 63.7924 22.766 64.4839C22.5476 65.7477 22.2486 66.9995 22.1452 68.2753C22.0762 69.1814 22.1682 70.159 22.4096 71.0294C22.9385 72.9728 24.8125 73.6881 26.3761 72.4959C27.2958 71.7924 28.0086 70.7671 28.756 69.8371C28.8939 69.6583 28.8364 69.241 28.7675 68.9548C28.2041 66.7372 29.1928 64.615 31.1703 63.8281C33.1133 63.0532 35.2058 63.9116 36.16 65.9623C36.413 66.5107 36.7349 66.6061 37.2408 66.6061C38.7584 66.5822 40.276 66.5822 41.8051 66.6061C42.3224 66.6061 42.6214 66.4749 42.8628 65.9384C43.8171 63.9116 45.9325 63.0532 47.864 63.8281C49.807 64.6031 50.7843 66.7253 50.2899 68.8833C50.1979 69.3006 50.2784 69.9206 50.5313 70.2544C51.1522 71.0771 51.842 71.9117 52.6583 72.5078C54.2564 73.6643 56.0499 72.9489 56.6477 71.0175C57.1191 69.5033 56.9467 67.9653 56.6707 66.4392C56.0729 63.0889 54.9577 59.9294 53.1411 57.0799C52.5893 56.2096 51.888 55.375 51.0947 54.7431C49.3241 53.3243 47.3237 54.0754 46.8063 56.3288C46.5993 57.223 46.6338 58.1768 46.6223 59.1068C46.6223 60.3229 46.3464 60.6686 45.1737 60.6805C41.4142 60.6805 37.6661 60.6805 33.9066 60.6805C32.6764 60.6805 32.412 60.3348 32.4235 59.0471C32.4235 58.153 32.4465 57.2349 32.2511 56.3646C31.7337 54.0635 29.6642 53.2647 27.9052 54.7908C26.9049 55.6611 26.1576 56.8415 25.3643 57.9503C24.9504 58.5345 24.709 59.2618 24.3641 59.9056C24.0537 60.4898 23.5593 60.7402 22.9615 60.4182C22.3751 60.1083 22.2256 59.5598 22.5016 58.9398C23.3868 56.9368 24.4216 55.0411 26.0082 53.5389C28.3076 51.3451 30.676 51.2974 33.0788 53.3601C33.2398 53.4912 33.4467 53.6343 33.6307 53.6343C35.2058 53.6581 36.7809 53.6462 38.5514 53.6462C38.5514 51.977 38.4479 50.4032 38.5744 48.8414C39.0343 43.0947 43.7941 38.4806 49.3701 38.3256C51.4396 38.266 53.5205 38.3256 55.728 38.3256C55.728 37.8964 55.728 37.5626 55.728 37.2168C55.728 33.9023 55.728 30.5878 55.728 27.2733C55.728 26.9872 55.636 26.5938 55.7855 26.4268C56.0729 26.0811 56.4868 25.6399 56.8662 25.628C57.1651 25.6161 57.5445 26.1288 57.7744 26.4865C57.9009 26.6891 57.8204 27.0468 57.8204 27.333C57.8204 31.7086 57.8204 36.0842 57.8204 40.4598C57.8204 41.9978 58.2113 42.3912 59.6945 42.3912C63.6034 42.3912 67.5124 42.3912 71.4214 42.3912C72.7781 42.3912 73.1805 41.962 73.1805 40.5432C73.1805 29.634 73.1805 18.7367 73.1805 7.82754C73.1805 6.34913 72.7666 5.91992 71.3639 5.91992C67.4549 5.91992 63.546 5.91992 59.637 5.91992C58.2343 5.91992 57.8089 6.36105 57.8089 7.82754C57.8089 12.2031 57.8089 16.5787 57.8089 20.9544C57.8089 21.2763 57.9009 21.6578 57.7515 21.9082C57.556 22.2539 57.2111 22.6951 56.8892 22.7308C56.5673 22.7666 56.1764 22.3851 55.8429 22.1466C55.751 22.0751 55.728 21.8485 55.728 21.6936C55.728 16.7695 55.682 11.8455 55.7625 6.93334C55.797 5.13302 57.2916 3.79769 59.0621 3.78577C63.339 3.76192 67.6274 3.76192 71.9043 3.78577C73.8243 3.79769 75.2499 5.28802 75.2499 7.30294C75.2614 18.5579 75.2614 29.8248 75.2499 41.0797C75.2499 43.1304 73.8128 44.5731 71.8008 44.585C67.6389 44.6088 63.4885 44.5969 59.3265 44.585C57.1651 44.585 55.8659 43.2974 55.705 41.0559C55.705 40.9009 55.6705 40.7459 55.6245 40.3405C52.8652 40.5075 50.0599 40.3763 47.3926 40.9128C43.4606 41.7236 40.7359 45.4792 40.5749 49.6283C40.5289 50.9398 40.5749 52.2512 40.5749 53.67C42.2305 53.67 43.8056 53.682 45.3807 53.6462C45.6106 53.6462 45.875 53.4197 46.0705 53.2408C47.9445 51.5597 50.1749 51.4047 52.2214 52.8951C53.785 54.0277 54.8312 55.6254 55.728 57.3303C57.4755 60.6686 58.7172 64.2096 58.9356 68.0249C59.0161 69.4556 58.8322 71.0175 58.3608 72.3528C57.418 74.9758 54.4978 75.9892 52.0949 74.7135C51.3936 74.3439 50.7498 73.7954 50.1634 73.2351C49.5771 72.6747 49.1057 71.9832 48.5423 71.3036L48.5308 71.2917ZM34.5849 58.4033H44.4034C44.4839 57.5568 44.5529 56.7699 44.6218 55.9115H34.3665C34.4355 56.758 34.5045 57.5449 34.5849 58.4033ZM48.2894 67.6672C48.2779 66.5703 47.4271 65.7238 46.3809 65.7596C45.3807 65.7954 44.5644 66.6538 44.5529 67.6911C44.5529 68.7641 45.3921 69.6464 46.4384 69.6464C47.5076 69.6464 48.3009 68.7999 48.2894 67.6791V67.6672ZM32.573 65.7596C31.5267 65.7596 30.7104 66.6299 30.7219 67.7387C30.7334 68.8118 31.5152 69.6225 32.5385 69.6464C33.5847 69.6702 34.447 68.7999 34.4585 67.7268C34.4585 66.6538 33.6077 65.7596 32.573 65.7596Z" fill="#4F4F4F"/>
<path d="M20.8231 42.4151C21.2255 40.0186 21.6164 37.7175 22.0188 35.2973C21.5819 35.2973 21.2485 35.2973 20.9151 35.2973C16.4428 35.2973 11.9819 35.2973 7.50958 35.2973C5.08371 35.2973 3.75005 33.9142 3.75005 31.4343C3.75005 27.7025 3.75005 23.9708 3.75005 20.239C3.75005 20.1078 3.75005 19.9767 3.75005 19.8574C3.76155 19.1421 4.09496 18.6652 4.80778 18.6652C5.53209 18.6652 5.83101 19.154 5.83101 19.8813C5.83101 22.2897 5.83101 24.71 5.83101 27.1183C5.83101 27.4641 5.83101 27.8218 5.83101 28.2391H48.9908C49.0138 27.9171 49.0368 27.5952 49.0368 27.2852C49.0368 20.8232 49.0368 14.3492 49.0368 7.88713C49.0368 6.32527 48.6689 5.93182 47.1858 5.93182C34.0332 5.93182 20.8806 5.93182 7.71652 5.93182C6.19892 5.93182 5.81951 6.34911 5.80802 7.94674C5.80802 10.1047 5.79652 12.2627 5.80802 14.4088C5.80802 15.1719 5.63556 15.768 4.80778 15.8634C4.14095 15.9349 3.72706 15.3626 3.71556 14.3969C3.71556 12.0481 3.70406 9.69937 3.71556 7.35061C3.78454 5.25223 5.18718 3.7619 7.23365 3.7619C20.7312 3.7619 34.2287 3.7619 47.7262 3.7619C49.7956 3.7619 51.1523 5.24031 51.1753 7.46984C51.2098 10.1047 51.1753 12.7396 51.1753 15.3865C51.1753 20.6563 51.1753 25.938 51.1753 31.2078C51.1753 33.9619 49.8991 35.2734 47.2318 35.2853C42.8629 35.2853 38.4826 35.2853 34.1137 35.2853C33.7803 35.2853 33.4354 35.2853 32.918 35.2853C33.3204 37.6937 33.6998 40.0186 34.0907 42.3912C34.5046 42.3912 34.838 42.3912 35.1714 42.3912C36.2751 42.3912 36.8385 42.7727 36.781 43.5119C36.7005 44.5373 35.9762 44.5611 35.2174 44.5611C30.3772 44.5611 25.5369 44.5611 20.6967 44.5611C20.2023 44.5611 19.7079 44.5611 19.2021 44.5611C18.5467 44.5373 18.1213 44.1796 18.1213 43.5C18.1213 42.8204 18.5582 42.4508 19.2021 42.4151C19.7194 42.3793 20.2368 42.4151 20.8116 42.4151H20.8231ZM49.1288 30.5401H5.93448C5.62407 32.6027 6.04946 33.1393 7.94646 33.1393C16.5117 33.1393 25.077 33.1393 33.6308 33.1393C38.1951 33.1393 42.748 33.1631 47.3123 33.1154C47.8296 33.1154 48.5425 32.8531 48.8069 32.4477C49.1173 31.9828 49.0253 31.2436 49.1173 30.5401H49.1288ZM22.9731 42.3554H31.9523C31.5729 40.0902 31.2164 37.8845 30.8026 35.6907C30.7681 35.5238 30.4117 35.3211 30.1932 35.3092C28.3652 35.2853 26.5372 35.2734 24.7206 35.3092C24.5022 35.3092 24.1343 35.5715 24.0883 35.7742C23.6859 37.9441 23.341 40.114 22.9731 42.3435V42.3554Z" fill="#4F4F4F"/>
<path d="M65.4544 28.5014C68.4551 28.4895 70.927 31.0051 70.95 34.105C70.973 37.2407 68.4896 39.8279 65.4774 39.816C62.4882 39.816 60.0278 37.2526 60.0278 34.1646C60.0278 31.0767 62.4882 28.5133 65.4659 28.5014H65.4544ZM65.4429 37.6103C67.3284 37.6222 68.8231 36.108 68.8346 34.1646C68.8346 32.257 67.3054 30.6475 65.4774 30.6594C63.6724 30.6594 62.1778 32.2093 62.1433 34.0931C62.1088 36.0365 63.5804 37.5983 65.4544 37.6103H65.4429Z" fill="#4F4F4F"/>
<path d="M65.4774 19.6309C63.9943 19.6309 62.5112 19.6309 61.0166 19.6309C60.3153 19.6309 59.7519 19.3925 59.7404 18.5817C59.7174 17.7114 60.2923 17.461 61.0396 17.461C64.0058 17.461 66.9835 17.461 69.9498 17.461C70.6626 17.461 71.2144 17.7114 71.2374 18.5102C71.2604 19.3686 70.6856 19.6428 69.9268 19.6309C68.4437 19.6309 66.9605 19.6309 65.4659 19.6309H65.4774Z" fill="#4F4F4F"/>
<path d="M65.4085 15.0646C64.0174 15.0646 62.6263 15.0646 61.2351 15.0646C60.1774 15.0646 59.6715 14.695 59.729 13.9558C59.798 13.0139 60.4533 12.8828 61.2006 12.8947C64.0749 12.8947 66.9606 12.8947 69.8349 12.8947C70.7777 12.8947 71.3065 13.312 71.249 14.0154C71.1801 14.8858 70.5937 15.0765 69.8694 15.0765C68.3863 15.0765 66.9032 15.0765 65.42 15.0765L65.4085 15.0646Z" fill="#4F4F4F"/>
<path d="M65.5694 8.32831C67.018 8.32831 68.4781 8.32831 69.9268 8.32831C70.6741 8.32831 71.2604 8.59061 71.2374 9.44904C71.2144 10.2479 70.6511 10.5101 69.9498 10.5101C66.9835 10.5101 64.0058 10.5101 61.0396 10.5101C60.3038 10.5101 59.7289 10.2479 59.7404 9.36558C59.7519 8.53099 60.3382 8.32831 61.0281 8.32831C62.5457 8.32831 64.0633 8.32831 65.5809 8.32831H65.5694Z" fill="black"/>
<path d="M65.6614 22.5758C66.1098 22.9216 66.6387 23.1958 66.9606 23.6369C67.0871 23.8038 66.7996 24.6265 66.6157 24.6623C65.8914 24.8053 65.1326 24.8173 64.4083 24.698C64.2128 24.6623 63.9369 23.9946 63.9829 23.6727C64.1208 22.8262 64.8107 22.7546 65.5005 22.8023C65.558 22.7308 65.6039 22.6473 65.6614 22.5758Z" fill="black"/>
</svg>
