<svg width="79" height="79" viewBox="0 0 79 79" fill="none" xmlns="http://www.w3.org/2000/svg">
<path d="M63.1383 38.8137H15.8616C15.8616 39.1953 15.8616 39.5591 15.8616 39.923C15.8616 50.0657 15.8616 60.2085 15.8616 70.3512C15.8616 71.9219 15.5718 72.2147 13.9997 72.2147C12.1554 72.2147 10.311 72.2147 8.46669 72.2147C7.36887 72.2147 7.01756 71.8509 7.01756 70.7239C7.01756 55.2747 7.01757 39.8254 7 24.3761C7 23.6573 7.27226 23.2136 7.86948 22.8498C18.11 16.5937 28.3505 10.32 38.5822 4.04617C39.2233 3.65573 39.7591 3.64685 40.4002 4.04617C50.6583 10.3377 60.9251 16.6204 71.192 22.8941C71.7629 23.2402 72 23.6839 72 24.3672C71.9912 39.8165 72 55.2658 71.9912 70.7151C71.9912 71.8864 71.6399 72.2236 70.4718 72.2325C68.566 72.2325 66.6602 72.2325 64.7456 72.2325C63.4984 72.2325 63.1383 71.8598 63.1383 70.582C63.1383 60.4126 63.1383 50.2343 63.1383 40.0649C63.1383 39.6922 63.1383 39.3195 63.1383 38.8404V38.8137ZM69.6726 69.8809C69.6902 69.5615 69.7253 69.2864 69.7253 69.0113C69.7253 54.5115 69.7253 40.0117 69.7429 25.503C69.7429 24.8819 69.5497 24.5447 69.0315 24.2341C59.4321 18.3685 49.8327 12.494 40.2509 6.59295C39.6888 6.24688 39.2936 6.25575 38.7403 6.59295C29.1848 12.4763 19.6206 18.333 10.0388 24.1808C9.45913 24.5358 9.23956 24.9085 9.24834 25.6006C9.26591 40.0117 9.2659 54.4139 9.2659 68.825C9.2659 69.1622 9.2659 69.4994 9.2659 69.8632H13.6045C13.6045 69.4195 13.6045 69.0468 13.6045 68.6652C13.6045 56.3129 13.6045 43.9606 13.6045 31.6082C13.6045 29.9311 13.8504 29.6737 15.484 29.6737C31.4947 29.6737 47.5053 29.6737 63.516 29.6737C65.1496 29.6737 65.3955 29.9311 65.3955 31.6171C65.3955 44.0049 65.3955 56.3839 65.3955 68.7717C65.3955 69.1355 65.3955 69.4994 65.3955 69.8898H69.6726V69.8809ZM63.0944 32.043H15.9231V36.4178H63.0944V32.043Z" fill="#4F4F4F"/>
<path d="M49.622 66.9703H29.3605C29.3605 68.2304 29.3605 69.4461 29.3605 70.6707C29.3517 71.8154 28.9741 72.2059 27.8411 72.2147C25.6191 72.2236 23.4059 72.2236 21.1839 72.2147C20.0246 72.2147 19.6294 71.7977 19.6294 70.5908C19.6294 65.9498 19.6294 61.3088 19.6294 56.6678C19.6294 55.035 20.1739 53.6152 21.421 52.5593C22.2642 51.8405 22.7911 50.9797 23.1512 49.9326C23.8626 47.8473 24.6443 45.7797 25.4171 43.7121C26.1461 41.7598 27.3405 40.9346 29.4132 40.9346C36.3251 40.9346 43.2282 40.9346 50.1401 40.9346C52.1953 40.9346 53.4073 41.7687 54.1274 43.7209C54.9618 45.966 55.7434 48.2288 56.6129 50.465C56.8764 51.1483 57.2716 51.8316 57.7634 52.364C58.8613 53.5709 59.3794 54.9463 59.3794 56.5702C59.3706 61.2112 59.3794 65.8522 59.3794 70.4932C59.3794 71.8243 59.0106 72.2059 57.7283 72.2059C55.5414 72.2059 53.3546 72.2147 51.1677 72.2059C50.0347 72.2059 49.6571 71.8065 49.6483 70.6618C49.6395 69.4639 49.6483 68.2659 49.6483 66.9614L49.622 66.9703ZM21.9129 64.601H57.0696C57.0696 61.646 57.1399 58.7443 57.0433 55.8514C56.9906 54.2985 55.7083 53.2869 54.1889 53.2869C44.5281 53.2869 34.8584 53.2869 25.1976 53.2869C23.5816 53.2869 22.0095 54.5292 21.948 56.1354C21.8426 58.9306 21.9217 61.7436 21.9217 64.601H21.9129ZM54.3382 50.9708C53.5566 48.8323 52.8188 46.7913 52.0811 44.7503C51.598 43.4104 51.2994 43.2063 49.8679 43.2063C43.5532 43.2063 37.2385 43.2063 30.915 43.2063C27.8323 43.2063 28.0695 42.9933 26.998 45.9483C26.4008 47.5988 25.8036 49.2493 25.1888 50.9708H54.3382ZM21.9392 66.9703V69.8632H27.0419V66.9703H21.9392ZM51.9669 66.9703V69.8632H57.0433V66.9703H51.9669Z" fill="#4F4F4F"/>
<path d="M39.3902 62.6665C37.6074 62.6665 35.8245 62.6753 34.0416 62.6665C32.9614 62.6576 32.5837 62.2583 32.5749 61.1668C32.5574 59.9688 32.5574 58.7709 32.5749 57.564C32.5925 56.5347 32.9877 56.1265 34.0065 56.1265C37.5986 56.1176 41.1994 56.1176 44.7915 56.1265C45.863 56.1265 46.2319 56.5169 46.2494 57.6261C46.2582 58.8241 46.267 60.0221 46.2494 61.2289C46.2407 62.276 45.8718 62.6576 44.8354 62.6665C43.0262 62.6842 41.2082 62.6665 39.399 62.6665H39.3902ZM34.8848 60.3238H44.1065V58.4603H34.8848V60.3238Z" fill="#4F4F4F"/>
<path d="M27.1472 62.6665C25.0131 62.6665 23.52 61.2911 23.52 59.33C23.52 57.3689 25.0218 55.9668 27.1297 55.9579C29.2463 55.9579 30.7569 57.3423 30.7569 59.3122C30.7569 61.2822 29.2726 62.6665 27.1385 62.6665H27.1472ZM27.0945 58.2385C26.2514 58.2563 25.7332 58.6733 25.7859 59.3566C25.8474 60.2262 26.4534 60.3949 27.1736 60.3771C28.0343 60.3594 28.5437 59.96 28.4822 59.2768C28.4119 58.4249 27.8235 58.2296 27.0945 58.2385Z" fill="#4F4F4F"/>
<path d="M51.8087 62.6666C49.6921 62.6488 48.1991 61.2468 48.2254 59.2768C48.2518 57.3157 49.7624 55.9491 51.8878 55.958C53.9868 55.9669 55.4886 57.3955 55.4711 59.3655C55.4535 61.3266 53.9429 62.6843 51.8087 62.6666ZM51.8351 60.386C52.5553 60.386 53.1525 60.2085 53.2052 59.3478C53.2491 58.6645 52.7309 58.2563 51.879 58.2474C51.15 58.2386 50.5704 58.4515 50.5089 59.3034C50.4562 59.9867 50.9656 60.386 51.8351 60.3949V60.386Z" fill="#4F4F4F"/>
</svg>
