<svg width="20" height="21" viewBox="0 0 20 21" fill="none" xmlns="http://www.w3.org/2000/svg">
<path d="M8.33334 14.7126H11.6667" stroke="#07284A" stroke-width="1.5" stroke-linecap="round" stroke-linejoin="round"/>
<path d="M1.66666 14.7126V6.37928C1.66666 3.04595 2.5 2.21262 5.83333 2.21262" stroke="#07284A" stroke-width="1.5" stroke-linecap="round" stroke-linejoin="round"/>
<path d="M18.3333 14.7126V6.37928C18.3333 3.04595 17.5 2.21262 14.1667 2.21262" stroke="#07284A" stroke-width="1.5" stroke-linecap="round" stroke-linejoin="round"/>
<path d="M8.33333 13.3876V16.1293C8.33333 17.7959 7.66666 18.4626 6 18.4626H4C2.33333 18.4626 1.66666 17.7959 1.66666 16.1293V13.3876C1.66666 11.7209 2.33333 11.0543 4 11.0543H6C7.66666 11.0543 8.33333 11.7209 8.33333 13.3876Z" stroke="#07284A" stroke-width="1.5" stroke-linecap="round" stroke-linejoin="round"/>
<path d="M18.3333 13.3876V16.1293C18.3333 17.7959 17.6667 18.4626 16 18.4626H14C12.3333 18.4626 11.6667 17.7959 11.6667 16.1293V13.3876C11.6667 11.7209 12.3333 11.0543 14 11.0543H16C17.6667 11.0543 18.3333 11.7209 18.3333 13.3876Z" stroke="#07284A" stroke-width="1.5" stroke-linecap="round" stroke-linejoin="round"/>
</svg>
