<svg width="24" height="24" viewBox="0 0 24 24" fill="none" xmlns="http://www.w3.org/2000/svg">
<g clip-path="url(#clip0_191_194)">
<path d="M14.0874 18.9439C14.496 17.9775 14.879 16.9938 15.3132 16.0359C16.6327 13.128 18.2756 10.4184 20.4804 8.09724C20.6421 7.92466 20.8124 7.76933 20.9826 7.60538C21.1614 7.44143 21.3572 7.38966 21.553 7.55361C21.7488 7.71756 21.7318 7.91603 21.6126 8.13175C19.7653 11.3072 18.9481 14.8279 18.2671 18.4003C18.2671 18.4175 18.2671 18.4434 18.2841 18.5383C18.3863 18.383 18.4544 18.2708 18.531 18.15C19.8079 16.1309 21.2806 14.2756 23.1023 12.731C23.3236 12.5412 23.5535 12.2823 23.8514 12.5498C24.1579 12.8259 23.9195 13.0762 23.7663 13.3178C22.3532 15.5268 21.4508 17.9516 20.8805 20.4971C20.6421 21.5499 20.4974 22.6199 20.3272 23.6899C20.2761 24.0091 20.1399 24.1645 19.8079 24.1645C14.6832 24.1645 9.56711 24.1645 4.44247 24.1645C4.10196 24.1645 3.98278 24.0005 3.9232 23.6812C3.14854 19.4789 2.00784 15.3801 0.330838 11.4453C0.245711 11.2382 0.152071 11.0311 0.0584318 10.8326C-0.0352079 10.6255 -0.0266952 10.4357 0.160584 10.289C0.347863 10.1423 0.543656 10.1855 0.705397 10.3494C1.28426 10.9448 1.88015 11.5143 2.42496 12.1356C4.0594 14.0081 5.40441 16.0877 6.47701 18.3399C6.51106 18.4175 6.56213 18.4866 6.64726 18.6333C6.26419 14.569 5.75343 10.6255 4.78298 6.75111C4.75744 6.66482 4.70636 6.56127 4.72339 6.49224C4.77447 6.32829 4.84257 6.0953 4.96175 6.04353C5.08092 5.99176 5.30225 6.10393 5.43846 6.19022C5.54061 6.25926 5.59168 6.40595 5.6683 6.51813C7.5496 9.47788 9.16702 12.5757 10.3247 15.9065C10.3333 15.941 10.3588 15.9669 10.3928 16.0446C10.4269 15.9238 10.4609 15.8547 10.478 15.7684C11.1079 12.9813 11.8996 10.2372 13.0743 7.62264C13.7809 6.05216 14.6151 4.55071 15.6963 3.20458C15.7899 3.09241 15.8665 2.92846 15.9857 2.88531C16.1389 2.82491 16.3688 2.78176 16.4879 2.85942C16.5901 2.91983 16.6667 3.19596 16.6156 3.31676C15.3898 5.95724 15.0238 8.81345 14.6747 11.661C14.4194 13.7579 14.2831 15.872 14.0959 17.9775C14.0703 18.2881 14.0618 18.6074 14.0533 18.918C14.0703 18.918 14.0874 18.918 14.0959 18.918L14.0874 18.9439ZM14.7428 6.11256C11.8741 11.4884 10.81 17.3734 9.97572 23.3275H13.0488C13.2446 17.5374 13.5085 11.7732 14.7428 6.11256ZM7.77094 23.3361H9.14148C9.43091 21.5671 9.72034 19.8241 9.99275 18.081C10.0183 17.9084 10.0183 17.7186 9.96721 17.5546C9.37984 15.4319 8.53708 13.4213 7.54109 11.4626C7.09843 10.591 6.62172 9.72812 6.16204 8.86522C6.1365 8.87385 6.11096 8.88248 6.08542 8.89111C7.03033 13.6543 7.50704 18.4693 7.77094 23.3275V23.3361ZM19.4759 10.5479C19.3993 10.6428 19.3227 10.7377 19.2546 10.8413C16.7689 14.267 15.0919 18.081 13.9426 22.1453C13.8405 22.5163 13.8831 22.9391 13.849 23.3447H16.7263C17.2115 18.9784 17.9691 14.6898 19.4759 10.5565V10.5479ZM1.75246 12.5326C1.75246 12.5326 1.68436 12.5757 1.65882 12.593C3.00382 16.0791 3.97427 19.6687 4.67231 23.3361H6.97074C6.93669 22.7752 6.91967 22.2402 6.86859 21.6966C6.85156 21.4981 6.809 21.2996 6.7409 21.1098C6.03434 19.1079 5.08092 17.2267 3.89766 15.475C3.21664 14.4655 2.46752 13.5076 1.75246 12.5326ZM19.5355 23.3361C19.893 20.5058 20.6166 17.8049 21.7743 15.2162C21.7232 15.2334 21.6977 15.2507 21.6722 15.2766C20.1654 16.9765 18.9226 18.8576 17.901 20.8941C17.8585 20.9717 17.8244 21.058 17.8074 21.1443C17.7138 21.8691 17.6286 22.5854 17.535 23.3361H19.527H19.5355Z" fill="black"/>
</g>
<defs>
<clipPath id="clip0_191_194">
<rect width="24" height="24" fill="white"/>
</clipPath>
</defs>
</svg>
