<svg width="24" height="24" viewBox="0 0 24 24" fill="none" xmlns="http://www.w3.org/2000/svg">
<g clip-path="url(#clip0_225_560)">
<path d="M22.9742 20.2535C22.8536 20.1767 22.7274 20.1054 22.5793 20.0176C22.881 19.897 23.051 19.7269 22.9468 19.4362C22.8481 19.1619 22.6122 19.1455 22.3599 19.2058C22.1624 19.2497 21.954 19.2497 21.762 19.3046C21.4219 19.4088 21.186 19.2497 20.9118 19.0413C21.3286 18.9096 21.7126 18.7889 22.0966 18.6628C22.4367 18.5531 22.5683 18.3611 22.486 18.1087C22.4093 17.8619 22.1844 17.7851 21.8443 17.8948C21.2793 18.0704 20.7143 18.2569 20.1438 18.4269C20.0451 18.4543 19.9079 18.4818 19.8311 18.4379C19.2936 18.1471 18.767 17.8345 18.1855 17.5054C18.767 17.1708 19.2991 16.8581 19.8366 16.5674C19.9189 16.5235 20.056 16.5509 20.1548 16.5783C20.7253 16.7374 21.2957 16.902 21.8662 17.072C22.1295 17.1488 22.3654 17.1433 22.4806 16.8471C22.5793 16.5948 22.4367 16.3918 22.0966 16.2931C21.7291 16.1834 21.3561 16.0792 20.9337 15.9585C21.2025 15.7555 21.4164 15.6074 21.7291 15.7281C21.8936 15.7885 22.0801 15.8214 22.2557 15.8323C22.5958 15.8488 22.7823 15.5306 22.6232 15.2289C22.5903 15.1686 22.5409 15.1083 22.4915 15.0424C22.6561 14.9437 22.8042 14.8669 22.9468 14.7792C23.1772 14.642 23.3034 14.4555 23.1553 14.1922C23.0072 13.9399 22.7823 13.9399 22.5464 14.077C22.327 14.2032 22.113 14.3239 21.8662 14.4665C21.8662 14.3568 21.8662 14.3019 21.8662 14.2471C21.8772 13.9728 21.7675 13.7808 21.4767 13.7644C21.2025 13.7534 21.0818 13.9289 21.0599 14.1867C21.0489 14.3294 21.005 14.4775 21.0105 14.6201C21.0269 14.9821 20.813 15.1247 20.4784 15.218C20.5826 14.7353 20.6759 14.2855 20.7746 13.8412C20.835 13.5669 20.8075 13.342 20.5058 13.2487C20.248 13.1665 20.0615 13.3201 19.9847 13.6711C19.8476 14.2964 19.716 14.9218 19.5733 15.5416C19.5459 15.6568 19.502 15.8049 19.4197 15.8543C18.9096 16.1669 18.383 16.4577 17.8016 16.7923C17.8016 16.1889 17.7851 15.6513 17.8125 15.1192C17.818 14.9602 17.8948 14.7682 17.999 14.653C18.4379 14.1758 18.9041 13.7205 19.3539 13.2487C19.5733 13.0129 19.5514 12.7276 19.3155 12.5905C19.1071 12.4698 18.9316 12.5302 18.7725 12.6947C18.4708 13.0019 18.1691 13.3091 17.8455 13.6382C17.7632 13.342 17.8071 13.1445 18.0374 12.9854C18.2569 12.8319 18.4598 12.6563 18.6628 12.4753C18.8328 12.3162 18.8602 12.1188 18.7176 11.9323C18.564 11.7293 18.3611 11.7183 18.1526 11.861C18.0539 11.9268 17.9661 12.0036 17.8071 12.1243C17.8071 11.8335 17.8071 11.6141 17.8071 11.3947C17.7961 11.0711 17.637 10.8791 17.3902 10.901C17.094 10.9284 17.0007 11.1314 17.0007 11.3947C17.0007 11.6251 17.0007 11.8555 17.0007 12.1462C16.8416 12.0365 16.7429 11.9652 16.6497 11.8939C16.4302 11.7293 16.2053 11.7019 16.0298 11.9377C15.8543 12.1736 15.953 12.3821 16.1669 12.5466C16.3699 12.7057 16.5674 12.8757 16.7813 13.0184C17.0556 13.1939 17.0172 13.4188 16.9623 13.7205C16.5729 13.3585 16.2273 13.0403 15.8872 12.7167C15.6842 12.5247 15.4703 12.4369 15.2399 12.6563C15.0425 12.8373 15.0808 13.0732 15.3441 13.3201C15.8269 13.7699 16.315 14.2196 16.7978 14.6749C16.8746 14.7462 16.9843 14.845 16.9897 14.9327C17.0062 15.5416 17.0007 16.156 17.0007 16.8252C16.4796 16.529 16.0188 16.2492 15.5471 16.0079C15.3112 15.8872 15.207 15.7226 15.1686 15.4703C15.0644 14.8614 14.9437 14.258 14.8176 13.6547C14.7627 13.4023 14.5981 13.2597 14.3294 13.3146C14.077 13.3694 13.9948 13.5559 14.0222 13.7973C14.0332 13.8741 14.0496 13.9509 14.0661 14.0277C14.1429 14.4281 14.2197 14.8285 14.2964 15.2344C13.8796 15.1412 13.704 14.8998 13.6821 14.5159C13.6711 14.3074 13.6163 14.0935 13.5614 13.8905C13.5011 13.6656 13.3365 13.5559 13.1006 13.5998C12.8703 13.6437 12.766 13.8137 12.7825 14.0441C12.788 14.1593 12.8099 14.269 12.8264 14.4336C12.5795 14.2964 12.3985 14.1922 12.212 14.088C11.9762 13.9564 11.7513 13.9454 11.5977 14.1977C11.4441 14.4555 11.5648 14.6475 11.7951 14.7846C12.02 14.9163 12.2449 15.0479 12.5137 15.2015C12.3766 15.2728 12.2998 15.3112 12.223 15.3551C11.9981 15.4758 11.8664 15.6458 11.9871 15.9036C12.1078 16.1669 12.3272 16.2053 12.5795 16.0847C12.7606 15.9969 12.9471 15.9146 13.1281 15.8269C13.4352 15.6842 13.4682 15.6897 13.7534 15.9859C13.3694 16.0956 12.9909 16.1999 12.6179 16.3041C12.2724 16.4028 12.1352 16.5838 12.201 16.8416C12.2614 17.094 12.4808 17.1817 12.8319 17.0885C13.4243 16.9239 14.0167 16.7539 14.6146 16.5948C14.7078 16.5674 14.8285 16.5399 14.9053 16.5783C15.4539 16.8745 15.9914 17.1927 16.5729 17.5273C16.0408 17.8345 15.5581 18.1252 15.0644 18.383C14.9273 18.4543 14.7243 18.4763 14.5707 18.4324C13.9893 18.2733 13.4133 18.0868 12.8319 17.9058C12.5686 17.8235 12.3327 17.829 12.2175 18.1197C12.1133 18.372 12.2559 18.5695 12.596 18.6792C13.0019 18.8054 13.4023 18.9315 13.8247 19.0577C13.5669 19.321 13.3036 19.3923 12.9855 19.2497C12.8209 19.1784 12.6454 19.14 12.4698 19.0961C12.2394 19.0413 12.031 19.118 11.9981 19.3484C11.9762 19.4965 12.0968 19.6776 12.1736 19.8311C12.1956 19.8805 12.2778 19.897 12.3546 19.9408C12.1736 20.0451 12.0145 20.1383 11.861 20.2261C11.5538 20.4071 11.455 20.6265 11.6086 20.8459C11.7842 21.1092 12.0091 21.0818 12.2504 20.9337C12.415 20.8295 12.5905 20.7417 12.788 20.632C12.788 20.7088 12.799 20.7417 12.7935 20.7746C12.7606 21.0379 12.8538 21.2244 13.1226 21.2683C13.3969 21.3122 13.534 21.1421 13.5888 20.8953C13.6327 20.7088 13.6821 20.5223 13.704 20.3358C13.7369 20.0231 13.9564 19.9408 14.2361 19.8366C14.1264 20.259 14.0332 20.6265 13.9399 20.994C13.8521 21.3396 13.9399 21.5645 14.1977 21.6139C14.5049 21.6742 14.642 21.4932 14.7133 21.2189C14.8614 20.632 15.015 20.0451 15.1741 19.4636C15.2015 19.3594 15.2509 19.2332 15.3277 19.1839C15.8598 18.8602 16.4083 18.5585 17.0117 18.213C17.0117 18.8328 17.0007 19.3868 17.0117 19.9408C17.0172 20.1548 16.9459 20.2919 16.7813 20.4236C16.2821 20.824 15.7939 21.2354 15.3112 21.6523C15.0534 21.8772 15.0644 22.2447 15.3551 22.3325C15.5032 22.3763 15.7336 22.3215 15.8653 22.2282C16.2437 21.954 16.5893 21.6413 16.9678 21.3232C17.0556 21.6523 17.0227 21.8881 16.7594 22.0692C16.6113 22.1679 16.4467 22.2831 16.3699 22.4312C16.2986 22.5628 16.2712 22.7877 16.337 22.9084C16.3973 23.0126 16.6113 23.0401 16.7648 23.073C16.8252 23.0839 16.902 23.0236 17.0117 22.9852C17.0117 23.2046 17.0117 23.3911 17.0117 23.5831C17.0227 23.8409 17.1378 24.0274 17.4121 24.0274C17.6809 24.0274 17.8071 23.8519 17.818 23.5886C17.8235 23.3802 17.818 23.1717 17.818 22.9249C17.9168 22.9742 17.9552 22.9907 17.9881 23.0126C18.2185 23.1553 18.4269 23.1278 18.575 22.9084C18.7176 22.6945 18.6353 22.5025 18.4488 22.3489C18.3117 22.2337 18.1801 22.1076 18.032 22.0088C17.8071 21.8607 17.7851 21.6687 17.8619 21.3835C18.1801 21.6742 18.4708 21.9485 18.767 22.2118C19.0193 22.4367 19.2387 22.4531 19.4143 22.2666C19.5898 22.0801 19.5624 21.8552 19.3155 21.6248C18.8822 21.2189 18.4434 20.8185 18.01 20.4126C17.9387 20.3468 17.8345 20.259 17.8345 20.1822C17.818 19.5624 17.829 18.937 17.829 18.2514C18.3556 18.5531 18.8273 18.8054 19.2771 19.0906C19.4197 19.1784 19.5514 19.3539 19.5953 19.513C19.7544 20.0944 19.875 20.6923 20.0176 21.2793C20.0944 21.5864 20.3632 21.7236 20.6046 21.5919C20.824 21.4713 20.8514 21.2683 20.7966 21.0379C20.7033 20.6485 20.6156 20.2535 20.5223 19.8311C20.8898 19.9299 21.0544 20.1109 21.0324 20.451C21.0269 20.6046 21.0599 20.7636 21.0873 20.9172C21.1257 21.1476 21.2573 21.2848 21.4932 21.2793C21.7455 21.2683 21.8717 21.1147 21.8881 20.8679C21.8936 20.7856 21.8991 20.7033 21.9046 20.5881C22.1624 20.7362 22.3873 20.8624 22.6067 20.9831C22.8426 21.1147 23.0456 21.0763 23.1827 20.8404C23.3198 20.5991 23.2156 20.4126 23.0017 20.2755L22.9742 20.2535Z" fill="black"/>
<path d="M9.99594 18.3556C9.61746 18.3337 9.23348 18.3227 8.86048 18.2624C4.42285 17.5383 1.43883 13.6602 1.87765 9.19513C2.26711 5.25118 5.43763 2.19585 9.52421 1.82833C13.2981 1.48824 17.0172 4.06086 18.032 7.76895C18.2294 8.4985 18.2733 9.26644 18.372 10.0179C18.405 10.2922 18.5092 10.4842 18.7999 10.4732C19.0687 10.4622 19.1894 10.2812 19.1894 10.0179C19.1894 9.96308 19.1894 9.90823 19.1894 9.84789C19.1016 5.15793 15.2728 1.23043 10.5609 1.01102C5.35535 0.769663 1.02194 4.88366 1 10.0783C1.02743 10.4458 1.04937 10.8133 1.08777 11.1808C1.53756 15.5855 5.55831 19.1894 9.97949 19.1565C10.3141 19.1565 10.4951 19.0194 10.5006 18.7616C10.5061 18.5092 10.3251 18.3666 9.99594 18.3447V18.3556Z" fill="black"/>
<path d="M9.7875 3.22155C8.11996 3.25446 6.42499 3.96756 5.07012 5.41568C3.89077 6.67731 3.28738 8.19126 3.23801 9.91914C3.22704 10.2812 3.36418 10.4677 3.62199 10.4841C3.8798 10.4951 4.0279 10.3031 4.04436 9.95205C4.05533 9.7491 4.07179 9.55162 4.09373 9.34867C4.4393 6.46887 6.74314 4.28022 9.65585 4.03886C12.4589 3.80848 15.1028 5.62961 15.8872 8.36131C16.0353 8.88241 16.0792 9.43643 16.145 9.97948C16.1834 10.3031 16.315 10.4896 16.5674 10.4786C16.8197 10.4732 16.9568 10.2867 16.9568 9.95205C16.9568 9.85332 16.9568 9.7491 16.9459 9.65036C16.7155 6.03004 13.715 3.21606 9.78202 3.21606L9.7875 3.22155Z" fill="black"/>
<path d="M11.9926 10.6432C11.8555 8.98116 11.2905 7.49463 10.4732 6.09587C10.2592 5.72835 9.91915 5.76127 9.68877 6.15621C9.05247 7.25876 8.57524 8.42714 8.3668 9.69425C8.24612 10.4512 8.18579 11.2137 8.5533 11.9323C8.87694 12.5631 9.39804 12.9141 10.1166 12.9087C10.8187 12.9032 11.3563 12.5631 11.6361 11.9268C11.8116 11.5264 11.8774 11.0766 11.9926 10.6487V10.6432ZM10.9614 11.4715C10.8242 11.8829 10.4896 12.0968 10.0947 12.0968C9.70522 12.0968 9.38159 11.8719 9.23348 11.466C9.15669 11.2576 9.10184 11.0327 9.10184 10.8133C9.07989 9.50775 9.50226 8.31743 10.1002 7.08872C10.6761 8.26806 11.0875 9.40901 11.0985 10.6542C11.0985 10.9285 11.0491 11.2137 10.9614 11.4715Z" fill="black"/>
</g>
<defs>
<clipPath id="clip0_225_560">
<rect width="24" height="24" fill="white"/>
</clipPath>
</defs>
</svg>
