<svg width="79" height="79" viewBox="0 0 79 79" fill="none" xmlns="http://www.w3.org/2000/svg">
<path d="M41.1514 40.9815C41.1514 40.4322 41.1514 40.0131 41.1514 39.5795C41.1804 37.8596 42.1509 36.8623 43.8747 36.8479C47.3801 36.8334 50.9001 36.8479 54.4056 36.8479C59.1858 36.8479 63.9804 36.8479 68.7606 36.8479C71.1072 36.8479 71.9619 37.6861 71.9764 40.0276C71.9764 40.3022 72.0053 40.5768 72.0198 40.9815C72.4834 40.9815 72.9034 40.967 73.3235 40.9815C74.381 41.0393 75.0618 41.6463 75.2066 42.687C75.2501 43.0194 75.2501 43.3662 75.2501 43.7131C75.2501 53.021 75.2501 62.3289 75.2501 71.6367C75.2501 74.2672 74.2796 75.2356 71.6577 75.2356C50.2048 75.2356 28.7664 75.2356 7.31349 75.2356C4.69163 75.2356 3.7356 74.2672 3.7356 71.6223C3.7356 62.3144 3.7356 53.0065 3.7356 43.6987C3.7356 41.5162 4.30053 40.967 6.50231 40.967C10.4858 40.967 14.4548 40.967 18.4383 40.967C19.0322 40.967 19.5682 41.0393 19.8144 41.6752C20.0896 42.3834 19.5682 43.0338 18.6701 43.0483C16.3958 43.0627 14.1361 43.0483 11.8619 43.0483C9.90638 43.0483 7.95085 43.0483 5.93738 43.0483V45.2596H73.0483V43.0483H71.846C55.8396 43.0483 39.8332 43.0483 23.8269 43.0483C22.5087 43.0483 21.9872 42.7448 21.9872 42.0076C21.9872 41.2705 22.5232 40.967 23.8269 40.967C29.201 40.967 34.575 40.967 39.9636 40.967C40.2968 40.967 40.6444 40.967 41.1514 40.967V40.9815ZM41.9481 73.1254C42.2233 73.1399 42.4116 73.1543 42.6 73.1543C52.3921 73.1543 62.1842 73.1543 71.9764 73.1543C73.0193 73.1543 73.1497 72.9953 73.1497 71.8535C73.1497 64.0343 73.1497 56.2151 73.1497 48.396C73.1497 48.0924 73.1207 47.8034 73.0918 47.4999H41.9481V73.1109V73.1254ZM22.0452 73.1688V47.5432H5.87944C5.87944 47.9046 5.87944 48.1792 5.87944 48.4538C5.87944 56.2441 5.87944 64.0343 5.87944 71.8102C5.87944 73.0676 5.98083 73.1688 7.28452 73.1688C11.8909 73.1688 16.4828 73.1688 21.0891 73.1688H22.0596H22.0452ZM24.2469 73.1109H39.6884V47.5143H24.2469V73.1109ZM69.8325 40.9381C69.9581 39.5988 69.3883 38.9291 68.1233 38.9291C60.388 38.9291 52.6673 38.9291 44.9321 38.9291C43.7443 38.9291 43.1939 39.5313 43.2808 40.7358C43.2808 40.7358 43.3387 40.8369 43.3967 40.9381H69.847H69.8325Z" fill="#4F4F4F"/>
<path d="M41.7743 22.2935V24.9384C42.1654 24.9384 42.4986 24.9384 42.8317 24.9384C47.2788 24.9384 51.7258 24.9384 56.1728 24.9384C56.448 24.9384 56.8102 24.8372 56.9985 24.9818C57.3606 25.2419 57.8821 25.6177 57.8821 25.9646C57.8821 26.3115 57.3896 26.7017 57.0419 26.9908C56.8971 27.1208 56.5639 27.0341 56.3177 27.0341C51.5664 27.0341 46.8007 27.0341 42.0495 27.0341C40.2823 27.0341 39.6449 26.3837 39.6305 24.6204C39.6305 23.8111 39.616 23.0017 39.6305 22.2068C39.6739 21.0071 40.2388 20.4146 41.3832 20.1544C41.7164 20.0821 42.1075 19.8075 42.2668 19.5185C43.8167 16.6278 45.3522 13.7083 46.8442 10.7887C47.018 10.4563 47.0904 10.0227 47.0904 9.63247C47.0904 8.14379 47.0325 6.65511 47.018 5.16643C47.018 4.1258 47.3657 3.76447 48.4086 3.76447C53.3771 3.76447 58.3601 3.76447 63.3286 3.76447C64.4005 3.76447 64.6902 4.05353 64.7916 5.12307C64.8061 5.31096 64.8351 5.49885 64.8206 5.68674C64.5309 8.90981 65.4724 11.7571 67.1672 14.4743C68.1812 16.1075 68.9634 17.8708 69.8905 19.5618C70.0498 19.8509 70.3685 20.1255 70.6727 20.2556C71.4984 20.6169 71.9619 21.195 71.9909 22.1056C72.0054 23.1028 72.0198 24.0857 71.9909 25.0829C71.9474 26.2536 71.2231 27.0197 70.0498 27.0341C67.1238 27.063 64.2122 27.0341 61.2861 27.0341C60.5619 27.0341 60.0549 26.7017 60.0839 25.9357C60.1128 25.213 60.6198 24.9529 61.3006 24.9529C63.8211 24.9529 66.3416 24.9529 68.8475 24.9529C69.1517 24.9529 69.4559 24.9529 69.8325 24.9529V22.3079H41.7888L41.7743 22.2935ZM44.3817 20.0821H67.6163C67.6163 19.9665 67.6597 19.8942 67.6163 19.8509C66.2546 17.2348 64.9075 14.6188 63.5169 12.0172C63.401 11.786 62.9954 11.5981 62.7202 11.5981C58.2732 11.5692 53.8262 11.5692 49.3936 11.5981C49.0894 11.5981 48.6549 11.9016 48.51 12.1762C47.4236 14.1563 46.3807 16.1798 45.3377 18.1743C45.019 18.7669 44.7293 19.3739 44.3817 20.0532V20.0821ZM49.2198 9.43012H62.7057V5.88909H49.2198V9.43012Z" fill="#4F4F4F"/>
<path d="M19.8868 4.12579C24.4497 4.12579 29.027 4.12579 33.59 4.12579C35.3572 4.12579 35.9945 4.76173 35.9945 6.53948C35.9945 12.552 35.9945 18.579 35.9945 24.5915C35.9945 26.3693 35.3572 27.0197 33.59 27.0197C24.4497 27.0197 15.3238 27.0197 6.18355 27.0197C4.4453 27.0197 3.75 26.3404 3.75 24.606C3.75 18.579 3.75 12.5665 3.75 6.55393C3.75 4.80509 4.4453 4.12579 6.18355 4.12579C10.7465 4.12579 15.3238 4.12579 19.8868 4.12579ZM33.8652 6.27932H21.0166V24.8806H33.8652V6.27932ZM18.7859 6.26487H5.95178V24.8661H18.7859V6.26487Z" fill="#4F4F4F"/>
<path d="M68.9054 52.414C68.9054 52.0093 68.7751 51.5468 68.9344 51.2288C69.1372 50.8241 69.5573 50.2604 69.8905 50.246C70.2381 50.246 70.8755 50.7518 70.9334 51.1132C71.0927 51.9804 71.0783 52.9054 70.9334 53.7726C70.8755 54.1194 70.325 54.5675 69.9339 54.6397C69.369 54.7409 68.9634 54.3073 68.9054 53.7003C68.8765 53.2667 68.9054 52.8331 68.9054 52.3995V52.414Z" fill="#4F4F4F"/>
<path d="M17.9892 52.4284C17.9892 51.9948 17.8588 51.5034 18.0182 51.142C18.192 50.7518 18.6555 50.217 18.9452 50.2315C19.3363 50.2604 19.9447 50.7373 20.0171 51.0987C20.1765 51.9659 20.1765 52.8909 20.0171 53.7581C19.9447 54.1194 19.3363 54.5819 18.9452 54.6108C18.6555 54.6397 18.192 54.0905 18.0326 53.7003C17.8733 53.3389 18.0037 52.8475 18.0037 52.4139L17.9892 52.4284Z" fill="#4F4F4F"/>
<path d="M35.5021 52.3706C35.5021 51.9659 35.3718 51.5034 35.5311 51.1854C35.7339 50.7807 36.1829 50.246 36.5306 50.246C36.8782 50.246 37.4577 50.7807 37.5301 51.1565C37.6894 51.9948 37.6894 52.8909 37.5301 53.7292C37.4577 54.105 36.8782 54.5819 36.5016 54.6253C36.2119 54.6542 35.7194 54.1194 35.5456 53.7436C35.3862 53.3534 35.5021 52.8331 35.5021 52.3706Z" fill="#4F4F4F"/>
<path d="M22.8708 19.981C22.8708 19.5474 22.7549 19.0704 22.8998 18.7091C23.0591 18.3188 23.5081 17.7696 23.7979 17.7985C24.189 17.8274 24.7973 18.2899 24.8698 18.6368C25.0291 19.504 24.9712 20.4145 24.9132 21.3106C24.8698 21.9032 24.4642 22.2501 23.8413 22.2212C23.2184 22.1923 22.8998 21.8021 22.8708 21.195C22.8563 20.7903 22.8708 20.4001 22.8708 19.9954V19.981Z" fill="#4F4F4F"/>
<path d="M16.7868 19.9954C16.7868 20.429 16.9171 20.9204 16.7578 21.2673C16.584 21.6431 16.1784 22.0767 15.8018 22.1634C15.2223 22.3079 14.7878 21.8599 14.7443 21.2673C14.6864 20.4145 14.6284 19.5184 14.7733 18.6946C14.8457 18.3188 15.3817 17.8419 15.7873 17.7551C16.3667 17.6251 16.7433 18.0876 16.8012 18.6946C16.8302 19.1282 16.8012 19.5618 16.8012 19.9809L16.7868 19.9954Z" fill="black"/>
</svg>
