<svg width="79" height="79" viewBox="0 0 79 79" fill="none" xmlns="http://www.w3.org/2000/svg">
<g clip-path="url(#clip0_974_1501)">
<path d="M9.21672 67.8012C15.0279 67.8012 20.839 67.8012 26.6727 67.8012C29.2854 67.8012 31.8757 67.8012 34.4885 67.8012C35.4345 67.8012 36.2228 67.5309 36.7408 66.6975C37.6868 65.1208 36.5832 63.2514 34.6461 63.2514C30.3891 63.2289 26.1321 63.2514 21.8751 63.2514C17.6857 63.2514 13.4962 63.2514 9.30682 63.2514C8.18063 63.2514 7.3022 63.6118 6.85172 64.6704C6.17601 66.2696 7.32472 67.8012 9.26177 67.8012H9.21672Z" fill="white"/>
<path d="M75.1665 62.3279C68.0039 56.0212 60.7963 49.7821 53.6112 43.498C50.1875 40.5248 46.7864 37.5292 43.3403 34.5335C44.2863 33.3172 44.7818 32.0334 44.489 30.5468C44.2187 29.0602 43.3178 28.0016 42.0564 27.2358C42.9574 26.1546 44.0536 25.6141 45.3449 25.6141C45.5026 25.6141 45.6828 25.6141 45.8404 25.5915C48.3856 25.2762 50.2101 23.9924 51.0885 21.5598C51.9444 19.1723 51.4263 16.9874 49.647 15.2081C46.3585 11.852 43.0024 8.54101 39.6689 5.23001C38.6103 4.17139 37.5967 3.09025 36.493 2.0992C34.556 0.34234 31.8531 0.0495304 29.6008 1.24329C27.3484 2.43706 26.0645 4.86963 26.4249 7.41482C26.515 8.02296 26.3573 8.40587 25.9519 8.83382C20.2309 14.5323 14.5098 20.2759 8.76623 25.9519C8.47342 26.2447 7.8878 26.4475 7.48237 26.4024C4.84708 26.1321 2.41451 27.3484 1.22075 29.6458C0.0269875 31.9207 0.319797 34.7137 2.18927 36.6057C6.5589 41.0429 10.951 45.4576 15.3882 49.8047C17.2802 51.6516 20.0507 51.9669 22.3481 50.7732C24.6455 49.5794 25.8843 47.1468 25.569 44.5116C25.524 44.1737 25.569 43.7683 25.7717 43.498C26.1546 42.9349 26.6276 42.4619 27.0781 41.9438C29.6458 44.9846 31.6054 45.3224 34.5785 43.3854C34.8488 43.6782 35.0741 43.9259 35.2993 44.1737C39.2635 48.7235 43.2052 53.2508 47.1693 57.8006C52.2372 63.6118 57.2825 69.4454 62.3729 75.2566C65.3911 78.7027 70.0536 79.491 73.8826 77.3062C79.491 74.1078 80.1893 66.7426 75.2115 62.3504L75.1665 62.3279ZM31.7405 3.65334C32.8217 3.38306 33.7677 3.65334 34.556 4.41915C38.9031 8.74373 43.2502 13.0683 47.5297 17.4379C48.0252 17.956 48.2505 18.7668 48.4307 19.1497C48.3406 20.794 47.8 21.74 46.6288 22.2805C45.39 22.8436 44.2187 22.6409 43.2502 21.7174C41.7186 20.2309 40.232 18.7218 38.7229 17.2127C35.9525 14.4423 33.1595 11.6718 30.4116 8.87887C28.6322 7.05444 29.353 4.28401 31.7405 3.67587V3.65334ZM20.7714 48.1379C19.6227 48.6559 18.4965 48.4983 17.5505 47.6424C16.8072 46.9892 16.154 46.2684 15.4558 45.5702C11.852 41.9664 8.22566 38.34 4.62185 34.7362C3.72089 33.8353 3.33799 32.7541 3.74342 31.4928C4.12632 30.3215 4.9597 29.6458 6.15347 29.4431C7.14451 29.2629 8.04547 29.5783 8.74371 30.2765C13.0458 34.5786 17.3703 38.8806 21.6499 43.2277C22.1679 43.7683 22.3931 44.6017 22.6184 45.0071C22.4832 46.6513 21.9201 47.6198 20.7714 48.1379ZM23.8121 40.8176C19.6227 36.6282 15.3657 32.3712 11.2213 28.2268C16.8523 22.5959 22.5508 16.8748 28.1592 11.2664C32.3036 15.4108 36.5831 19.6678 40.7726 23.8572C35.1641 29.4656 29.4881 35.1416 23.8121 40.8176ZM32.5964 40.9077C32.0784 41.4258 31.4477 41.7411 30.7945 41.3357C30.3666 41.0654 30.0738 40.5474 29.6909 40.0969C30.0062 39.5338 30.1864 39.0833 30.4792 38.768C33.2271 35.975 35.9975 33.2046 38.768 30.4567C39.4887 29.7359 40.4122 29.7134 41.0203 30.299C41.6961 30.9297 41.6735 31.8306 40.8852 32.619C38.1373 35.3894 35.3443 38.1598 32.5739 40.9303L32.5964 40.9077ZM36.876 41.3582C38.3625 39.8942 39.8041 38.4526 41.3807 36.8985C47.4171 42.1691 53.6337 47.5973 59.8728 53.0256C57.5754 55.3455 55.3455 57.5529 53.0255 59.8953C47.6423 53.7238 42.2141 47.4847 36.876 41.3357V41.3582ZM55.2329 62.4405C57.6429 60.053 60.0079 57.688 62.4405 55.2779C63.0261 55.796 63.7469 56.4041 64.4001 56.9898C61.8999 59.5124 59.4899 61.9675 57.0123 64.4902C56.4266 63.8145 55.796 63.1162 55.2329 62.4405ZM73.4321 73.815C71.0446 76.0224 67.3507 76.0224 65.0758 73.6799C63.0261 71.5401 61.1341 69.2202 59.1745 66.9903C61.8098 64.355 64.3325 61.8324 66.9903 59.1746C69.3328 61.2918 71.8555 63.2964 74.0403 65.6164C76.2476 67.9589 75.8196 71.6077 73.4321 73.815Z" fill="#4F4F4F"/>
<path d="M39.9392 69.2202C39.6689 69.0175 39.3986 68.8373 39.1509 68.6571C41.6736 64.6253 38.7905 60.2107 34.8263 60.2107C26.1546 60.2107 17.5055 60.2107 8.83381 60.2107C6.22105 60.2107 4.10381 62.0576 3.63081 64.6253C3.36052 66.0669 3.72091 67.3732 4.55429 68.6571C1.69376 70.4365 0.409903 72.9366 0.499999 76.2026C0.56757 78.0946 0.927951 78.5 2.865 78.5C15.5234 78.5 28.1818 78.5 40.8176 78.5C41.133 78.5 41.4258 78.5 41.7411 78.5C42.5069 78.4099 43.0475 77.982 43.1151 77.2387C43.4304 74.0403 42.6871 71.2473 39.9392 69.2652V69.2202ZM6.80667 64.6704C7.25715 63.5892 8.13558 63.2514 9.26177 63.2514C13.4512 63.2514 17.6406 63.2514 21.8301 63.2514C26.0871 63.2514 30.3441 63.2514 34.6011 63.2514C36.5381 63.2514 37.6643 65.1434 36.6958 66.6975C36.1777 67.5309 35.3894 67.8012 34.4434 67.8012C31.8306 67.8012 29.2404 67.8012 26.6276 67.8012C20.8165 67.8012 15.0053 67.8012 9.17167 67.8012C7.23462 67.8012 6.08591 66.2696 6.76162 64.6704H6.80667ZM3.60829 75.3692C3.69838 72.9366 5.36515 71.1122 7.6851 70.9095C7.95539 70.887 8.22567 70.887 8.49596 70.887C17.3929 70.887 26.2898 70.887 35.1867 70.887C37.8445 70.887 39.6689 72.396 40.0744 74.8286C40.0969 74.9863 40.0744 75.1665 40.0744 75.3917H3.60829V75.3692Z" fill="#4F4F4F"/>
<path d="M29.3981 16.6496C29.2629 16.2442 28.6322 16.0189 28.2719 15.7486C27.7763 15.9513 27.416 16.0189 27.1907 16.2216C24.9609 18.429 22.7085 20.6363 20.5237 22.8887C19.9381 23.4968 20.0056 24.2852 20.6138 24.8933C21.2219 25.5014 22.0328 25.569 22.6184 24.9834C24.8708 22.7986 27.1006 20.5912 29.2629 18.2938C29.5782 17.956 29.5782 17.1226 29.3981 16.6271V16.6496Z" fill="#4F4F4F"/>
<path d="M17.3478 26.6276C16.5144 26.6276 15.8838 27.2808 15.8838 28.1142C15.8838 28.9926 16.537 29.6458 17.4154 29.6233C18.2262 29.6233 18.8794 28.9476 18.902 28.1367C18.902 27.2808 18.2037 26.6051 17.3478 26.6276Z" fill="#4F4F4F"/>
</g>
<defs>
<clipPath id="clip0_974_1501">
<rect width="78" height="78" fill="white" transform="translate(0.5 0.5)"/>
</clipPath>
</defs>
</svg>
