<svg width="79" height="79" viewBox="0 0 79 79" fill="none" xmlns="http://www.w3.org/2000/svg">
<g clip-path="url(#clip0_981_3881)">
<path d="M78.5 11.4472V27.401H69.7709V37.9983H78.4669V53.9686H65.3071V67.2938C64.712 67.2938 64.2656 67.2938 63.8027 67.2938C49.9154 67.2938 36.0282 67.2938 22.141 67.2772C21.2482 67.2772 20.7357 67.426 20.3389 68.3684C19.3139 70.8317 16.6687 72.1212 14.0897 71.6253C11.5106 71.1293 9.47711 68.9305 9.44405 66.3184C9.37792 61.4744 9.42752 56.6304 9.42752 51.7864C9.42752 51.6872 9.47711 51.5714 9.54324 51.373H13.6268C14.1723 49.5049 14.0235 49.0585 12.5356 48.0666C8.76622 45.5536 4.99683 43.0242 1.19437 40.5278C0.549603 40.0979 0.367746 39.7342 0.5992 38.9407C3.27745 29.7982 5.90611 20.6393 8.58436 11.4968C9.44405 8.50446 11.4775 7.03307 14.6352 7.00001C16.1727 7.00001 17.7929 6.83468 19.0825 7.84316C19.9587 8.52099 20.8514 9.39721 21.3309 10.3726C21.7772 11.2819 22.2567 11.4472 23.1494 11.4472C41.0706 11.4307 59.0083 11.4307 76.9294 11.4307C77.4254 11.4307 77.9214 11.4307 78.5165 11.4307L78.5 11.4472ZM13.8913 45.7686V35.0059H16.5199V45.6528C16.8175 45.504 16.9498 45.4544 17.0655 45.3718C20.1405 43.3218 23.199 41.2717 26.2906 39.2548C26.8858 38.858 26.8362 38.4612 26.6708 37.8991C24.191 29.3849 21.7276 20.8542 19.2312 12.34C18.6361 10.29 17.6607 9.67826 15.1312 9.67826C12.7009 9.67826 11.709 10.323 11.1138 12.3069C10.4856 14.4065 9.89042 16.5062 9.27872 18.6223C7.41056 25.0865 5.52586 31.5341 3.69076 37.9983C3.59157 38.329 3.6577 38.9241 3.87262 39.0564C7.09644 41.2717 10.3699 43.4209 13.8913 45.7686ZM53.6848 40.7923H34.3088V51.2408H53.6848V40.7923ZM75.8383 40.8088H56.4623V51.2573H75.8383V40.8088ZM34.3088 24.6401H53.6683V14.1751H34.3088V24.6401ZM56.4623 24.6401H75.8218V14.1751H56.4623V24.6401ZM66.9604 37.9487V27.4672H47.6174V37.9487H66.9604ZM21.0333 64.5329H40.3762V54.0513H21.0333V64.5329ZM43.1867 54.0348V64.5494H62.4966V54.0348H43.1867ZM26.4063 27.4341C27.4148 30.9059 28.3406 34.2124 29.3656 37.5189C29.4483 37.7669 30.0765 37.9983 30.4568 37.9983C34.4907 38.0314 38.5246 38.0148 42.5585 38.0148C43.2859 38.0148 43.9968 38.0148 44.7573 38.0148V27.4341H26.4063ZM31.4983 51.2573V40.7923C29.2168 40.5112 29.0846 40.5443 27.3321 41.7016C24.191 43.7847 21.1159 45.9669 17.9087 47.9343C16.5365 48.7775 16.2719 49.7859 16.6522 51.2408H31.4983V51.2573ZM18.2558 54.0844H12.0727C12.0727 58.1513 12.0231 62.1026 12.0892 66.0704C12.1223 67.8559 13.5937 69.1123 15.2635 69.0462C16.9663 68.9801 18.2062 67.674 18.2393 65.8554C18.2724 63.8881 18.2393 61.9373 18.2393 59.9699C18.2393 58.0191 18.2393 56.0683 18.2393 54.0844H18.2558ZM22.5543 14.1751C23.5462 17.6138 24.4886 20.8872 25.4474 24.1607C25.5136 24.3756 25.7616 24.7062 25.9269 24.7062C27.795 24.7393 29.6467 24.7228 31.4983 24.7228V14.1586H22.5543V14.1751Z" fill="#4F4F4F"/>
</g>
<defs>
<clipPath id="clip0_981_3881">
<rect width="78" height="78" fill="white" transform="translate(0.5 0.5)"/>
</clipPath>
</defs>
</svg>
