<svg width="79" height="79" viewBox="0 0 79 79" fill="none" xmlns="http://www.w3.org/2000/svg">
<g clip-path="url(#clip0_981_1622)">
<path d="M51.9518 29.9458C49.109 27.0795 46.2428 24.2368 43.3765 21.3705C43.1181 21.1121 42.8596 20.8066 42.5542 20.4777C43.8934 19.1621 45.162 17.9169 46.4072 16.6717C47.6289 15.4735 48.0518 15.4735 49.2735 16.6717C52.1163 19.5145 54.9355 22.3572 57.7783 25.1765C59.5404 26.9151 61.7723 26.9151 63.5578 25.1765C64.0747 24.6831 64.5916 24.1663 65.0849 23.6494C66.847 21.8169 66.894 19.6084 65.0849 17.7994C61.1849 13.8759 57.3084 9.95242 53.3614 6.07591C50.1428 2.92772 45.5379 2.95122 42.2723 6.07591C40.9331 7.34459 39.641 8.66025 38.3723 9.97591C37.3386 11.0331 36.3753 12.1139 35.3885 13.1711C35.0596 12.9362 34.9657 12.8892 34.8952 12.8187C31.841 10.0464 28.1759 10.1169 25.2391 13.0066C23.9705 14.2518 22.7253 15.497 21.4801 16.7657C18.191 20.0548 18.05 23.5084 21.2922 27.197C20.0235 28.3952 18.7783 29.5229 17.6036 30.7446C16.1 32.3187 16.1 34.5036 17.5566 36.1247C18.0735 36.6886 18.6138 37.2054 19.1542 37.7458C21.1042 39.6723 23.3126 39.6723 25.2391 37.7693C26.3434 36.6651 27.4006 35.5374 28.5283 34.3862C29.1157 34.9735 29.609 35.4904 30.2904 36.1717C29.9145 36.4536 29.562 36.6416 29.2801 36.9235C20.2819 45.8982 11.3072 54.8964 2.30903 63.8711C-0.157837 66.338 -0.157837 69.3452 2.28554 71.812C3.88313 73.4331 5.50421 75.0307 7.1018 76.6283C9.56867 79.0717 12.5759 79.0952 15.0428 76.6283C27.3536 64.3175 39.6645 52.0301 51.9518 39.6958C54.912 36.7355 54.8885 32.8825 51.9048 29.8988L51.9518 29.9458ZM38.8657 13.1711C40.5807 11.503 42.2253 9.81146 43.9169 8.11989C46.2898 5.77049 49.3205 5.77049 51.6934 8.11989C55.4759 11.8789 59.2584 15.6615 63.0175 19.444C64.0747 20.5012 64.0512 20.9946 62.994 22.0753C62.6181 22.4512 62.2422 22.8506 61.8428 23.2265C60.9265 24.1193 60.3626 24.1193 59.4464 23.2265C56.7211 20.5012 53.9958 17.7759 51.247 15.0271C48.7801 12.5603 46.8301 12.5603 44.3867 15.0036C43.1651 16.2253 41.9669 17.447 40.7687 18.6452C39.5235 17.4 38.3488 16.2253 36.8922 14.7687C37.503 14.2518 38.2078 13.7584 38.8187 13.1711H38.8657ZM23.1247 36.2187C22.5373 36.7825 21.8795 36.759 21.2922 36.2187C20.6813 35.6548 20.094 35.0675 19.5301 34.4566C18.9428 33.8223 18.9428 33.1645 19.5301 32.5301C20.6578 31.3319 21.8325 30.1572 22.9602 29.006C24.2759 30.3217 25.4506 31.4964 26.6723 32.7181C25.5211 33.8693 24.3464 35.0675 23.1247 36.2187ZM21.809 66.0795C20.6108 65.3747 20.2349 63.8711 21.0102 62.6024C21.1747 62.3205 21.4096 62.0855 21.6211 61.8506C26.6488 56.8229 31.6765 51.7952 36.7042 46.7675C38.1373 45.3343 39.7114 45.4048 41.0036 46.8849C34.5663 53.3223 28.1994 59.6892 21.809 66.0795ZM50.4247 37.6048C48.0048 40.0952 45.5379 42.5151 43.0476 45.0289C42.8126 44.841 42.6012 44.6765 42.3898 44.4886C40.2988 42.6795 37.2916 42.609 35.2946 44.559C29.9614 49.7982 24.6753 55.0843 19.4361 60.394C17.4861 62.3675 17.5331 65.3747 19.3657 67.4892C19.5301 67.6771 19.6946 67.8651 19.953 68.1235C17.5801 70.4964 15.3012 72.8223 12.9753 75.0777C11.8476 76.1819 10.4145 76.1584 9.28674 75.0777C7.47771 73.3157 5.69216 71.5301 3.93011 69.7211C2.8259 68.5699 2.84939 67.1368 4.0006 65.9621C5.62168 64.3175 7.26626 62.6964 8.88734 61.0518C16.7108 53.2283 24.5578 45.3813 32.3813 37.5578C33.697 36.2422 33.697 35.8428 32.3813 34.5271C29.2801 31.4024 26.1554 28.3012 23.0307 25.1765C20.9632 23.109 20.9867 20.9476 23.0542 18.8566C24.3934 17.494 25.756 16.1313 27.1187 14.7922C28.9747 12.9596 31.2066 12.9127 33.0392 14.7452C38.7952 20.4777 44.5277 26.2103 50.2602 31.9663C51.9283 33.6343 51.9753 35.9368 50.3777 37.5813L50.4247 37.6048Z" fill="#4F4F4F"/>
<path d="M76.597 49.3048C76.0566 48.9759 75.8921 48.6235 75.8921 48.0361C75.9156 44.8879 75.8921 41.7632 75.8921 38.615C75.8921 37.4638 75.4458 37.0175 74.3415 37.0175C71.0524 37.0175 67.7632 37.0175 64.4976 37.0175C63.3699 37.0175 62.9235 37.4638 62.9235 38.5916C62.9235 40.1891 62.9235 41.7632 62.9235 43.3608C62.9235 44.8879 62.9 46.3916 62.9235 47.9187C62.9235 48.5765 62.7825 48.9994 62.1482 49.3753C59.8927 50.7614 59.6108 54.0506 61.7723 55.5072C62.994 56.3295 62.947 57.2223 62.9 58.3265C62.7825 60.7699 60.997 62.6964 58.5771 62.9548C57.6138 63.0488 56.6271 63.0488 55.6638 62.9783C55.2879 62.9548 54.8181 62.6729 54.6066 62.344C52.915 59.8301 49.5554 59.7831 47.9343 62.344C47.5819 62.8843 47.2295 63.0488 46.6421 63.0488C43.5644 63.0488 40.5102 63.0488 37.4325 63.0488C36.0229 63.0488 35.6235 63.4482 35.6235 64.8578C35.6235 67.9355 35.6235 70.9897 35.6235 74.0675C35.6235 75.7355 35.9759 76.0644 37.6674 76.0644C40.6277 76.0644 43.5879 76.0644 46.5482 76.0644C47.159 76.0644 47.5584 76.1819 47.9578 76.7693C49.5554 79.2596 52.9385 79.2596 54.5126 76.7693C54.865 76.2289 55.2175 76.0879 55.8048 76.0644C57.4964 76.0175 59.2114 76.0879 60.8795 75.7825C70.0891 74.1379 76.1976 66.5494 75.9626 57.1988C75.9626 56.5879 76.1036 56.259 76.644 55.9301C79.1343 54.3795 79.1108 50.9259 76.6205 49.3753L76.597 49.3048ZM47.253 73.3391H38.2783V65.6801H47.253V73.3391ZM51.247 75.947C50.4482 76.0175 49.9313 75.3831 49.9313 74.3494C49.9313 71.1072 49.9313 67.865 49.9313 64.6229C49.9313 63.7536 50.2367 63.1193 51.2 63.0723C52.0223 63.0253 52.5156 63.6361 52.5156 64.6699C52.5156 66.291 52.5156 67.912 52.5156 69.5331C52.5156 71.1542 52.5156 72.7048 52.5156 74.3024C52.5156 75.1952 52.2572 75.9 51.247 75.9705V75.947ZM65.5783 39.6958H73.2373V48.647H65.5783V39.6958ZM55.1705 73.2687V65.6096C55.9223 65.6096 56.6741 65.6096 57.4259 65.6096C62.3596 65.6096 65.4843 62.5319 65.5313 57.5982C65.5313 57.2693 65.5313 56.9638 65.5313 56.5644H73.2138C75.0699 65.7271 65.0849 74.9837 55.194 73.2687H55.1705ZM74.2711 53.8861C71.0289 53.8861 67.7867 53.8861 64.5446 53.8861C63.5108 53.8861 62.8765 53.3223 62.947 52.547C63.0409 51.6072 63.6753 51.3018 64.5446 51.3018C66.1656 51.3018 67.7867 51.3018 69.4078 51.3018C71.0289 51.3018 72.65 51.3018 74.2711 51.3018C75.1403 51.3018 75.7747 51.6072 75.8687 52.547C75.9626 53.3458 75.3048 53.8861 74.2711 53.8861Z" fill="#4F4F4F"/>
<path d="M34.2843 20.0078C33.5795 19.35 32.5223 19.0446 32.0524 18.7861C29.8675 18.9271 28.6693 19.6554 28.0114 21.1355C27.3066 22.7331 27.5885 24.2132 28.7632 25.4349C31.1831 27.9253 33.6265 30.3687 36.0934 32.7885C37.6675 34.3156 40.0638 34.2687 41.544 32.7885C43.0946 31.2614 43.1416 28.8885 41.544 27.244C39.1476 24.8006 36.7512 22.3337 34.2608 20.0078H34.2843ZM39.7349 30.956C39.0301 31.5669 38.3488 31.3789 37.7379 30.7446C35.3885 28.3952 33.0391 26.0693 30.7367 23.6964C30.4078 23.3675 30.2669 22.6391 30.3843 22.1693C30.4548 21.8169 31.0656 21.5584 31.4885 21.2295C31.9584 21.5584 32.3578 21.7464 32.6397 22.0283C34.9422 24.3072 37.2446 26.5861 39.5235 28.8885C40.2753 29.6638 40.3458 30.4157 39.7349 30.956Z" fill="#4F4F4F"/>
</g>
<defs>
<clipPath id="clip0_981_1622">
<rect width="78" height="78" fill="white" transform="translate(0.5 0.5)"/>
</clipPath>
</defs>
</svg>
