<svg width="79" height="79" viewBox="0 0 79 79" fill="none" xmlns="http://www.w3.org/2000/svg">
<g clip-path="url(#clip0_981_29)">
<path d="M12.0536 50.881C11.8989 50.8852 11.7368 50.8914 11.5682 50.8927C10.9284 56.7058 10.2888 62.4649 9.63074 68.3507C27.7746 70.9925 45.7904 73.6159 63.7694 76.2394C63.7997 76.171 63.8269 76.1108 63.8466 76.0656C63.858 76.0392 63.8666 76.0177 63.8729 76.0031C63.8751 75.998 63.8773 75.9938 63.8788 75.9904C63.8879 73.0323 63.8928 70.0787 63.8973 67.1251C63.9019 64.1622 63.9067 61.1992 63.9159 58.2316L63.9032 58.048C63.878 57.8857 63.8168 57.7859 63.7313 57.7198C63.6128 57.6283 63.4375 57.5923 63.2069 57.5646H63.2059C59.5862 57.096 55.9711 56.623 52.3583 56.1476L41.5233 54.7169C31.8582 53.4307 22.211 52.1625 12.5458 50.8947V50.8937C12.3845 50.8759 12.2223 50.8764 12.0536 50.881ZM68.9501 14.3937C68.3661 14.8015 67.9222 15.1489 67.453 15.42L67.2411 15.5363C66.7986 15.762 66.522 16.0355 66.3553 16.3732C66.1882 16.7122 66.1288 17.1213 66.1288 17.6232L66.1454 46.297C66.1477 55.8566 66.1473 65.4168 66.1473 74.9718V76.2374C66.6693 76.1686 67.0211 76.1322 67.3739 76.0616L67.3837 76.0597V76.0607H67.3983C67.8793 75.9655 68.2295 75.9162 68.4637 75.8722C68.5837 75.8496 68.6755 75.8281 68.746 75.8019C68.816 75.7758 68.8627 75.7464 68.8944 75.7101C68.9581 75.6367 68.9768 75.5203 68.9745 75.2892C68.9733 75.1756 68.9676 75.039 68.9618 74.8712C68.956 74.7037 68.9501 74.5061 68.9501 74.2736V14.3937ZM10.7616 31.3868C10.3598 37.0855 9.97529 42.6574 9.59167 48.2472C27.7668 50.6314 45.7772 52.9975 63.8241 55.3634V38.339C46.1427 36.0096 28.5163 33.7162 10.7616 31.3868ZM9.30066 28.9171C27.5666 31.3195 45.6863 33.6851 63.8241 36.0509V16.674C46.4723 14.1244 29.1939 11.5741 11.8055 9.02454C10.9646 15.6795 10.1416 22.2439 9.30066 28.9171ZM20.8876 6.11438C18.8955 5.80929 17.3658 6.61537 15.6805 7.25696C15.7783 7.333 15.8709 7.35656 15.952 7.35657H15.9589L15.952 7.40637L15.9589 7.35754C17.9158 7.64236 19.8688 7.92722 21.8212 8.21204C23.7734 8.49683 25.7257 8.78173 27.6825 9.06653L45.3202 11.6525C51.1786 12.5178 57.035 13.3961 62.8866 14.3116V14.2941L62.9442 14.3029C63.7999 14.4394 64.5037 14.3574 65.1425 14.1105C65.758 13.8725 66.3155 13.4792 66.8954 12.9767C66.7913 12.9465 66.6939 12.9172 66.6034 12.8888C66.5451 12.8705 66.4891 12.8536 66.4344 12.839L66.2733 12.8029C64.8404 12.5916 63.4075 12.3855 61.9745 12.1788L57.6747 11.5538C46.9347 9.9782 36.2079 8.44421 25.4833 6.8175L20.8876 6.11438ZM71.2372 76.1837C71.2372 76.8435 71.1789 77.2263 70.9413 77.4835C70.8228 77.6118 70.6632 77.706 70.454 77.7892C70.3494 77.8308 70.2311 77.8694 70.0985 77.9093L69.6561 78.0333C65.8345 79.0491 62.0959 78.3581 58.37 77.7638L56.7743 77.5197C51.9876 76.8398 47.2007 76.1415 42.4139 75.4386L28.0536 73.3302L8.53992 70.4825H8.53894C8.00461 70.3996 7.65869 70.2632 7.47156 69.9679C7.28664 69.6759 7.26635 69.2414 7.33972 68.59L9.2323 51.5197L9.2782 51.0206C9.29082 50.8647 9.30368 50.7045 9.32019 50.5343C9.21832 50.51 9.12926 50.4858 9.04968 50.4659C8.95832 50.4431 8.87793 50.4259 8.79871 50.4171H8.79578C8.45572 50.362 8.18591 50.3053 7.97449 50.2306C7.76243 50.1556 7.60509 50.0603 7.495 49.923C7.38496 49.7857 7.32588 49.612 7.29968 49.3888C7.27357 49.1661 7.27963 48.8899 7.30261 48.545L7.86511 40.3859C8.05575 37.6664 8.24933 34.947 8.44226 32.2277C8.46031 31.9033 8.49389 31.5874 8.49597 31.2687C7.94695 31.0151 7.54905 30.6671 7.30847 30.2198C7.06352 29.7644 6.98379 29.2129 7.06433 28.5685L8.32507 18.4786C8.74079 15.1138 9.14975 11.7468 9.5448 8.37512V8.37415L9.57312 8.18176C9.64692 7.74357 9.78185 7.39054 10.0077 7.10461C10.2658 6.77785 10.638 6.54381 11.1581 6.36731H11.1591L12.0028 6.07825C12.8453 5.78375 13.6821 5.4731 14.5194 5.16125C15.6355 4.74559 16.7528 4.32767 17.8837 3.94153H17.8846L18.1249 3.87024C18.6948 3.71702 19.3208 3.65591 19.8915 3.73743L29.9618 5.20129C40.0291 6.66901 50.086 8.14747 60.1327 9.63586L64.9442 10.3361C66.5454 10.5727 68.1443 10.812 69.743 11.0509H69.7421C70.3375 11.1333 70.7103 11.2399 70.9286 11.4972C71.1426 11.7497 71.1973 12.1358 71.1991 12.7404L71.2098 12.7462L71.2372 12.7599V76.1837Z" fill="#4F4F4F" stroke="black" stroke-width="0.1"/>
</g>
<defs>
<clipPath id="clip0_981_29">
<rect width="78" height="78" fill="white" transform="translate(0.5 0.5)"/>
</clipPath>
</defs>
</svg>
