<svg width="79" height="79" viewBox="0 0 79 79" fill="none" xmlns="http://www.w3.org/2000/svg">
<path d="M27.4337 18.5836C29.639 16.8436 32.675 16.6092 35.086 18.0074L35.3214 18.1509C37.6364 19.6253 38.7574 22.2487 38.2921 25.1177L38.2403 25.4058C38.1481 25.8946 38.0194 26.3841 37.8438 26.8463L37.8399 26.8453C36.7297 29.7449 35.654 32.6335 36.0743 36.0504L36.084 36.1334L36.0069 36.1031C35.5299 35.9196 35.1051 35.7783 34.712 35.6353C34.4178 35.5283 34.1421 35.4208 33.8799 35.2955L33.6221 35.1636C29.9491 33.1659 27.2411 30.2376 25.6573 26.3609V26.3599C24.4293 23.3767 25.0664 20.5989 27.2237 18.7564L27.4337 18.5836Z" stroke="black" stroke-width="0.1"/>
<path d="M39.6819 37.188C40.8569 37.2729 41.7249 38.1599 41.7649 39.358H41.7766V39.4078C41.7858 40.7207 40.8173 41.6978 39.5042 41.6978C38.2202 41.6976 37.2614 40.7864 37.2239 39.5191L37.2249 39.5181C37.1787 38.1961 38.1179 37.2093 39.4397 37.1812L39.6819 37.188Z" stroke="black" stroke-width="0.1"/>
<path d="M52.7449 25.5153C55.6561 24.3601 58.4343 25.0801 60.2302 27.2556L60.3982 27.4684C62.0308 29.6163 62.2788 32.494 61.0261 34.822L60.8953 35.0534C59.4612 37.4732 56.8203 38.6945 53.9509 38.2643L53.6726 38.2175C53.3545 38.1621 53.0361 38.0911 52.7214 38.0007L52.408 37.903C51.0607 37.4593 49.7598 36.9075 48.4119 36.5368L47.8308 36.3893C46.2825 36.032 44.6735 35.9689 42.9695 35.7663L42.906 35.7585L42.9285 35.6989C43.0431 35.3918 43.1455 35.0595 43.2634 34.7184C43.3807 34.3792 43.5128 34.0342 43.6843 33.7097L43.8767 33.3542C45.8982 29.7106 48.8605 27.062 52.7458 25.5182L52.7449 25.5153Z" stroke="black" stroke-width="0.1"/>
<path d="M42.9843 42.7766C43.4429 42.9509 43.8585 43.0883 44.247 43.2278C44.6343 43.3669 44.9927 43.508 45.331 43.6887L45.6786 43.8811C49.2388 45.9006 51.8542 48.8119 53.3886 52.6389L53.4931 52.9124C54.4846 55.6401 53.8544 58.2127 51.9189 59.969L51.7216 60.1418C49.5625 61.9695 46.5262 62.2873 44.0927 60.968L43.8583 60.8352C41.3697 59.3547 40.1584 56.588 40.7314 53.6028L40.8456 53.0793C40.9649 52.5816 41.1159 52.0916 41.2978 51.6145H41.2861L41.3124 51.5461C42.377 48.8204 43.2827 46.0758 42.9169 42.8293L42.9072 42.7473L42.9843 42.7766Z" stroke="black" stroke-width="0.1"/>
<path d="M30.4254 14.9338C37.0474 14.0893 42.0599 20.0109 40.2691 26.5627L40.1763 26.8801C39.6535 28.5932 39.0828 30.2883 38.5855 32.0012L38.3775 32.7365C38.278 33.0983 38.2441 33.4776 38.2281 33.8654C38.2129 34.2332 38.2119 34.6139 38.188 34.9875H40.7545C42.7523 29.2996 46.7599 25.4749 52.2632 23.2687V23.2414L52.2945 23.2287C57.3946 21.196 63.1658 24.7342 63.9507 30.1633L63.9918 30.4826C64.7339 37.0407 58.8728 41.9484 52.3922 40.1974L52.0787 40.1076C50.3403 39.5845 48.6289 38.9994 46.8873 38.4924L46.1392 38.2805C45.7825 38.1811 45.406 38.1511 45.024 38.1408C44.6625 38.1311 44.2906 38.1375 43.9341 38.1183V40.6408C44.9214 41.0733 46.019 41.4434 46.9859 42.009L47.3589 42.2336C51.1799 44.5857 53.97 47.8795 55.6285 52.0793L55.7925 52.5295C57.298 57.0523 54.7856 61.9375 50.2525 63.4963L49.7925 63.6408C44.7795 65.0716 39.4886 61.8694 38.5093 56.8361L38.4478 56.4885C38.173 54.7556 38.4263 53.0778 38.9703 51.4113L39.8218 48.7639C40.0994 47.8796 40.3656 46.9922 40.6041 46.0978L40.6646 45.8264C40.7152 45.5514 40.7377 45.2669 40.7505 44.9767C40.7668 44.6098 40.7695 44.2292 40.7935 43.8557H38.2086C36.5 48.9934 32.9265 52.4618 28.2662 54.9182L27.8111 55.1535C24.682 56.7412 21.6291 56.3463 19.2808 54.9055C17.0074 53.5105 15.3935 51.1348 15.0093 48.6271L14.9761 48.3849C14.219 42.0787 19.8793 37.019 26.1841 38.5422L26.7232 38.6838C27.9766 39.0374 29.1964 39.5409 30.4214 39.9572L30.9966 40.1437C32.3255 40.5493 33.6771 40.7811 35.0884 40.6476C35.0516 40.1862 34.9918 39.7716 34.9918 39.3527C34.9918 39.1475 35.0131 38.9448 35.0396 38.7365C35.0646 38.5398 35.0923 38.3386 35.1148 38.1213C31.9986 37.2356 29.5007 35.4133 27.3668 33.0764L26.9429 32.5998C25.4597 30.8924 24.2174 29.0381 23.4 26.923L23.2418 26.4963C21.4501 21.4535 24.8114 15.8214 30.1031 14.9807L30.4254 14.9338ZM43.0318 42.8967C43.3683 46.1257 42.4716 48.8759 41.4146 51.5822L41.4156 51.5832C41.2237 52.0768 41.0668 52.5856 40.9429 53.1027L40.8297 53.6223C40.2553 56.5587 41.459 59.2914 43.9097 60.7492L44.1402 60.8801C46.537 62.1794 49.5286 61.8671 51.6568 60.0656L51.8511 59.8957C53.7553 58.1683 54.3782 55.6383 53.399 52.9455L53.2955 52.676C51.7207 48.7574 49.0018 45.7913 45.2838 43.7766L45.2847 43.7717C44.9554 43.5966 44.605 43.4589 44.2222 43.3215C43.8579 43.1907 43.4626 43.0583 43.0318 42.8967ZM25.2994 40.7697C22.4191 40.2133 19.7387 41.351 18.2652 43.7004L18.1265 43.9318C16.776 46.2797 17.0068 49.2442 18.688 51.3996L18.856 51.6057L19.0259 51.801C20.8104 53.7682 23.444 54.3668 26.2457 53.2443L26.6109 53.0939C30.332 51.5103 33.1623 48.871 35.1129 45.3068H35.106L35.1451 45.2336C35.3223 44.9018 35.4585 44.548 35.5845 44.1906C35.7027 43.8555 35.8133 43.5145 35.9371 43.1877C34.544 43.0406 33.2572 42.9842 32.0279 42.7726L31.4966 42.6701C30.2651 42.4045 29.0645 41.9341 27.8589 41.5266L27.3414 41.3557C26.7541 41.1626 26.1628 40.9639 25.5591 40.8254L25.2994 40.7697ZM39.2007 37.299C38.0659 37.4368 37.2803 38.3379 37.314 39.5168L37.3306 39.7385C37.465 40.8241 38.3381 41.5944 39.4898 41.5969C40.676 41.5866 41.5597 40.7683 41.6509 39.6389L41.6578 39.4084C41.6398 38.1604 40.6904 37.2545 39.4322 37.2814L39.2007 37.299ZM60.1714 27.3098C58.46 25.2367 55.8431 24.5043 53.0689 25.4973L52.8004 25.5988C48.9329 27.1422 45.9853 29.7763 43.9732 33.3947L43.7818 33.7473C43.6137 34.0652 43.4835 34.4046 43.3668 34.7424C43.2581 35.0567 43.1586 35.3726 43.0523 35.6642C44.7225 35.8685 46.3259 35.929 47.8619 36.2834L48.4459 36.4308C49.8021 36.8033 51.1205 37.3589 52.4488 37.799V37.8L52.7545 37.8937C53.0637 37.9808 53.3842 38.0476 53.7007 38.1096H53.6998C56.6275 38.6568 59.361 37.4536 60.8189 34.9933L60.8336 34.9689H60.8414C62.2028 32.6423 61.9944 29.6917 60.3365 27.5187L60.1714 27.3098ZM35.0259 18.1027C32.6514 16.7169 29.6606 16.9557 27.4869 18.6711L27.2789 18.841C25.1666 20.6528 24.527 23.3844 25.7408 26.3322L25.8922 26.6906C27.4851 30.3674 30.1211 33.16 33.6607 35.0851L33.6871 35.0988V35.1066C34.007 35.2774 34.3493 35.4145 34.73 35.5529C35.0989 35.687 35.5043 35.8252 35.9556 35.9992C35.5586 32.5958 36.6389 29.6971 37.7408 26.8195L37.8619 26.4728C37.9752 26.1218 38.0648 25.7589 38.1334 25.3957L38.1841 25.1105C38.6438 22.2704 37.5376 19.6953 35.2584 18.2443L35.0259 18.1027Z" fill="#4F4F4F" stroke="black" stroke-width="0.1"/>
<path d="M40.7197 3.70886C56.1788 4.16295 69.8397 14.8849 73.958 29.91L74.1797 30.7557C76.3682 39.4898 75.341 47.8885 71.1904 55.9491L71.1895 55.9501C71.0728 56.1667 70.9713 56.3908 70.8281 56.702C71.7702 56.5158 72.6163 56.3316 73.4697 56.1893L73.624 56.163L73.5996 56.1864C74.0436 56.1314 74.3972 56.1689 74.6602 56.3036C74.9547 56.4545 75.1277 56.7227 75.1895 57.0927L75.2061 57.2274C75.2299 57.5344 75.147 57.7951 74.9492 58.0057C74.7535 58.2141 74.4491 58.3687 74.0381 58.4755L73.8555 58.5184C72.1819 58.8679 70.505 59.1706 68.8428 59.538H68.8418C68.515 59.6079 68.2212 59.6044 67.9756 59.5028C67.7592 59.4132 67.5849 59.2492 67.459 59.0028L67.4082 58.8925C66.8297 57.4669 66.2559 56.041 65.7031 54.6112L65.1582 53.1796C65.0394 52.861 65.0522 52.5663 65.1777 52.3202C65.3029 52.0748 65.5369 51.8836 65.8486 51.7655L65.9639 51.7264C66.2322 51.6465 66.4846 51.6488 66.7051 51.7372C66.9573 51.8383 67.1607 52.05 67.2979 52.3622L67.6445 53.1718C67.9758 53.9607 68.3019 54.7737 68.665 55.6659C68.7599 55.5008 68.844 55.3578 68.9219 55.2255L69.1729 54.7821C79.5788 34.7881 67.1962 10.164 45.0537 6.49402L44.5293 6.41101C43.3813 6.23916 42.2234 6.17588 41.0605 6.11218L39.8965 6.0448C39.3792 6.01247 38.991 5.91241 38.7314 5.72253C38.4682 5.52994 38.3438 5.24914 38.3438 4.8739C38.3439 4.48006 38.4823 4.18129 38.7627 3.98328C39.0402 3.78749 39.4502 3.69519 39.9824 3.69519L40.7197 3.70886Z" fill="#4F4F4F" stroke="black" stroke-width="0.1"/>
<path d="M10.1464 19.3414C10.4991 19.2864 10.803 19.3114 11.0585 19.4391C11.351 19.5854 11.5715 19.8623 11.7303 20.2828L12.2177 21.567C12.3822 21.9942 12.5487 22.4205 12.7157 22.8463L13.7225 25.3961L13.8104 25.6617C13.8814 25.9228 13.8985 26.1706 13.8397 26.3932C13.7704 26.6556 13.5975 26.8759 13.2987 27.0377L13.163 27.1041C12.7654 27.2791 12.438 27.253 12.1727 27.0895C11.9762 26.9681 11.8178 26.7734 11.6903 26.5406L11.5731 26.2975C11.1533 25.3327 10.7676 24.3504 10.2997 23.192C10.0163 23.7379 9.7619 24.2168 9.52722 24.6813L9.28601 25.1696C-0.303769 45.1926 12.5597 69.305 34.5262 72.4772L35.077 72.5524C36.3655 72.7097 37.672 72.7551 38.9755 72.8356H38.9745C39.5595 72.8683 39.9867 72.9676 40.2626 73.1647C40.5097 73.3412 40.6301 73.5919 40.6405 73.9244L40.6376 74.0729C40.6138 74.4569 40.4683 74.7463 40.1815 74.9323C39.9334 75.0931 39.5854 75.1733 39.1337 75.1783L38.9335 75.1754C27.9163 74.8369 18.8556 70.5374 11.9305 62.1188L11.2675 61.2916C5.95298 54.4876 3.44282 46.6715 3.71863 38.0289L3.76355 37.0465C4.06127 32.1494 5.42326 27.5096 7.68152 23.1051L8.18445 22.1227C7.16598 22.3253 6.32012 22.5017 5.46667 22.6617L5.46765 22.6627C5.00775 22.751 4.63189 22.7279 4.34949 22.5856C4.10041 22.46 3.92952 22.245 3.83679 21.9489L3.80261 21.817C3.72191 21.4562 3.78019 21.1433 3.9823 20.8961C4.18284 20.651 4.51908 20.4772 4.97937 20.3795L6.23425 20.1246C7.48739 19.8755 8.73779 19.6385 9.99207 19.3698H9.99304L10.1464 19.3414Z" fill="#4F4F4F" stroke="black" stroke-width="0.1"/>
</svg>
