<svg width="24" height="24" viewBox="0 0 24 24" fill="none" xmlns="http://www.w3.org/2000/svg">
<g clip-path="url(#clip0_191_191)">
<path d="M12.0048 0C15.3977 0 18.8002 0 22.193 0C22.7409 0 22.837 0.0865039 22.837 0.634362C22.837 7.17982 22.837 13.7253 22.837 20.2803C22.837 20.8186 22.7409 20.9147 22.2027 20.9147C15.3977 20.9147 8.59271 20.9147 1.78774 20.9147C1.25911 20.9147 1.16299 20.8186 1.16299 20.2996C1.16299 13.7445 1.16299 7.17982 1.16299 0.62475C1.16299 0.0961153 1.25911 0 1.78774 0C5.19023 0 8.60232 0 12.0048 0ZM22.0393 20.1169V0.797758H1.96075V20.1266H22.0393V20.1169Z" fill="black"/>
<path d="M11.9952 24C8.20825 24 4.43092 24 0.643973 24C0.0865039 24 0 23.9135 0 23.3464C0 22.9523 0 22.5487 0 22.1546C0 21.8182 0.134562 21.6932 0.470965 21.6836C0.538246 21.6836 0.595915 21.6836 0.663196 21.6836C8.21786 21.6836 15.7725 21.6836 23.3368 21.6836C23.9231 21.6836 24 21.7605 24 22.3564C24 22.7313 24 23.1061 24 23.481C24 23.8751 23.8751 24 23.481 24C21.7701 24 20.0593 24 18.358 24C16.2435 24 14.1193 24 12.0048 24H11.9952ZM23.2023 23.2119V22.4814H0.797758V23.2119H23.2023Z" fill="black"/>
<path d="M11.9952 19.3576C9.11176 19.3576 6.23791 19.3576 3.35445 19.3576C2.8066 19.3576 2.71048 19.2711 2.71048 18.7329C2.71048 13.2159 2.71048 7.69884 2.71048 2.18182C2.71048 1.63396 2.79698 1.54745 3.34484 1.54745C9.12138 1.54745 14.8883 1.54745 20.6648 1.54745C21.2031 1.54745 21.2896 1.64357 21.2896 2.19143C21.2896 7.69884 21.2896 13.1966 21.2896 18.704C21.2896 19.2711 21.2031 19.3576 20.636 19.3576C17.7525 19.3576 14.8787 19.3576 11.9952 19.3576ZM13.1871 2.3356V18.5599H20.5014V2.3356H13.1871ZM10.8322 2.34521H3.50824V18.5503H10.8322V2.34521ZM11.6396 2.3356V18.5599H12.3701V2.3356H11.6396Z" fill="black"/>
<path d="M14.5519 10.6592C14.4173 10.5247 14.2539 10.3516 14.1001 10.1882C15.7533 8.52545 17.4161 6.87227 19.0981 5.19025C19.2327 5.34403 19.3961 5.52665 19.521 5.68043C17.8871 7.32401 16.2147 8.9868 14.5422 10.6592H14.5519Z" fill="black"/>
<path d="M14.5903 15.7629C14.4077 15.5611 14.2443 15.3881 14.0617 15.1959C15.7437 13.6388 17.4065 12.101 19.0885 10.5439C19.2711 10.7457 19.4345 10.9187 19.6171 11.111C17.9351 12.668 16.2723 14.2059 14.5903 15.7533V15.7629Z" fill="black"/>
<path d="M4.89229 10.688C4.7289 10.5246 4.5655 10.3612 4.43094 10.2267C6.10335 8.55426 7.77575 6.88185 9.43855 5.21906C9.57311 5.35362 9.74612 5.52662 9.8999 5.69002C8.24672 7.34321 6.58392 9.006 4.9019 10.688H4.89229Z" fill="black"/>
<path d="M4.91151 15.763C4.71928 15.5611 4.56549 15.3881 4.38287 15.1959C6.05528 13.6484 7.71808 12.1106 9.4001 10.5535C9.58272 10.7457 9.74611 10.9283 9.92873 11.1206C8.24671 12.6776 6.58392 14.2155 4.9019 15.7726L4.91151 15.763Z" fill="black"/>
</g>
<defs>
<clipPath id="clip0_191_191">
<rect width="24" height="24" fill="white"/>
</clipPath>
</defs>
</svg>
